<mxfile host="app.diagrams.net" modified="2024-04-24T09:24:08.683Z" agent="Mozilla/5.0 (Windows NT 10.0; Win64; x64) AppleWebKit/537.36 (KHTML, like Gecko) Chrome/124.0.0.0 Safari/537.36" etag="by2lA39vCkIRMhJHbRV1" version="24.2.8" type="github">
  <diagram name="ページ1" id="sdvpvcQsvNtGj8ghG2At">
    <mxGraphModel dx="1434" dy="1630" grid="1" gridSize="10" guides="1" tooltips="1" connect="1" arrows="1" fold="1" page="1" pageScale="1" pageWidth="1400" pageHeight="850" math="0" shadow="0">
      <root>
        <mxCell id="0" />
        <mxCell id="1" parent="0" />
        <mxCell id="nMR-CEYCyFCmmQzAVJvf-1" value="" style="shape=image;verticalLabelPosition=bottom;labelBackgroundColor=default;verticalAlign=top;imageAspect=0;image=data:image/jpeg,/9j/4AAQSkZJRgABAQEAYABgAAD/4QAiRXhpZgAATU0AKgAAAAgAAQESAAMAAAABAAEAAAAAAAD/2wBDAAIBAQIBAQICAgICAgICAwUDAwMDAwYEBAMFBwYHBwcGBwcICQsJCAgKCAcHCg0KCgsMDAwMBwkODw0MDgsMDAz/2wBDAQICAgMDAwYDAwYMCAcIDAwMDAwMDAwMDAwMDAwMDAwMDAwMDAwMDAwMDAwMDAwMDAwMDAwMDAwMDAwMDAwMDAz/wAARCAMgB4ADASIAAhEBAxEB/8QAHwAAAQUBAQEBAQEAAAAAAAAAAAECAwQFBgcICQoL/8QAtRAAAgEDAwIEAwUFBAQAAAF9AQIDAAQRBRIhMUEGE1FhByJxFDKBkaEII0KxwRVS0fAkM2JyggkKFhcYGRolJicoKSo0NTY3ODk6Q0RFRkdISUpTVFVWV1hZWmNkZWZnaGlqc3R1dnd4eXqDhIWGh4iJipKTlJWWl5iZmqKjpKWmp6ipqrKztLW2t7i5usLDxMXGx8jJytLT1NXW19jZ2uHi4+Tl5ufo6erx8vP09fb3+Pn6/8QAHwEAAwEBAQEBAQEBAQAAAAAAAAECAwQFBgcICQoL/8QAtREAAgECBAQDBAcFBAQAAQJ3AAECAxEEBSExBhJBUQdhcRMiMoEIFEKRobHBCSMzUvAVYnLRChYkNOEl8RcYGRomJygpKjU2Nzg5OkNERUZHSElKU1RVVldYWVpjZGVmZ2hpanN0dXZ3eHl6goOEhYaHiImKkpOUlZaXmJmaoqOkpaanqKmqsrO0tba3uLm6wsPExcbHyMnK0tPU1dbX2Nna4uPk5ebn6Onq8vP09fb3+Pn6/9oADAMBAAIRAxEAPwD9/KKKKACiiigAooooAKKKKACiiigAooooAKKKGOBQA2SVYUZmZVVRkknAAqGy1e01It9nure429fLkDY/I15X8MvA1j8etLXxl4shGtw6tJJJpWmXf7yw06zDssOID8jzOgEjyOGYF9qkKoFdRffs5eAtQi2t4O8Nxt/DJBp0UEqf7rxhWX8CKAO0zk0V5+/wX1Dwx+88K+K9a03byLPUpW1Wzb2xK3nKP92UAelQj4xat4Dby/G2iNY268f2tpzNdaf9X4EkP/A12j+8aAPRqKq6Prdn4g0+O6sbmG7tphuSWJwysPYirVABRRRQAUUUUAFFFFABRRRQAUUUUAFFFFABRRRQAUUUUAFFFFABRRRQAUUUUAFFFFABRRRQAUUUUAFFFFABRRRQAUUUUAFFFFABRRRQAUUUUAFFFFABRRRQAUUUUAFFFFABRRRQAUUUUAFFFFABRRRQAUUUUAFFFFABRRRQAUUUUAFFFFABRRRQAUUUUAFFFFABRRRQAUUUUAFFFFABRRRQAUUUUAFFFFABRRRQAUUUUAFFFFABRRRQAUUUUAFFFFABRRRQAUUUUAFFFFABRRRQAUUUUAFFFFABRRRQAUUUUAFFFFABRRRQAUUUUAFFFFABRRRQAUUUUAFFFFABRRRQAUUUUAFFFFABRRRQAUUUUAFFFFABRRRQAUUUUAFFFFABRRRQAUUUUAFFFFABRRRQAUUUUAFFFFABRRRQAUUUUAFFFFABRRRQAUUUUAFFFFABRRRQAUUUUAFFFFABRRRQAUUUUAFFFFABRRRQAUUUUAFFFFABRRRQAUUUUAFFFFABRRRQAUUUUAFFFFABRRRQAUUUUAFFFFABRRRQAUUUUAFFFFABRRRQAUUUUAFFFFABRRRQAUUUUAFFFFABRRRQAUUUUAFFFFABRRRQAUUUUAFIwyP1paKAPOf2az/YXhLUvCsm5brwfqlzp21uv2dnM9qw9jbyxc+qsO1b3xq+J9j8F/hJ4k8WalNHb2Ph3TZ9Qmd/uqsaFufyrm/ikW+FXj618bw7l0q8hTS/EOBkQwhiYLwj/pi7srH/AJ5zMT9wV+dv/Beb9lr4va3+zR4v1j/hoTX7nTRaS3EfgqDToLWDUoFwZIyYcMyqpyWfPb1FAH39+x5+05b/ALQP7IXgn4matPZaXF4m0xL+VpJBHDCWZht3E44xiuoi/aN8B3s/kjxRovJ25acKn/fR+X9a+Jf+CXf/AART0j9nn4GeDdS8XeNfiD4h1SSwt9Rk0SbV5IdJ0+VlEnlLbrgMFLYw+ec1654W/a/k8dftzap8KbH4OeKZPDui6NDcXmp3Wl2tvbwzSTOok/eSAtCUUY2gtkH5QKAPb5/hRbpJ/bngHVYNHubj94YoSJtLv+v341OFJ/vx4PfBrR8JfF9bjWI9E8R2beH/ABA4Ajikfdb3x7mCXo/+6cMPQ4NYviP4Cz+DpptY+HdxHoGrL+8fTnY/2XqmOTHLGM+WT0EiAMpwcMMqed1bXtZ/ajig8Px+G9Q8M6bZyIfEF1q9ntmt50YE2lnniRuMm5TMYVhsLOT5YB6r4t+J3h7wKdusa1punybdwjnuFWQj1C5yfwFZ3h/48eDfFF2tvY+JdHmuJDhIjcqkjn2VsE/hXFXOj/8ACl9dmvvEljD4j0GXbGmuy24mv9MjBO1LngmSJc/60fMv8QIyw77VPhr4V8daOouNH0fULO6QOjiBGWRSMhlYDoRyCDQB0oOaK8b1e31T9lu5j1C3urzV/h7uCX1rcSGa40EE4E0Tn5mgBI3Ic7B8wOARXsFtcpeW8c0bK8cih0YHIYHkEUASUUUUAFFFFABRRRQAUUUUAFFFFABRRRQAUUUUAFFFFABRRRQAUUUUAFFFFABRRRQAUUUUAFFFFABRRRQAUUUUAFFFFABRRRQAUUUUAFFFFABRRRQAUUUUAFFFFABRRRQAUUUUAFFFFABRRRQAUUUUAFFFFABRRRQAUUUUAFFFFABRRRQAUUUUAFFFFABRRRQAUUUUAFFFFABRRRQAUUUUAFFFFABRRRQAUUUUAFFFFABRRRQAUUUUAFFFFABRRRQAUUUUAFFFFABRRRQAUUUUAFFFFABRRRQAUUUUAFFFFABRRRQAUUUUAFFFFABRRRQAUUUUAFFFFABRRRQAUUUUAFFFFABRRRQAUUUUAFFFFABRRRQAUUUUAFFFFABRRRQAUUUUAFFFFABRRRQAUUUUAFFFFABRRRQAUUUUAFFFFABRRRQAUUUUAFFFFABRRRQAUUUUAFFFFABRRRQAUUUUAFFFFABRRRQAUUUUAFFFFABRRRQAUUUUAFFFFABRRRQAUUUUAFFFFABRRRQAUUUUAFFFFABRRRQAUUUUAFNkkWKNmZlVVGSScACvKPjH+0de6J49h8A+AtFj8W/EK6gW5nhkmMOm+G7Z8hLvUJgCUViD5cKAyzFTtCqHkTJsf2JdL8fbL74va1ffFjVGwz2WpKbfw5bn+7DpSMYCo4w1z58v/TTkigDe8V/tw/BXwHqLWeufGD4XaLdodrQX3iqwt5FPoVeUGul+G/x78C/GRWbwh408J+KlUbidH1e3vsD1/dO1a3hLwBoPgHTls9C0XSdFs0G1YLCzjto1HoFQAVzHxL/Za+G/xjKv4m8D+F9Yuozuiu5tOj+2Wzf34pwBLG4/vIwYetAHe0V4NqXw4+In7MMT6l4D1TWfiV4StVLXHg3Xr/7Rq0SD/oHalM292UDiC9eQOeBPF39R+Dvxj8P/AB38B2viLw3dtdWNwzwyRyxNBc2U6HbLbzxOA8U0bAq8bgMpGCKAOoooooAKKKKACiiigAooooAKKKbJ9w0AVjr1is7RfbLXzVOCnmruB+mc1bB3Div47P8AgtNpXjL4Nf8ABQTx9420nXtb0218TeKtS+xz2V5Nbtby28io6hkYYIJB49a/YH/g16/4LE6/+0h+y18RPC/xc8STazrHwes/7XTV76XfdXGk+W7EyseZGiMbjceSCuSTzQB+xl3qNvYLunmjhU93YKKLO/h1GLzLeaKeMHbujcMM+mRX8WP/AAUl/wCCr/xb/wCCg/7RHiTxFr3jDxBa+HZryVdI0C2v5IdP021DHy0WJGCs23G5yCzHv0A/cf8A4IpftCaX/wAElv8AgiV8VvE3xOu5pJvh942vUurYuWnuL+bT9MkSyTcfv+bMI/Yhie9AH7D3l/Dp8RkuJo4Y16s7BVH4mqOkeNdH8QOy2OqafeMpwRBcJIQf+Ak1+VHwM/ZCb/g4i/4J6W3xQ+J/xI8feH9a8Z3N8dL0jw9qxttE8OxxTNFDA1qBi5YBQzySnc27jYOK/CD9tz9j/wCOP/BFH9q+TQZ9e17w9fRP9q0TxHot5NaxarAG+WRHUjnsyHoeDkUAf2lZzQTgV+OP/Btd/wAHAGuft1X03wZ+MN5b3PxE020N1o+tbViOvwJgOkijA89BgkgAMOcZBr2T9sP/AIKsr8Wf+CsXw/8A2L/AfiG68N/249wfG/ifTnUX1mqWU1yNOs2YMscziNQ8pBKByFG4ZAB+h3ibxR4fhgk0/VtQ0uNLtTC0FzcInmgjBXDHnOeleO/C34K6H4+8UeONM1VJNe8N6NDB4WsIb2fz/Lttq3UkYYdV/eQIM87YEBJOSfxz/wCC7f8AwbH614d8Iat8Y/gr4m8b+OLjTY2vNb0DxDqcuqakY1GXntrhzvkwMkxt82BkE9B+b/8AwTF/4LefGr/gmZ8TrOTTPEGpeIPBE1yp1fwvqk7TWtwnCsY92TDKFAwy4HygEEDFAH9lKqI1woCqowAO1c7qOteFfCPiCW8u7zRdO1K+VYpJZpo4pplX7qksQSBk4HvX57f8FT/+C3Oj/CT/AIJW+C/jH8N76dofixeWlhZXkIU3OmwuQbsqDkCeNA6rkEbsGvzT/b//AOCO3gv/AIKCfs6337R37KPxS8U/FmfTbcXXiTw94g1V9S1mEhd0jIzYcOvJMRHQfKSOKAP6U7S+hv4RJBLHNG3RkYMD+IqXGK/jG/4Jv/8ABab45/8ABMv4oWM2h+JdW1vwlbzhNT8JavdyTafcxg4dUViTbyYzh0xg4yGHFf10/sZ/tZeFf24/2ZvCPxS8F3DT+H/F1kLqFZMebayAlJYJAOkkciujD1X0oA9OmhW4iaORVZGGCCMgivH/ABTeR/syap/aGm3dvJ4TuJC19obzqsunk8mezDEZXqXhHHVkwcg9N+1B8ULz4K/s6+NvFun2jX194d0W71C3t1GTK8cTMox9QK/jF/aTt/2iv2s7G8+PHjzTPHviPQ9eu5JU8QTwTyafEd3McJ5WONOgC4Ax65oA/te0zWNG+J3hBbi0uLPVtH1a3OHQiSG4icYI9CCCQRXGfsvX8lh8MptHurnzm8K6ld6KJXOC8cEzRxkk9ygWv47/ANhb/gsP+0B/wTz162l8A+PNUOhxsDL4f1SVr3Sp1zkr5Ln93n1jKmv1Y/YL/wCCsfxy/wCC1fxI0X4M6B8ObDwr4T1DxXF4r+Inia1uZZlSxhvEvDax5VRF5rxRxj5mYhjxjJoA/fWbxLp1vM0cl/ZRyIcMrToCp9CM1YTUrd7L7Ss8LW+C3mhxswO+elfxZ/8ABZXxBqGnf8FX/wBoeGG+vI40+IOsBVW4cBR9qfgc1+5H7Pt/cH/gzpvbjz5jcf8ACufEDebvO/P22879aAP18j8UabLIqrqFizMcAC4Qkn86kGu2TXBhF5bNKp2lBKCwP0zmv4ff2AvE2o3P7bXwpjkv711PinT8hp3IP79Pevbv+CtOkfEr4Dft1eOviJpOseINC0nxR4v1QaTqWnahNbsk1tMEkTcjDa6nBx6EGgD+xi7v4LCDzZ5ooY843yOFX8zUNt4i0+9nWOG+s5ZG+6iTKzH6AGv5j/gv/wAFOPiJ/wAFeP8Aglf8TP2b/GGpXHiD4u+EbSDxT4T1AuVvfEttZvuuLVtv+suI4md1I5cDuQTXz1/wbc6zqn/D8H4GWt5dXx26hqaSRSyvwRpN9wQT2I70Af18anrNpotuZry6t7WJeS8sgRR+JqLRfEun+I7fztPvrS+j/vwTLIv5qSK/JT48f8EutW/4Lj6Z8ete8bfFDxnoOveD/G+seD/BfhuzvPL0LRIdPZEhkubbGZZLkETFyQQkq4JGAPwS8LfG39oj/gjr+09rGg6L4k8TfD7xb4Xvmtr6wWZjZ3e08F4WzFNG45VipyDkEUAf2yGZBL5e5fMI3bc849cU6vxw/wCDcH9sb4+/8FRP2hPGnxm+LX2FPD3hnQIfDGjnTrBrO0nmabzZSAWbe+ACWzgdBiv2PoAKKKKACiiigAooooAKKKKACiiigAooooAKKKKACiiigAooooAKKKKACiiigAooooAKKKKACiiigAooooAKKKKACiiigAooooAKKKKACiiigAooooAKKKKACiiigAooooAKKKKACiiigAooooAKKKKACiiigAooooAKKKKACiiigAooooAKKKKACiiigAooooAKKKKACiiigAooooAKKKKACiiigAooooAKKKKACiiigAooooAKKKKACiiigAooooAKKKKACiiigAooooAKKKKACiiigAooooAKKKKACiiigAooooAKKKKACiiigAooooAKKKKACiiigAooooAKKKKACiiigAooooAKKKKACiiigAooooAKKKKACiiigAooooAKKKKACiiigAooooAKKKKACiiigAooooAKKKKACiiigAooooAKKKKACiiigAooooAKKKKACiiigAooooAKKKKACiiigAooooAKKKKACiiigAooooAKKKKACiiigAooooAKKKKACvP/ANpj4x3XwV+F8l9pFjBq3inWLqHRfDmmzOUj1DUrhtkCOw5WJTmSRh92KKRv4a9ArxXxdH/wsH9vTwjpsvz2Xw78LXfiQx+l9fy/YbWX6rbw6mnv559OQDrf2dvgLY/s/wDgR9PjuptY1zVrl9T8Qa3cj/Stc1CTHm3Eh7DgKkY+WKNI41wqAV3tFFABRRRQAV4D8bdIj/Zb+LsPxc0lPs/hzxFc22lfEG0VisPluwhtdZCDgTW7tHHM2PmtnLMT9njx79WT4+8Eab8TfAmteG9Zt1utH8QWE+m30B6TQTRtHIv4qxH40Aa1FeV/sSeM9S8dfsreC7nWrhrvXNPsm0bVZz1uL2xleyuZD7tNbyNjtmvVKACiiigAooooAKKKKACmyfcNOpsn3DQB/Nz+0R+yfdf8FX/iL+1H8GPC93Yx/Fj4WfEK78W+F7G5lEQ1iynjSO6t1Y/xb1Vh2B69a/M/wp40+LP/AATA8ffEjwjrGgax4S1/xh4ZuvCeqWWoQtA4t55Iy0i9mGIyAwJBDtzXs37b/wC1n4y/Yk/4LofFL4jeBdSk03XvD/jK4lXB/d3Ufy74ZF/ijdcgj3z1Ar+gz4gfsp/Df/gvX+zH+zl8YLzQ9GhmsdU0/wAT3a3cHmSTWYR/tOnMQOVaUR8NkYQjvQB+Bn/BI3/gi94w/ag8YWHxY+JmlXHgn9nnwP8A8VJ4j17VozBHqdja/v5YLdWwz+YqbS4G0BiQScCut/bp/ac1v9oD/gjN/wAJUqzWem/E/wDaT8UeJb6FThVd7KGaGE+yiU4H/TMelfWn/B3R/wAFQNa8JeJrH9lHwOy6H4ZtNNtdR8WfZV8o3zSYktrLC9IUQRyEDhmdQRhOaP8AwS5/4JuTf8FPP+DZfxl4J0fyF8Z6N8RtR17w1JMdqNfQ2lmBEzdlljaSMntvB5xQB6F/wZpf8FB7G98EeLP2edevkh1KzuX8ReHElfBuI2AW5hX1K7VcAdt5r9Gf+C5H/BM/R/8Agpb+xB4g0H7JF/wmnh2CTVfDN4EHmR3MakmLPXbIAVI9SK/kh+Hvjj4kf8E9v2pbTV7OPVvBfxE+HuqgyW9zEYp7OeNvmjkQ9VI4I6MpyMgg1/WD/wAEjP8Agun8Kf8Agp18I7FJNa0nwr8TrG3Ua14avrpIZTIB801tvI86E4J+XLJ0YDqQD+ZP/gj/AKpr3wj/AOCs/wAF1s1uLTWLLxnbadcRjIZVdzDOpH+6z5+lV/Fn7X/iv9n7/grXqnxn3TXHijwz8Qp9dmjkYg3JS7cywseyvHvjPs1fsR/wSy/4JFx/F3/gt98Wv2iba2h/4U54L8V6g/hG7QA2+u3zFkMkB6SQw7pPnGVLkAHKmvi//g6E/wCCRniX9kH9rfXvjH4e0e4uvhX8TL9r9r23jLRaLqUp3TW0xHEYd9zxk4DBioyUNAH9N37PHx28M/tT/Ajwt8QPCd7HqfhnxjpkWpWMynO6ORc7GHZ1OUZTyGVgelfzAf8AB0r/AMEu7P8AYY/bJh8deEdPWy8BfFZpb6OCFNsWnaip3XEQ7Kr5Eij3cdAK6P8A4Nv/APgvzB/wTt16T4S/Fq8vJPg/r12Z7LUNrTP4Su3PzyBBlmtZDzIiglW+dQSWVv00/wCDlbR/DP7f/wDwTt8D6L8MtS0P4heLvF3ivT28F2+i3sV4+psxKzPEYyfkSFnZ26KAc4xQB+KnjnxxqPiT/g3v8GaRd3Xn2ug/FW8W1UybjEklmGK46gZHGfevd/8Agzn8fatpH/BTvVvD9vfXEej614RvJby1Dny5nikiMbFemV3Ng+5r0r/gu5/wTb0j/gm3/wAEWvgD4O8q3m8XW+vyya7qEJ4ubmWAvIv+0iHCqT/dyMZr4v8A+Den9vbwT/wTt/4KNaP42+ITXtv4X1LS7nQ7m9t4/M/s4ztGVndB8zRqU+YLyAcgHGKAPoD/AIOt/wDgltY/sYftXaf8UPBumpY+B/is0s8tvAm2HT9UTBnQAcKsgYSKPUuB0r9Dv+DLPxnq2uf8E5/H+k3kksumaH49nTTy/wB2IS2NpJLGvsH+bHrIfWu5/wCDkW78G/t5f8EsvD2m/DnVNF+Ivibxh4s0s+BbXQruK9n1q5PmLIINhJ2rA8jOxwqBcuVAr6j/AOCLP/BO5f8AgmN/wT/8JfDa6mt7rxNI0mteJbmDmObUrjaZQh/iSNVjhVsDcsIOBmgD6o1HToNXsJrW6hjuLe5RopY3G5ZFIwQR6EV8m/tlfs4eE/2Yf+CUPxe8H+DtO/s3w3a+HdVubaxZ/MitTLukZIwfuoGYkL2zX1xnFfGf/BUv4m6p8W/2LvjRpHhGb7P4d0Pw5fJrOvKAwmmWM5s7bIKsw6SSdF+6MtnAB/ON+xz+3J8G/in4n+HPw9+Mn7PfgfXxcatY6VdeKtJV7LVZrdpFjUSIp8tzkrubAJXPc1/T98BvgX4J/YHvbXRfA/hrS/DPw58VzoIUsbRYxpt6+AqyN95o5eilidrnb0YY/jJ/ZgbP7Tfw9/7GbTf/AEqir+5258J2Pjn4b/2RqUIuLHULJYZoycZUqOhHII6gjkEAjpQB/GD/AMFpD/xtp/aK/wCyhax/6VvX7m/s4yC+/wCDN/UBD+8K/DrxCpC84Ivb3NflJ/wcZ/8ABP3x1+zH+3r448aalp91f+E/Geq/a49cjhJga7ljEjLMw4SWXDSAHG796Fz5b7f0q/4NYv27Phb8ff2AdY/ZZ+ImqaLa65p817b2ekancJCuv6XekvIkO4jfIkjy7kB3bXVgCAxAB+E//BPv/k9/4U/9jTp//o9K/Zm2+Bvh/wD4Ko+C/wBsv9nWRreP4mfD/wAdX3jTwTvIEjlxiWNc84dl2kDuVJrhvj9/wbeTfsZ/8FY/gPb/AAs8QSeI/CPjLxKL6PTLtg2peH7e1ImlkkI/1luqjHmkAg7Qck5r4h/ai/bD8afsI/8ABbv4lfErwLqEljrWg+M7tymT5N7CXHmQSr/FG68EfQjkCgD5h+Cvxb8Y/sU/tL6J4s0OS40Xxh4B1hZ0VwUaOaJ8PE467WAZGHdWIr9nP2dPhd4F8Y/8F5v2O/2kfhXZwab4I/aItdY1W702EAJo+u22l3keo22BwuHdHxxy7EcYrov29P8Ag37tv+Cxfw+8N/tTfs66lonhnXPilpUGuax4Z1Zmhs7m5kQGR4ZkVvLkLZ3KylSedy14r/wSR/Zh/aI/4J9f8FPf2fvgn8YvA+o+HdFuvF+seJPDWoSsl1ZC5Ph6/t7kW08ZaNw6/ZXdNwZTChKjdQB9/wD/AAU9/wCCuPwb/wCCbX7UOuah8OfG3274u6wYbfxT4KsbI3+l61cRqEha5dWX7NeKgEZkQliqqrj5RXpfjD9mfxn/AMFBdH8L+LPjF+yL8HrvVZ4IZc6t4hZr+zjbB2vsjByAT8hY46Zr+Wv9oDwb4+/Zw/au8SaX8QbbULb4geGNflfVhfbvOkulm8wyktyyyHDq4yHVwwJBBr+yP/gl/wD8FBPCP/BR39kbwx4+8N6nZ3OoyWcUGv6fHIDPpN+qASxSJ1UFgWUnhlIPrgA9j+EXwk8N/BDwDp/hzwpoGk+GdF0+MLDYadAsMEXrgDr9Tya6auR1745eF/DvxL0rwbNqkUvinWEaaDS7dWnuUhXrPKiAmKLt5km1SeASeK66gAooooAKKKKACiiigAooooAKKKKACiiigAooooAKKKKACiiigAooooAKKKKACiiigAooooAKKKKACiiigAooooAKKKKACiiigAooooAKKKKACiiigAooooAKKKKACiiigAooooAKKKKACiiigAooooAKKKKACiiigAooooAKKKKACiiigAooooAKKKKACiiigAooooAKKKKACiiigAooooAKKKKACiiigAooooAKKKKACiiigAooooAKKKKACiiigAooooAKKKKACiiigAooooAKKKKACiiigAooooAKKKKACiiigAooooAKKKKACiiigAooooAKKKKACiiigAooooAKKKKACiiigAooooAKKKKACiiigAooooAKKKKACiiigAooooAKKKKACiiigAooooAKKKKACiiigAooooAKKKKACiiigAooooAKKKKACiiigAooooAKKKKACiiigAooooAKKKKACiiigAooooAKKKKACiiigAooooAKKKKACiiigAooooAK8X8LH7B/wUP8deZ/zFPh14c+zZ7/AGbU9d87H0+1QZ+or2ivEf2k5/8AhUvxx+GnxNb93pNtNP4N8Qy/w29nqbwG3uH7bY7+3tELHARLqVs4BBAPbq8h/Yq/Zx8Vfsv/AAq1Dw/4w+Knib4vanea1danFrOuptuLaCXZstVG9/kTaxHIGZG2qi7VHr1FAHkP7av7OPir9qD4Vaf4f8H/ABU8TfCHU7PWrXU5dZ0JN1xcwRb99qw3p8j7lJ5IzGu5XXcp9eoooA8h8G/s4+KvDX7Zni/4mXfxU8Tat4R8SaLb6ZY+BJ0/4leiTx+VuuojvI3v5bk4RTmZ8swCBfXqK8+/ak+Ltx8E/gfrWsabCt54jnRdN8PWR66hqtywgs4cejTum4gHagdiMKaAOY/YFPn/ALPE90v+o1Txj4t1K3PYwXHiTU54iPYxyIR7V7RXJfAX4U2/wK+CfhPwbazNcw+F9JttM+0P9+5aKNUaVvVnYFiT1LGutoAKKKKACiiigAooooAKCNwoooA+Dfjl/wAG2X7Jv7Rfxe8QeOfFXgfW77xH4ovHv9QuI/Et9CssrdSEWQKvToBX1f8Ass/su+D/ANjb4HaJ8O/Adjcab4V8PRmKyt57uS6eNSxYgySEseSepr0OigD4t/a9/wCCAP7Mv7c3x71j4l/EbwfrGr+LddSCO8uYfEN5axuIYkhjxHG4VcIijgc9epNe3/sOfsHfDf8A4J2fBmbwD8LNJvNF8M3GpTas9vc38165uJUjR23ysWwViTjOOD6mvY6KAPm79tz/AIJIfs9/8FDXjufip8N9H1zWbePyodZt3ksNUiUdF+0wsrso7K5ZR6V4N8GP+DXb9jf4N+LYdY/4VveeKri2fzIYPEWs3F/aIw9YMrHIPaRWHtX6FUUAUfDnhvT/AAfoNnpek2Nnpmm6fEsFraWkKwwW8ajCoiKAqqBwAAAKh8beBtF+JXhPUNB8RaTpuvaHq0LW97p+oWyXVreRN1SSNwVdT6MCK1KKAPzp+J3/AAau/sZ/EjxdLq8Pw+1jwy1w/mS2mieILq2s2bvtiZnEY/2U2gdgK+mP2K/+CXfwH/4J7afNH8J/hzofhm+uo/KudUIe71O6XqVe6mLS7SedgYLkdK9+ooA8K/bx/wCCcfwp/wCCkngHSPDPxY0S+1zSNDvTf2kVtqU9iySldhJaJlJ4PQ8V8XfFf/g0u/ZP1bw2X8L+FvEWk6taus8aN4nu2gvdpyYZC5dkVxkb05U4ODgg/qNRQB8m/wDBNL9gD9nf9kLR75vhT8MNL8E+LLcfYdbe83XmtwPwWikuZWeQxNgMNjCNxhgDxX1kTgVwPxX+EtzrmpweJvDNxDpfjDTY9kM7g+RfxZybW5A5aMnOG+9Gx3L/ABK3JSeJfFf7SDf8I/HpeseCNHtf3XiO7mPl3U0n8VnaOOqkctcDjawC8kkADPHHxQ/4Xn4zPgvQdZXR9A8x4NW1mOYRzXzJ/rLKxbu4ziSVc+WDhcufl7rxr+z94T8efA7UfhzeaXHH4R1TTn0qaxtZGtx9nYYZVZSGUn1Bzk5zmr178G/DGoeCLXw7Jotj/Y9igjtbdY9otsDAMZHzIw/vKQc85zXN/wDCAeMvhwP+KZ1uPXNNTpputMTIg9I7hfm+gcH3agD448Of8GvH7HXw/wDEFjr2m/D3xB/aWi3Ed/akeKL9z5sTCRPlaTB+ZRweK9p/Zn/at+J/xX/a8+IXhO++FPiDw74B8JmxsLXUNSu7ON4ZTbCVyUSV2kDh4yuwnAI3bTkV7HH+0JFoMiw+KNB1zw7LnBle3Nzak+0seR+lW7L48eA4kuLqHXtHjadt8zBtkkjABcsMZJwAPoBQBzP7QHwl8P8AxC+IWh6b4o0HR/Evhbx5ZXPhjW9K1O2S6tNQCRve2xkicFW8sw3QXIyDOSMGvkT4hf8ABqn+xn478Tvqdv4C13w35knmta6P4ju4bbd7I7PsHspAHbFfZdtrsnxr+KOg3WmQXC+GfCcs1+19NEY1v7t4JLeOOINglESaZmbGN2wDPNeoUAeGfsZ/8E3Pgx+wHo13bfC7wTZaDdakix32pzTy32pXqryFkuZ2eUoDyEDBAeQor57+M/8AwbUfsk/H34ra9408TeBtcvPEHiW9e/v54/E19CssznLEIsgVfoBX3vRQBwf7Mv7NnhP9kX4IaB8PPA9jcad4X8M24tbC3muZLl4owScGRyWbr3NaHxG+CXhz4q+JvBusa1Y/adS8A6y2vaJMsjRtaXbWlxZs/wAp+YGG6mUqcg7geqjHWUUAfP8A+2d/wS3+Af8AwUDtoP8AhbPw10DxTfWkXkW2pkPaalbJyQiXULJKEBJOwsVz2r5z+FP/AAbHfsx/BDxe+s+E1+Knh24lGyRNL8eahYCRP7heBklK+2+v0MooA85/Z1/ZK+Hf7J/h6403wD4XsdBS+k829ug0lzfalJ/fubqZnnnb/akdiO1ejUUUAFFFFABRRRQAUUUUAFFFFABRRRQAUUUUAFFFFABRRRQAUUUUAFFFFABRRRQAUUUUAFFFFABRRRQAUUUUAFFFFABRRRQAUUUUAFFFFABRRRQAUUUUAFFFFABRRRQAUUUUAFFFFABRRRQAUUUUAFFFFABRRRQAUUUUAFFFFABRRRQAUUUUAFFFFABRRRQAUUUUAFFFFABRRRQAUUUUAFFFFABRRRQAUUUUAFFFFABRRRQAUUUUAFFFFABRRRQAUUUUAFFFFABRRRQAUUUUAFFFFABRRRQAUUUUAFFFFABRRRQAUUUUAFFFFABRRRQAUUUUAFFFFABRRRQAUUUUAFFFFABRRRQAUUUUAFFFFABRRRQAUUUUAFFFFABRRRQAUUUUAFFFFABRRRQAUUUUAFFFFABRRRQAUUUUAFFFFABRRRQAUUUUAFFFFABRRRQAUUUUAFFFFABRRRQAUUUUAFFFFABRRRQAUUUUAFFFFABRRRQAUUUUAFFFFABRRRQAUUUUAFFFFABWT478DaR8TvBereHdf0+31TRNctJLG/s5xmO5hkUq6HvypIyOR25rWooA8F+Cfxd1X4HeMbH4TfE7UWm1KZ2g8G+KLn5YfF9qoJSCR+i6nFGMSRnBmCGaMEGRIveqw/iN8NdA+Lvg+80DxNpNjrej3wAmtbqIOhIOVYd1dThldSGVgCCCAa8rtfhR8Wvgaiw+B/Fml+PvDsIxDonjmeaPULZR0SLV4UkkZev/AB8288h4zLgYIB7hRXi6/tGfErSf3epfs++OryYcF9C8Q6BdW5Ps11fWr4+sYPtTX+Lnxo8ZjydB+EWn+FfM4N34x8UW4MA/vC304XXmn/ZM0YP98UAeq+OPHOjfDPwhqPiDxFqljouh6RA1ze317MsNvaxKMl3diAAPevGfhJpWr/tRfFaw+J3iPTbrSfBfh0OfAei38DQ3k0siNHJrV1G2DHI8TtFBEwDRxSSs4DzbI9fwz+yjceJvFVj4k+KniWT4ia5psouLDTxZix8O6PKORJb2G998qnlZrmSeVP4GTpXslABRRRQAUUUUAFFFFABRRRQAUUUUAFFFFABRRRQAUUUUAFFFFABRRRQAUUUUAFAGKKKACiiigBCgYcis6TwdpMs3mNptg0mc7jboWz9cVpUUAIiLGu1RtA6AdqWiigAooooAKKKKACiiigAooooAKKKKACiiigAooooAKKKKACiiigAooooAKKKKACiiigAooooAKKKKACiiigAooooAKKKKACiiigAooooAKKKKACiiigAooooAKKKKACiiigAooooAKKKKACiiigAooooAKKKKACiiigAooooAKKKKACiiigAooooAKKKKACiiigAooooAKKKKACiiigAooooAKKKKACiiigAooooAKKKKACiiigAooooAKKKKACiiigAooooAKKKKACiiigAooooAKKKKACiiigAooooAKKKKACiiigAooooAKKKKACiiigAooooAKKKKACiiigAooooAKKKKACiiigAooooAKKKKACiiigAooooAKKKKACiiigAooooAKKKKACiiigAooooAKKKKACiiigAooooAKKKKACiiigAooooAKKKKACiiigAooooAKKKKACiiigAooooAKKKKACiiigAooooAKKKKACiiigAooooAKKKKACiiigAooooAKKKKACiiigAooooAKKKKACiiigAooooAKKKKACiiigAooooAKKKKAK1xftB/yz3f8CqnJ4kaM/8AHtn/ALaf/Wq/NBvqq+nK1AFb/hKpP+fX/wAif/Wo/wCEqk/59f8AyJ/9apzpijsKP7NX+7QBB/wlUn/Pr/5E/wDrUf8ACVSf8+v/AJE/+tU/9mr/AHaP7NX+7QBB/wAJVJ/z6/8AkT/61H/CVSf8+v8A5E/+tU/9mr/do/s1f7tAEH/CVSf8+v8A5E/+tR/wlUn/AD6/+RP/AK1T/wBmr/do/s1f7tAEH/CVSf8APr/5E/8ArUf8JVJ/z6/+RP8A61T/ANmr/do/s1f7tAEH/CVSf8+v/kT/AOtR/wAJVJ/z6/8AkT/61T/2av8Ado/s1f7tAEH/AAlUn/Pr/wCRP/rUf8JVJ/z6/wDkT/61T/2av92j+zV/u0AQf8JVJ/z6/wDkT/61H/CVSf8APr/5E/8ArVP/AGav92j+zV/u0AQf8JVJ/wA+v/kT/wCtR/wlUn/Pr/5E/wDrVP8A2av92j+zV/u0AQf8JVJ/z6/+RP8A61H/AAlUn/Pr/wCRP/rVP/Zq/wB2j+zV/u0AQf8ACVSf8+v/AJE/+tR/wlUn/Pr/AORP/rVP/Zq/3aP7NX+7QBB/wlUn/Pr/AORP/rUf8JVJ/wA+v/kT/wCtU/8AZq/3aP7NX+7QBB/wlUn/AD6/+RP/AK1H/CVSf8+v/kT/AOtU/wDZq/3aP7NX+7QBB/wlUn/Pr/5E/wDrUf8ACVSf8+v/AJE/+tU/9mr/AHaP7NX+7QBB/wAJVJ/z6/8AkT/61H/CVSf8+v8A5E/+tU/9mr/do/s1f7tAEH/CVSf8+v8A5E/+tR/wlUn/AD6/+RP/AK1T/wBmr/do/s1f7tAEH/CVSf8APr/5E/8ArUf8JVJ/z6/+RP8A61T/ANmr/do/s1f7tAEH/CVSf8+v/kT/AOtR/wAJVJ/z6/8AkT/61T/2av8Ado/s1f7tAEH/AAlUn/Pr/wCRP/rUf8JVJ/z6/wDkT/61T/2av92j+zV/u0AQf8JVJ/z6/wDkT/61H/CVSf8APr/5E/8ArVP/AGav92j+zV/u0AQf8JVJ/wA+v/kT/wCtR/wlUn/Pr/5E/wDrVP8A2av92j+zV/u0AQf8JVJ/z6/+RP8A61H/AAlUn/Pr/wCRP/rVP/Zq/wB2j+zV/u0AQf8ACVSf8+v/AJE/+tR/wlUn/Pr/AORP/rVP/Zq/3aP7NX+7QBB/wlUn/Pr/AORP/rUf8JVJ/wA+v/kT/wCtU/8AZq/3aP7NX+7QBB/wlUn/AD6/+RP/AK1H/CVSf8+v/kT/AOtU/wDZq/3aP7NX+7QBB/wlUn/Pr/5E/wDrUf8ACVSf8+v/AJE/+tU/9mr/AHaP7NX+7QBB/wAJVJ/z6/8AkT/61H/CVSf8+v8A5E/+tU/9mr/do/s1f7tAEH/CVSf8+v8A5E/+tR/wlUn/AD6/+RP/AK1T/wBmr/do/s1f7tAEH/CVSf8APr/5E/8ArUf8JVJ/z6/+RP8A61T/ANmr/do/s1f7tAEH/CVSf8+v/kT/AOtR/wAJVJ/z6/8AkT/61T/2av8Ado/s1f7tAEH/AAlUn/Pr/wCRP/rUf8JVJ/z6/wDkT/61T/2av92j+zV/u0AQf8JVJ/z6/wDkT/61H/CVSf8APr/5E/8ArVP/AGav92j+zV/u0AQf8JVJ/wA+v/kT/wCtR/wlUn/Pr/5E/wDrVP8A2av92j+zV/u0AQf8JVJ/z6/+RP8A61H/AAlUn/Pr/wCRP/rVP/Zq/wB2j+zV/u0AQf8ACVSf8+v/AJE/+tR/wlUn/Pr/AORP/rVP/Zq/3aP7NX+7QBB/wlUn/Pr/AORP/rUf8JVJ/wA+v/kT/wCtU/8AZq/3aP7NX+7QBB/wlUn/AD6/+RP/AK1H/CVSf8+v/kT/AOtU/wDZq/3aP7NX+7QBB/wlUn/Pr/5E/wDrUf8ACVSf8+v/AJE/+tU/9mr/AHaP7NX+7QBB/wAJVJ/z6/8AkT/61H/CVSf8+v8A5E/+tU/9mr/do/s1f7tAEH/CVSf8+v8A5E/+tR/wlUn/AD6/+RP/AK1T/wBmr/do/s1f7tAEH/CVSf8APr/5E/8ArUf8JVJ/z6/+RP8A61T/ANmr/do/s1f7tAEH/CVSf8+v/kT/AOtR/wAJVJ/z6/8AkT/61T/2av8Ado/s1f7tAEH/AAlUn/Pr/wCRP/rUf8JVJ/z6/wDkT/61T/2av92j+zV/u0AQf8JVJ/z6/wDkT/61H/CVSf8APr/5E/8ArVP/AGav92j+zV/u0AQf8JVJ/wA+v/kT/wCtR/wlUn/Pr/5E/wDrVP8A2av92j+zV/u0AQf8JVJ/z6/+RP8A61H/AAlUn/Pr/wCRP/rVP/Zq/wB2j+zV/u0AQf8ACVSf8+v/AJE/+tR/wlUn/Pr/AORP/rVP/Zq/3aP7NX+7QBB/wlUn/Pr/AORP/rUf8JVJ/wA+v/kT/wCtU/8AZq/3aP7NX+7QBB/wlUn/AD6/+RP/AK1H/CVSf8+v/kT/AOtU/wDZq/3aP7NX+7QBB/wlUn/Pr/5E/wDrUf8ACVSf8+v/AJE/+tU/9mr/AHaP7NX+7QBB/wAJVJ/z6/8AkT/61H/CVSf8+v8A5E/+tU/9mr/do/s1f7tAEH/CVSf8+v8A5E/+tR/wlUn/AD6/+RP/AK1T/wBmr/do/s1f7tAEH/CVSf8APr/5E/8ArUf8JVJ/z6/+RP8A61T/ANmr/do/s1f7tAEH/CVSf8+v/kT/AOtR/wAJVJ/z6/8AkT/61T/2av8Ado/s1f7tAEH/AAlUn/Pr/wCRP/rUf8JVJ/z6/wDkT/61T/2av92j+zV/u0AQf8JVJ/z6/wDkT/61H/CVSf8APr/5E/8ArVP/AGav92j+zV/u0AQf8JVJ/wA+v/kT/wCtR/wlUn/Pr/5E/wDrVP8A2av92j+zV/u0AQf8JVJ/z6/+RP8A61H/AAlUn/Pr/wCRP/rVP/Zq/wB2j+zV/u0AQf8ACVSf8+v/AJE/+tR/wlUn/Pr/AORP/rVP/Zq/3aP7NX+7QBB/wlUn/Pr/AORP/rUf8JVJ/wA+v/kT/wCtU/8AZq/3aP7NX+7QBB/wlUn/AD6/+RP/AK1H/CVSf8+v/kT/AOtU/wDZq/3aP7NX+7QBB/wlUn/Pr/5E/wDrUf8ACVSf8+v/AJE/+tU/9mr/AHaP7NX+7QBB/wAJVJ/z6/8AkT/61H/CVSf8+v8A5E/+tU/9mr/do/s1f7tAEH/CVSf8+v8A5E/+tR/wlUn/AD6/+RP/AK1T/wBmr/do/s1f7tAEH/CVSf8APr/5E/8ArUf8JVJ/z6/+RP8A61T/ANmr/do/s1f7tAEH/CVSf8+v/kT/AOtR/wAJVJ/z6/8AkT/61T/2av8Ado/s1f7tAEH/AAlUn/Pr/wCRP/rUf8JVJ/z6/wDkT/61T/2av92j+zV/u0AQf8JVJ/z6/wDkT/61H/CVSf8APr/5E/8ArVP/AGav92j+zV/u0AQf8JVJ/wA+v/kT/wCtR/wlUn/Pr/5E/wDrVP8A2av92j+zV/u0AQf8JVJ/z6/+RP8A61H/AAlUn/Pr/wCRP/rVP/Zq/wB2j+zV/u0AQf8ACVSf8+v/AJE/+tR/wlUn/Pr/AORP/rVP/Zq/3aP7NX+7QBB/wlUn/Pr/AORP/rUf8JVJ/wA+v/kT/wCtU/8AZq/3aP7NX+7QBB/wlUn/AD6/+RP/AK1H/CVSf8+v/kT/AOtU/wDZq/3aP7NX+7QBB/wlUn/Pr/5E/wDrUf8ACVSf8+v/AJE/+tU/9mr/AHaP7NX+7QBB/wAJVJ/z6/8AkT/61H/CVSf8+v8A5E/+tU/9mr/do/s1f7tAEH/CVSf8+v8A5E/+tR/wlUn/AD6/+RP/AK1T/wBmr/do/s1f7tAEH/CVSf8APr/5E/8ArUf8JVJ/z6/+RP8A61T/ANmr/do/s1f7tAEH/CVSf8+v/kT/AOtR/wAJVJ/z6/8AkT/61T/2av8Ado/s1f7tAEH/AAlUn/Pr/wCRP/rUf8JVJ/z6/wDkT/61T/2av92j+zV/u0AQf8JVJ/z6/wDkT/61H/CVSf8APr/5E/8ArVP/AGav92j+zV/u0AQf8JVJ/wA+v/kT/wCtR/wlUn/Pr/5E/wDrVP8A2av92j+zV/u0AQf8JVJ/z6/+RP8A61H/AAlUn/Pr/wCRP/rVP/Zq/wB2j+zV/u0AQf8ACVSf8+v/AJE/+tR/wlUn/Pr/AORP/rVP/Zq/3aP7NX+7QBB/wlUn/Pr/AORP/rUf8JVJ/wA+v/kT/wCtU/8AZq/3aP7NX+7QBB/wlUn/AD6/+RP/AK1H/CVSf8+v/kT/AOtU/wDZq/3aP7NX+7QBB/wlUn/Pr/5E/wDrUf8ACVSf8+v/AJE/+tU/9mr/AHaP7NX+7QBB/wAJVJ/z6/8AkT/61H/CVSf8+v8A5E/+tU/9mr/do/s1f7tAEH/CVSf8+v8A5E/+tR/wlUn/AD6/+RP/AK1T/wBmr/do/s1f7tAEH/CVSf8APr/5E/8ArUf8JVJ/z6/+RP8A61T/ANmr/do/s1f7tAEH/CVSf8+v/kT/AOtR/wAJVJ/z6/8AkT/61T/2av8Ado/s1f7tAEH/AAlUn/Pr/wCRP/rUf8JVJ/z6/wDkT/61T/2av92j+zV/u0AQf8JVJ/z6/wDkT/61H/CVSf8APr/5E/8ArVP/AGav92j+zV/u0AQf8JVJ/wA+v/kT/wCtR/wlUn/Pr/5E/wDrVP8A2av92j+zV/u0AQf8JVJ/z6/+RP8A61H/AAlUn/Pr/wCRP/rVP/Zq/wB2j+zV/u0AQf8ACVSf8+v/AJE/+tR/wlUn/Pr/AORP/rVP/Zq/3aP7NX+7QBB/wlUn/Pr/AORP/rUf8JVJ/wA+v/kT/wCtU/8AZq/3aP7NX+7QBB/wlUn/AD6/+RP/AK1H/CVSf8+v/kT/AOtU/wDZq/3aP7NX+7QBB/wlUn/Pr/5E/wDrUf8ACVSf8+v/AJE/+tU/9mr/AHaP7NX+7QBB/wAJVJ/z6/8AkT/61H/CVSf8+v8A5E/+tU/9mr/do/s1f7tAEH/CVSf8+v8A5E/+tR/wlUn/AD6/+RP/AK1T/wBmr/do/s1f7tAEH/CVSf8APr/5E/8ArUf8JVJ/z6/+RP8A61T/ANmr/do/s1f7tAEH/CVSf8+v/kT/AOtR/wAJVJ/z6/8AkT/61T/2av8Ado/s1f7tAEH/AAlUn/Pr/wCRP/rUf8JVJ/z6/wDkT/61T/2av92j+zV/u0AQf8JVJ/z6/wDkT/61H/CVSf8APr/5E/8ArVP/AGav92j+zV/u0AQf8JVJ/wA+v/kT/wCtR/wlUn/Pr/5E/wDrVP8A2av92j+zV/u0AQf8JVJ/z6/+RP8A61H/AAlUn/Pr/wCRP/rVP/Zq/wB2j+zV/u0AQf8ACVSf8+v/AJE/+tR/wlUn/Pr/AORP/rVP/Zq/3aP7NX+7QBB/wlUn/Pr/AORP/rUf8JVJ/wA+v/kT/wCtU/8AZq/3aP7NX+7QBB/wlUn/AD6/+RP/AK1H/CVSf8+v/kT/AOtU/wDZq/3aP7NX+7QBB/wlUn/Pr/5E/wDrUf8ACVSf8+v/AJE/+tU/9mr/AHaP7NX+7QBB/wAJVJ/z6/8AkT/61H/CVSf8+v8A5E/+tU/9mr/do/s1f7tAEH/CVSf8+v8A5E/+tR/wlUn/AD6/+RP/AK1T/wBmr/do/s1f7tAEH/CVSf8APr/5E/8ArUf8JVJ/z6/+RP8A61T/ANmr/do/s1f7tAEH/CVSf8+v/kT/AOtR/wAJVJ/z6/8AkT/61T/2av8Ado/s1f7tAEH/AAlUn/Pr/wCRP/rUf8JVJ/z6/wDkT/61T/2av92j+zV/u0AQf8JVJ/z6/wDkT/61H/CVSf8APr/5E/8ArVP/AGav92j+zV/u0AQf8JVJ/wA+v/kT/wCtR/wlUn/Pr/5E/wDrVP8A2av92j+zV/u0AQf8JVJ/z6/+RP8A61H/AAlUn/Pr/wCRP/rVP/Zq/wB2gaYp7CgBkfiRpD/x7Y/7af8A1quW9+0//LPb/wACqBNOVatQwbKAJutJsFLRQAmwUbBS0UAJsFGwUtFACbBRsFLRQAmwUbBS0UAJsFGwUtFACbBRsFLRQAmwUbBS0UAJsFGwUtFACbBRsFLRQAmwUbBS0UAJsFGwUtFACbBRsFLRQAmwUbBS0UAJsFGwUtFACbBRsFLRQAmwUbBS0UAJsFGwUtFACbBRsFLRQAmwUbBS0UAJsFGwUtFACbBRsFLRQAmwUbBS0UAJsFGwUtFACbBRsFLRQAmwUbBS0UAJsFGwUtFACbBRsFLRQAmwUbBS0UAJsFGwUtFACbBRsFLRQAmwUbBS0UAJsFGwUtFACbBRsFLRQAmwUbBS0UAJsFGwUtFACbBRsFLRQAmwUbBS0UAJsFGwUtFACbBRsFLRQAmwUbBS0UAJsFGwUtFACbBRsFLRQAmwUbBS0UAJsFGwUtFACbBRsFLRQAmwUbBS0UAJsFGwUtFACbBRsFLRQAmwUbBS0UAJsFGwUtFACbBRsFLRQAmwUbBS0UAJsFGwUtFACbBRsFLRQAmwUbBS0UAJsFGwUtFACbBRsFLRQAmwUbBS0UAJsFGwUtFACbBRsFLRQAmwUbBS0UAJsFGwUtFACbBRsFLRQAmwUbBS0UAJsFGwUtFACbBRsFLRQAmwUbBS0UAJsFGwUtFACbBRsFLRQAmwUbBS0UAJsFGwUtFACbBRsFLRQAmwUbBS0UAJsFGwUtFACbBRsFLRQAmwUbBS0UAJsFGwUtFACbBRsFLRQAmwUbBS0UAJsFGwUtFACbBRsFLRQAmwUbBS0UAJsFGwUtFACbBRsFLRQAmwUbBS0UAJsFGwUtFACbBRsFLRQAmwUbBS0UAJsFGwUtFACbBRsFLRQAmwUbBS0UAJsFGwUtFACbBRsFLRQAmwUbBS0UAJsFGwUtFACbBRsFLRQAmwUbBS0UAJsFGwUtFACbBRsFLRQAmwUbBS0UAJsFGwUtFACbBRsFLRQAmwUbBS0UAJsFGwUtFACbBRsFLRQAmwUbBS0UAJsFGwUtFACbBRsFLRQAmwUbBS0UAJsFGwUtFACbBRsFLRQAmwUbBS0UAJsFGwUtFACbBRsFLRQAmwUbBS0UAJsFGwUtFACbBRsFLRQAmwUbBS0UAJsFL0oooAKKKKACiiigAooooAKKKKACiiigAooooAKKKKACiiigAooooAKKKKACiiigAooooAKKKKACiiigAooooAKKKKACiiigAooooAKKKKACiiigAooooAKKKKACiiigAooooAKKKKACiiigAooooAKKKKACiiigAooooAKKKKACiiigAooooAKKKKACiiigAooooAKKKKACiiigAooooAKKKKACiiigAooooAKKKKACiiigAooooAKKKKACiiigAooooAKKKKACiiigAooooAKKKKACiiigAooooAKKKKACiiigAooooAKKKKACiiigAooooAKKKKACiiigAooooAKKKKACiiigAooooAKKKKACiiigAooooAKKKKACiiigAooooAKKKKACiiigAooooAKKKKACiiigAooooAKKKKACiiigAooooAKKKKACiiigAooooAKKKKACiiigAooooAKKKKACiiigAooooAKKKKACiiigAooooAKKKKACiiigAooooAKKKKACiiigAooooAKKKKACiiigAooooAKKKKACiiigAooooAKKKKACiiigAooooAKKKKACiiigAooooAKKKKACiiigAooooAKKKKACiiigAooooAKKKKACiiigAooooAKKKKACiiigAooooAKKKKACiiigAooooAKKKKACiiigAooooAKKKKACiiigAooooAKKKKACiiigAooooAKKKKACiiigAooooAKKKKACiiigAooooAKKKKACiiigAooooAKKKKACiiigAooooAKKKKACiiigAooooAKKKKACiiigAooooAKKKKACiiigAooooAKKKKACiiigAooooAKKKKACiiigAooooAKKKKACiiigAooooAKKKKACiiigCn4g1608LaDfapqEy21jptvJdXMzAkRRopZ2IGTwoJ454ri/2af2o/An7YPwvi8Z/DnXh4i8NTXEtol4LO4tMyxkB12TojjGRyVwe2a+YP+C1sPxY+Hn7NnjP4heEfjl/wgPhHRfDz2l94XHhCx1I67PM5iAF5M3mQeYJVT5FO3G4c14t/wR3/AGFv2gPCv7G/wz1rw7+0YPBPgzXmXxDL4QHw90+/LwzTb3Q3ssnnZmjA+YAFN4wOBQB+nejeJdO8Rm6/s/ULK/8AsNw9pc/Z51l+zzL96N9pO11yMqcEZqHxj410f4d+GbzWvEGraZoWjaenm3V/qF0lra2yZA3PI5CqMkDJI61+Nnw58M+JtO+Mnjr45/sMWnjZ7PQfFbaJ46+HPiNojb6zOz5kmtcTyb4iWJy7LJHksp25QfW//BfDx7rGnf8ABH7xRdX2n/2Lq+utpNrfWKzi4Fm8lzC0sXmLgOF2su4cHGcYNAH2/wCFPF2k+O/D1rq+h6pp+s6TfJ5lte2Nylxb3C5IykiEqwyCMgnpWhX5Tf8ABL39gDVf2/8A9lHwl4q+O+ueJJvhvBpseleEPh5pOpz6VpCWMA8oXdyIHWSaWVlZgSwOCTkhgq6vwkt5P+CWP/BZXwv8E/B99rSfBf4v6IbnT/D95fTXsGh3yib5oGmZmUFoMH5iSJfmztU0Afp9qOoQ6Tp9xdXDeXb2sbSytgnaqjJOBz0HavN/2V/2x/hv+2v4EvPE3wx8R/8ACTaHY3jafPc/2fdWeydVVymy4jjc/K6nIBHPXrXj/wDwVS/Zzg8dfBPxN8RLn4ufGn4dw+A/DF/cmw8HeKf7J0/USkbyKbmPy28wkgJnI+U496/NH/gnp8CPBPwh/wCCe/hHx944+OH7UXw5ufiJrOoJpegfDXV7mO31IwN5e8W8FrL+8Kpy7sAQFx0oA/dyivz9/ZO/b3sfgJ4WtPBum/C39vX4oW99qJkTxL4x8JvqUyeayqA1zI8RWBcbhlPlBJ9qwf8AguF8cvG/hP8Aad/Zb8D+C/GHivwm/jLxOV1JdF1S4sTe2/2izjKS+UyiRQJH+Vsjk+9AH6QUUV+bvib9sr4nfsM/8FlbfwN8TvFl54m+EfxqjjTwvNdRQwx6DMXKRxKI1UfLKwic4yyyxMxJBoA/Q3xz430n4aeDNV8Ra9fQaXouiWsl9fXcxxHbQxqWdzjngAnAyTWJ8Cfj/wCD/wBpr4b2fi7wJrlr4j8N37OkF9bo6xyMh2sMOqtkHIII4II7V8H/APBbrX/Fnxp+IPhP4F3XjHwH8Ifhf4n0+bW9Z8VeJfEttpy6y1uwC6ekbyLJtEjQlsA7gwPRCG+H4f2DPBMUKq2v/wDBM+RlABdvi94r3N7nGogc+wAoA/oAor8dv+CeX/BLj4cfE/8AaHs5Na0/9jbxZo+gxHUZY/hh8RvE+qa1aToymCUxzX7xCISAbi454FfRX/Ba/wD4LC6X+wz4AvvAfgy6W++LuvWf7pY13R+HreQEfapT08zGTGnPPzNhQAwB9X+Df21PhT8QNc8babpHjrQLu++G5lHiaLzjGdGERYSPKWAGxSrAuMrlTzxXQ/A74+eDv2lfh7b+K/AniCw8TeHbqaW3ivrQkxtJE5R1+YA8MD1HIwRkEGvys/4JQftx/scfsMfstXmieKPi5b63448eFr7xjdP4Z1qdbiSRSPswc2nzoiswJ/iZnb+KvDf2HP8AgqZ8P/8Agl7+2Z4s8K+EfFVx8QP2a/GV+L63nhsLq3uvDsj8BxFcRRuxjGEkCgh0VGUlgVIB++leYy/tk/DWH9pxfg2fE0bfEp7IagNFWyuWYQFGfeZRH5I+VScF8jI4+YZ8I/4KSv8AD3x1+zXpvxo1X48fGL4deDdD0x7qxk+Hfiv+x08SfaAjQoyGJzNKxUKg4273zxkj8fP2NfEmg6reeJvjZ8YPFf7Z2lyXN8umWvjvwVcPKthZnCbdQ1aZSzkny0CRj+D7vKqAD+kiqGoeKtL0nWbHTbrUrC11DVC4srWW4RJrsou5/LQnc+1QSdoOAM1+XP7O37ZXw2+B/wAcRb/BX4iftdftfeJdQtFtJtH1DW5NT0PSkkdGNxLJPBEsUigEBxuUZZWK5JHr3/BVv4HfDr4zfGD4W+JIfjf8Ovgb8bPAt9b39nda7rNrBfPYSMSY2t2mRpf3gIUZ2NmVd2GNAH1Lq/7cXwV0DxjN4dv/AIwfC2x8QW919hl0y48V2Ed5FcbtvktC0ocSbuNpGc8YzSa3+3N8E/DXi248P6l8YvhZp+vWlybOfTbnxXYRXcM4baYmiaUOr7uNpGc8Yr8vv24/2l/G03xp8S/DX44aX8fvFK3Xjm0ufhdo3hnRdF0fw74k8honhBv5rSW5Y+Y+SI3lwrKGOeQ39pH9pzx58cvjZ8Vvgv8AFHw/+0d461zQ/E8Wu+FvBngbR9Cj0tdOjkils2vL37FLdxoJCAZhuUqVB5zQB+ywbcMjkHoa87vv2tPhxpv7Q8PwnuPFulw/ES6s1v4dDfeLiWFg5DKduwnajNtDbgBkgAgnb8YfFCx+FfwZ1Dxh4mX+x9P0HSH1TUkeQP8AZFji8yRN3AYrgjI6mvy+/wCCEPinw/8AtUftg/Fn9oLxp4n8L/8ACxvGl7LYeG/DsuqW51SzsF2l5Ett5lCBFiiDbcYjkOcGgD9aqKK+dv2m/wDgk/8AAH9sf4mnxl8SPAP/AAkfiRrWOyN5/beo2f7mPdsXZb3Eacbjztyc8k0AfRNFfgv8ev8Agm/8KP2s/wDgpYv7Pv7PPgW38E6J4E/f+OPFrarqGoyJjAkijS4uJIxtLKi4AZpC2SFQ5+jrv/gmt8C/gV8UtQ0Xwd+zvrfibxn8JNX8PalJe3XiLVri68RaXcSqJNQtkgnjgFxDKjloimzERJXBAoA/Vqq+r6va6BpVxfX11b2VlZxNNPcTyCOKCNRlnZjgKoAJJPAFeaftiftg+Dv2HfgJqfxD8bzXkej6eyQxwWsPmXV7PJxHDGpIG5jnliAACSQBX54H4Z/tLf8ABdy8t7vxl9u+Af7N8somg0eLd/a/iSEEMrsGAMgYch3CwjKsscpG6gD9Mvgj8f8AwV+0l4JXxJ4D8TaP4r0Npnt/tmnTiWNZEOGRu6kdcEDIIIyCCeq1HUIdJ0+4urhvLt7WNpZWwTtVRknA56DtXnv7LP7JHw//AGMfhbbeD/h34ftdC0mHDzMvz3N/LjBmnlPzSSH1J4HAAAAHjP8AwVS/Zzg8dfBPxN8RLn4ufGn4dw+A/DF/cmw8HeKf7J0/USkbyKbmPy28wkgJnI+U496APYP2V/2x/hv+2v4EvPE3wx8R/wDCTaHY3jafPc/2fdWeydVVymy4jjc/K6nIBHPXrVP43fts/D/4BReKF1rU7ia88FW1jqGuWdnbmS402yu5jDHduG2gwhgxdlJ2hSSOgP4+/wDBPT4EeCfhD/wT38I+PvHHxw/ai+HNz8RNZ1BNL0D4a6vcx2+pGBvL3i3gtZf3hVOXdgCAuOlfVf7N/wAe/h/8MdYht2+Bf7cnxh1TVYJNDfxb458IPq8kmn3Eqs1tNLLJGhtQw34eI7Qzc8kUAfpbZ3kWoWkVxBIk0M6CSORDuV1IyCD3BFeb/tEfti/Db9k+58OQ/ELxND4bbxbef2fpPm2lxMt3PlBszFGwXl15cgYJOcAkcv8AtUfs/wDxi+KV9oP/AAqX46J8F9N0y2eC8sU8D2GvLfNlfLYNcOvlBFBXanBz7V8Z/wDBQv8A4JF/tEftJ/s86kfF/wC05H8S5vB8c2vaPop+G2n6O9zdxRPtRbm3m8xCykqOGGSODxgA/UAHIor8lf8Agll8S/2lf+CjfwOuNW0n9shvCuveG7j+z9U8PTfC3Rr6ewUf6mTzWaNpEdR94qPmVwckZPon/BbL41ePPBH7R37KngLwn438VeHbrxb4kEerS6LqM+nf2nEJ7OJhKsLKrL+8c7GyPmNAH6TUUV+bvib9sr4nfsM/8FlbfwN8TvFl54m+EfxqjjTwvNdRQwx6DMXKRxKI1UfLKwic4yyyxMxJBoA/SKivnP8A4KUftt6j+xp8JtFXwno9n4l+Jnj7WIfD3hHR7reYLq7kIzJKEKt5Ua8thlySo3DOR6VqHjXxr8MP2eI9c1/Q7fxp400yxjuNU03wtCbaO7kyDMLSO4ldjtUsVVpCzlQBgsAAD0KivCbb9vHRfEfxA+HNj4b8NeKPE3hL4gWF5fyeL7K1xpHh4W6ktHfO2DBJlSpR9rKwwRnIHX/s6/tF2/7S2naxrWiaPqFv4Pt7v7Nomt3JCR+JUUfvLm3j+/8AZw+VSRsCUAso27WIB6PRXgn7ev8AwUc+G/8AwTu8Awat47vrtdR1eG4OiaXbWk0smrzQqpMQkVGji5dBukKgbsjOMVufsG/tWf8ADbf7KfhP4nf2D/wjP/CURTSf2b9t+2/ZvLmkix5vlx7s7M/cGM496APX6K+ePjv+3D4q+F3xTv8Awj4Z/Z9+MXj+6sY43XVrC1tLXRbnegbEd1NOASudrAqMMCPevONf/wCCgP7THhG0uNW1T9i3xEnhvT4zPd3Fn8RdJvdQSJRljHZxqXlYDoqtk0AfZ1FeK/Aj9rfT/wBuP9lSbx38GdS0+PUr2GaGzj8QWTyLpt/H1t7yCKVGBBwDsk6MGBYYzzf/AATV/bb1P9sn4Ua5H4u0ey8N/EzwBrE/h7xbpFpvFvb3cZOJIQ7M3lSLyuWbkMNxxkgH0dRRRQAUUUUAFFFFABRRRQAUUUUAFFFFABRRRQAUUUUAFFFFABRRRQAUUUUAFFFFABRRRQAUUUUAFFFFABRRRQAVV1WVool2sVyexq1VPWB+6T60AU/tUn/PST/vo0fapP8AnpJ/30ajooAk+1Sf89JP++jR9qk/56Sf99Go6KAJPtUn/PST/vo0fapP+ekn/fRqOigCT7VJ/wA9JP8Avo0fapP+ekn/AH0ajooAk+1Sf89JP++jR9qk/wCekn/fRqOigCT7VJ/z0k/76NH2qT/npJ/30ajooAk+1Sf89JP++jQLmUn/AFkn/fRqOptPh866X0Xk0AakYKxrnrinUUUAFFFFABRRRQAUUUUAFFFFABRRRQAUUUUAFFFFABRRRQAUUUUAFFFFABRRRQAUUUUAFFFFABRRRQAUUUUAFFFFABRRRQAUUUUAFFFFABRRRQAUUUUAFFFFABRRRQAUUUUAFFFFABRRRQAUUUUAFFFFABRRRQAUUUUAFFFFABRRRQAUUUUAFFFFABRRRQAUUUUAFFFFABRRRQAUUUUAFFFFABRRRQAUUUUAFFFFABRRRQAUUUUAFFFFABRRRQAUUUUAFFFFABRRRQAUUUUAFFFFABRRRQAUUUUAFFFFABRRRQAUUUUAFFFFABRRRQAUUUUAFFFFABRRRQAUUUUAFFFFABRRRQAUUUUAFFFFABRRRQAUUUUAfmT/AMFw/FmsfthfH74VfsjeDluvtniu/h8QeKLpYmEdlYRltpLY2kKBLIf9pIh1aux+Gf7anxu/aH+IHjD4efsu+D/hLpXgv4I3UfhW61f4gXd9i/mgUxbIILMBowvlMMvkEAHIJ2j77l0KxuNZh1KSztX1C2ieCG6aJTNFG5UuivjcFYopIBwSoz0FfK3xd/4I5/Dn4ifFvXvG3hvxh8XPhHr3ix/N19vAPil9Ih1t+ctPGUdTnJJ27QSSepJIB+dn/BGH/gpt4c/Ya1/4naD8WdH1fStH8YeOJ2l8X6fayXGh2GoAbXtpDt3qpxuUjc20gsoALV+mP/BSz9ly4/4KQ/sGax4M8Fa54fE/iY2GpaTqlzOzWEiRzxzBxJEkhKtGDgqpzkcgHNb/AMGf+CbPwb+CP7NV98JtP8H2eqeDdXma61SDVyb2bVbhtuZ5pG5Mnyrgrt27RtC4r3GxsYdLsYbW2hjt7e3RYooo1CpGijAUAcAAAACgDgf2afhov7Nn7L3gnwnqlxptv/whfh+0067uIZStopghVXdWcKQmVJywHHXFfnda+MrX/gpL/wAF8/CHib4ezrrfw9+AukMmo+ILT95ZXF0yz4jjk+6+6SVVBUkMInYcDNfVXxv/AOCPvwt/aZ+LWq+KPiJrnxQ8Z2ep3Iuk8N6h4tuhoensFA228EZRo0yN23eQCxxgYA9++C/wK8G/s6+Bbbwz4F8NaP4V0G15Sz062WGMsertjl3Pd2JY9yaAPiX/AIOJ/wBoO48J/slaT8JfDzNceNPjRq9votnZxH95JbLKjSnHozmKP/tofQ1Y8MftZXX/AAT8/aL/AGcf2RdA8OaPd2l14ah/tnWdUv2sUjIWTLW7bSskheKZiuCWLoo25LV9PfEr9hb4cfFv9p/wd8YNc0m6vPG3gaF4NLma8kNsqkNtLQEmPcjOzKyhTuIJJwMaX7SX7Gfwt/a/0e1sfiV4H0LxbHY7vsst3EVubUNgsI5kKyxg4GQrAHAznFAHpytuXI5B5BHevzA/4OFLK9+D/wAY/wBmf44+TNPoPw78VeRqhRNwgWSW3nBPB6rbyAe+B1Ir3M/8G+v7IZP/ACSP/wAujWv/AJLr6Y+L/wCz14P+PPwX1D4e+LNGh1jwnqVotlNZTO33ExsKvnerqVUhwdwIBzmgD5P+Iv8AwUu174j/APBS/wCEnwg+C194a8SeHdT0l9e8ZXzR/bIYLGRVkiMckbgpIIwMckZuIwymvNf+Dnf4Zyan+yX4F8cabHINf8FeLYPsksUZaQLOj/KMc/6yOI/Va+nP2Bv+CVPwo/4Jxz+ILrwDb61d6p4kYLc6hrN0lzdRQKdy28ZSNAsQJz0LMQNzNgY+kqAPkX9ur9nzwP8AtnfsKaR4i8Za14L8D6nBo1pqtn4t1/RdO1CPSGkSKZoma8RgsUjhA6xsrNgDJGVP49+Kf2t7f4l/CLRfBU3wc/Z98H2c3iePRL3432Hw3hXS7mKNwdyRGxCrIwXe+ANyHHlRglh+3n7Sv/BMn4UftgfGbSPGXxI0/XPFLaHarb2miXOsXC6KjKzN5xtUYKZDu2tk7WVQGU4r1LxD+z54G8VfB+X4fX/hHw9P4HmtfsR0P7DGlisI6KsSgKmOoKgFSARgjNAH5G/AP4leG/8Agmb/AMFNv2gNasbfQ9c8Px/Cy38T6NHottbaXY67HFDZuWt1t08iJZXErfu0K5JPYmv1Ds/2hvAVl+zro/x68WW+j+E7G48NQ6lLqF8I2ubG1nRZhbCbAZssQAi/efGASRXlf7W//BFT4D/th6d4PttY0G/8ML4HtU0/Tj4anjsc2StuFq6tG6tHkk5ADgs2GGTXW/HP/gl58Iv2kfEfgm68ZaXrWsaP4BskstL8OSaxcLohEYAjkktQ215FUbc8b1OHDgAAA+Vf+CI3gTXf2i/2pfjj+1ZrWl3Wk6P8Sr1tN8LRXK7ZJ7NJBmX/AHQsUCZ6FlfGcZrJ8deF9N+KP/BzZZ6feWNjrFhpvw+Iv7a6hWeHBt5OGVgQf9cgwR/FX3h+0V+yZYfH34UaX4Q07xl8QvhXY6PPHJa3Pw/1n+wrqOONGRbfcqMvk4I+TbjKrjGK4r9jf/gmN8P/ANi/4geIvGWl6t448beOvFUYg1HxN4w1f+1NUmhBB8vzAiDGVXJ27jtUEkACgDm/2/P+CeHw9/aP8d6J8UPiVqHibWPCnwt0m7v5PBsdyf7J1J4lMqyNF2YKrKwXHmDYCdoIb84PHfw18af8FO/+CfvxQ/aI8eeJbjw38OfBen3qfDz4d+HnW20vT/svyLJOijaxXlRwGJBIKJtSv3KvLOHUbOW3uIo57edDHJHIoZJFIwVIPBBHGDXyHff8EVPhloF7qEnw58afGr4K2+rTm5urLwF42udLs5ZSeW8lxIi+gAAAHAAAGAC1/wAEMtFs9I/4Ja/Cd7W0tbVrzT5Z7hoolQzyG4lBd8D5mIAGTzwK8A/4OWvAngzTv2e/BPiqbRfDFv40uPGGnWKaw9pAuqS2aLO7QicjzTCpO4ru2gnOK938M/8ABIpfDfiCz1Bv2nP2vtS+xzLN9mvfiQZLeYqchZFFuNynHK5wRweK9i8UfsN/DXx5+0ivxW8Q6CPEXiyDSho9odUma6s9Ph+cO0Nu+Y45JFcqzAZIHGMtuAPxH/be/ZB8aftGf8FGtQ0nwd8L/AvizVW8SGfWZtEtPFRtJYptjxHV7iZ1giQxFWZ7BkB3nax+XHO/GH/gnR4+/ZD/AGsVTxf8HfhTb+H76K2i069hj8Z6j4PhumZNnlT2sr332gt8pSZmQljhMYNfsJ4p/wCCQ3hO6Pk+Efix+0V8L9LX/U6V4R+Id3a6fajOdsUMwlWNPRVwoHAAGKxf+HN//V1X7Zn/AIcz/wC5qAPJf+C8vxu1/wAR/CD4X/s4+G2jPjz43ahaWt+lmsmy3tEeMOQrfOI2mI4bB2RPnoa8k/4Kb/sX+AP+CbcX7I+sfD7QLDQbzw545tLDVtfghWO91QExO73MwG+QtslIDEhQWCgDivv3wv8A8E0Ph74f/aR8H/Fm8vvGXiTxx4J0JNBsr/XdYa/aeNYjEJ5d65M5DSEupUFpHJBJGO3/AGtf2Q/Av7bfweuvA/xA0uTUdGnlS5ieCZoLmynTOyaKReVdcnrkEEgggkUAfM3/AAXh/an8VfAf9nDwh4d+G+vahovxK+IXimy07RH02bZdMquGfAHVCxiQgggiTBBBr7S8D6fqGk+C9ItdVvH1DVLayhivLp1CtczKgDuQoAG5gTgADmvm39nr/gkV8NfgT8XNM8ean4g+JPxS8XeH4fs+ial488QtrEmhx9AtsuxETGTglSV7EV9TUAflF+wn4h0f/gm5/wAFdPj94T+K17D4Yi+L14NZ8J6/qr+RZ6pGbmabyRO5CBv9I24JHzxFepUH9WbS8h1C2Sa3ljmhkG5JI2DK49QRwa5P40/s/eB/2jvCf9h+PPCfh/xdpIbeltqtlHcrC+Mb0LAlHx/EpBHrXkv7Pn/BJ39n39lb4vRePPAPw7t/DviqCKWCK8j1a/nSNJF2uFhlnaIZHGQmR2xQB6B+1r+yb4M/bX+CGqeAPHdjNeaHqRWUPbymG4s5kOY5on52up6ZBBBIIIJB/Na/vP2nv+CCNyskk118ev2a7eQLulLDUPDcOcAZ+ZrcDgfxwHH/ACyZuP1zqG/sINVsZrW6hiuLa4RopYpUDpKjDBVgeCCDgg9aAPJv2M/25/hv+3l8Lo/FPw91yO/ijCrf6fPiLUNJlI/1c8WSVPBwwyjYJVmHNfLH/BxP+0HceE/2StJ+Evh5muPGnxo1e30Wzs4j+8ktllRpTj0ZzFH/ANtD6GvpT9ln/gnD8H/2MvH/AIs8TfDzwnb6Hq3jCXfdOJGkW1j4Jt7cN/qYS4L7F4ycfdVFXS+JX7C3w4+Lf7T/AIO+MGuaTdXnjbwNC8GlzNeSG2VSG2loCTHuRnZlZQp3EEk4GAD5h8MftZXX/BPz9ov9nH9kXQPDmj3dpdeGof7Z1nVL9rFIyFky1u20rJIXimYrgli6KNuS1ffytuXI5B5BHevMf2kv2M/hb+1/o9rY/ErwPoXi2Ox3fZZbuIrc2obBYRzIVljBwMhWAOBnOK8BP/Bvr+yGT/ySP/y6Na/+S6AM3/gvn+1546/ZB/Yng1DwBdzaNrHijW4dDl1qJRv0iF45HaRWP3HbywgfGV3EjBwRn/Bn/ghT+z34w+G+g6942h8S/FjxZqdlFe3PizUvF2pG4vpJEDGSMwXCJsJOV+8cYyzHmvr74o/APwb8bPhNc+BfFnh+w8QeE7u3S2l0+9BlQomNhDE7g64BDghgRkHPNfLtj/wQ+8C+CLb7H4B+Ln7SHwt0VXLx6R4U8fzWtlFnk7UkjkP5sT70AXP2Qv8Agih8M/2Hv2qbr4meAde8aWVvdadLZHw/caiZbINIyncz4EkigA4SUvhjuzkADwb/AIOFLK9+D/xj/Zn+OPkzT6D8O/FXkaoUTcIFklt5wTweq28gHvgdSK+rPgD/AMEwPCPwL+Jul+Mrzx58ZviJ4m0XebG98ZeNLnUvsxeNo3IiXZE2VZh8yEc/SvZvjp8DPCv7Sfwq1jwT400mDXPDevQ+Rd2kpK7hkFWVlIZXVgGVlIIIBFAHyR8Rf+Cl2vfEf/gpf8JPhB8Fr7w14k8O6npL694yvmj+2QwWMirJEY5I3BSQRgY5IzcRhlNea/8ABzv8M5NT/ZL8C+ONNjkGv+CvFsH2SWKMtIFnR/lGOf8AWRxH6rX05+wN/wAEqfhR/wAE45/EF14Bt9au9U8SMFudQ1m6S5uooFO5beMpGgWIE56FmIG5mwMfSVAH5y/HnxV/wtD/AIKvfsT3utbTp9/4T1LWrNJG+Rr97MOSBnBZRsI9K+2P2qPCHjTx18B9f034e+NLX4e+LJolaz1+4so7yKwCurOWjkBXBQMuSDtzntXin/BVD9kPxd8fvCHgnx18LY7WT4tfCDXI9e8PQTzJBHqiZAnsmkchVEigYLEDK4JAJI9vk8Ip+0r8ArfS/iF4VvtB/wCEhs4jrXh+XUlZ4HBDPbvNaylJIyVwQrlXQkMMErQB8B/EGym+LfxCOs+F7231X4X640Vx4l8HwalDpt38cZrQYvtT02yI3eQmAXWNlW+CbT8m1pPsX9hefX/EvhjxL4oufiVpXxB8F+KNUa78H29jpMenr4b09RsFi4UA742GxlcbkZCDgkgdvrv7Lnw98SfFLwh41vPCekyeJ/ANtLZeH75UMbaVDImxo40UhNu3IAKnbk7cZNangH4J+Gfhd4o8Tax4f0xdLvPGF2t/qywzSCC5uQmwzCHd5aSMAN7IoLkAsSQDQByP7eP/ACZL8XP+xP1X/wBJJa8Z/wCCDf8Ayin+FH/Xtd/+ls9eufta/sB/CT9ui20WH4qeE/8AhKI/DrSvp4/tS8sfs5lCh/8Aj2mj3Z2L97OMcY5rJ/ZR/wCCZvwR/Yg8Walrnwv8E/8ACMapq9qLK7n/ALYv73zYQwcLtuJ5FHzAHIAPvQB7wTgV5N+0x+3H8Kv2RvBV9rXjrxt4f0hbOFpY7A3kb396QMiOG3B8yRj0AAxzkkDJrq/jr8CfCf7S/wAKtW8E+ONIj13wvrkax3tk08sHnBXV1w8TK6kMoOVYHivKPg1/wSg/Zx+AWq29/wCGPhB4Pt9QtHWS3ur23bUri3dejJJdNIyMMdVINAHh3/Bv38IvEXg39nDx54013R77w7a/FbxleeJtH0y7jMUtvZSBRG5TsHwceqhSOCDSfsW+XpX/AAXB/asstM2rpt1o2h3l6kZygvDEnJ7BiGcn1r7c+I/iDVPCXgLVdQ0PQLvxRq9nbPJZaTazwW8l/KB8sYkndIkycZLMABnqcA/NX/BK79kLxh8BfDHjjx98U47eL4tfGDW313X7aGdLiPSowWFvZLIhZWEak8qxHzYBIXJAPrCiiigAooooAKKKKACiiigAooooAKKKKACiiigAooooAKKKKACiiigAooooAKKKKACiiigAooooAKKKKACiiigAqvqUfmWjf7PNWKGG4YoAw6KkuYDbzMv5fSo6ACiiigAooooAKKKKACiiigAooooAK0tJh2Qlu7H9Kz0QyOqjqxxWxGnloqjooxQA6iiigAooooAKKKKACiiigAooooAKKKKACiiigAooooAKKKKACiiigAooooAKKKKACiiigAooooAKKKKACiiigAooooAKKKKACiiigAooooAKKKKACiiigAooooAKKKKACiiigAooooAKKKKACiiigAooooAKKKKACiiigAooooAKKKKACiiigAooooAKKKKACiiigAooooAKKKKACiiigAooooAKKKKACiiigAooooAKKKKACiiigAooooAKKKKACiiigAooooAKKKKACiiigAooooAKKKKACiiigAooooAKKKKACiiigAooooAKKKKACiiigAooooAKKKKACiiigAooooAKKKKACiiigAooooAKKKKACiiigAooooAKKKKACiiigAooooAKKKKACiiigAooooAKKKKACiiigAooooAKKKKACiiigAooooAKKKKACiiigAooooAKKKKACiiigAooooAKKKKACiiigAooooAKKKKACiiigAooooAKKKKACiiigAooooAKKKKACiiigAooooAKKKKACiiigAooooAKKKKACiiigAooooAKKKKACiiigAooooAKKKKACiiigAooooAr39p9pj4+8vT3rLYFTg8Gtyq95YLc8j5W9fWgDLop80DQNhlx/WmUAFFFFABRRRQAUUUUAFFFPgga4k2r/wDqoAsaVBvl8w9F6fWtGmwwiCMKvanUAFFFFABRRRQAUUUUAFFFFABRRRQAUUUUAFFFFABRRRQAUUUUAFFFFABRRRQAUUUUAFFFFABRRRQAUUUUAFFFFABRRRQAUUUUAFFFFABRRRQAUUUUAFFFFABRRRQAUUUUAFFFFABRRRQAUUUUAFFFFABRRRQAUUUUAFFFFABRRRQAUUUUAFFFFABRRRQAUUUUAFFFFABRRRQAUUUUAFFFFABRRRQAUUUUAFFFFABRRRQAUUUUAFFFFABRRRQAUUUUAFFFFABRRRQAUUUUAFFFFABRRRQAUUUUAFFFFABRRRQAUUUE4FABRVdtTgU/6z8gaP7Ut/8Anp/46a5fr2GW9SP3r/Mv2c+zLFFV/wC1Lf8A56f+Omj+1Lf/AJ6f+Omj69hv+fkfvX+Yezn2ZYoqv/alv/z0/wDHTR/alv8A89P/AB00fXsN/wA/I/ev8w9nPsyxRVf+1Lf/AJ6f+Omj+1Lf/np/46aPr2G/5+R+9f5h7OfZliiq/wDalv8A89P/AB00f2pb/wDPT/x00fXsN/z8j96/zD2c+zLFFV/7Ut/+en/jpo/tS3/56f8Ajpo+vYb/AJ+R+9f5h7OfZliiq/8Aalv/AM9P/HTR/alv/wA9P/HTR9ew3/PyP3r/ADD2c+zLFFV/7Ut/+en/AI6aP7Ut/wDnp/46aPr2G/5+R+9f5h7OfZliiq/9qW//AD0/8dNH9qW//PT/AMdNH17Df8/I/ev8w9nPsyxRVf8AtS3/AOen/jpo/tS3/wCen/jpo+vYb/n5H71/mHs59mWKKr/2pb/89P8Ax00f2pb/APPT/wAdNH17Df8APyP3r/MPZz7MsUVX/tS3/wCen/jpo/tS3/56f+Omj69hv+fkfvX+Yezn2ZYopscqzLuVgy+op1dMZJq6ICiqereIbLQgv2q4jh3cgHJY/gOaz/8AhZGi/wDP5/5Bf/4mt44erJXjFtejIlUgnZtG5RWH/wALI0X/AJ/P/IL/APxNH/CyNF/5/P8AyC//AMTVfVK/8j+5i9tT/mX3m5RWH/wsjRf+fz/yC/8A8TR/wsjRf+fz/wAgv/8AE0fVK/8AI/uYe2p/zL7zcorD/wCFkaL/AM/n/kF//iaP+FkaL/z+f+QX/wDiaPqlf+R/cw9tT/mX3m5RWH/wsjRf+fz/AMgv/wDE0f8ACyNF/wCfz/yC/wD8TR9Ur/yP7mHtqf8AMvvNyisP/hZGi/8AP5/5Bf8A+Jo/4WRov/P5/wCQX/8AiaPqlf8Akf3MPbU/5l95uUVh/wDCyNF/5/P/ACC//wATR/wsjRf+fz/yC/8A8TR9Ur/yP7mHtqf8y+83KKw/+FkaL/z+f+QX/wDiaP8AhZGi/wDP5/5Bf/4mj6pX/kf3MPbU/wCZfeblFYf/AAsjRf8An8/8gv8A/E0f8LI0X/n8/wDIL/8AxNH1Sv8AyP7mHtqf8y+83KKw/wDhZGi/8/n/AJBf/wCJo/4WRov/AD+f+QX/APiaPqlf+R/cw9tT/mX3m5RWH/wsjRf+fz/yC/8A8TR/wsjRf+fz/wAgv/8AE0fVK/8AI/uYe2p/zL7zcorD/wCFkaL/AM/n/kF//iaP+FkaL/z+f+QX/wDiaPqlf+R/cw9tT/mX3m5RWXpvjPS9WuBFb3kbSNwFZShb6ZAzWpWU6c4O0016lRkpK8WFFIzhFLMQqqMkntWXL430uFyrXa5H91GYfmBSjTlL4Vc2p0ak/gi36K5q0Vkf8J3pP/P1/wCQn/wo/wCE70n/AJ+v/IT/AOFafV6v8r+5mn1Ov/I/uZr0Vkf8J3pP/P1/5Cf/AAo/4TvSf+fr/wAhP/hR9Xq/yv7mH1Ov/I/uZr0Vkf8ACd6T/wA/X/kJ/wDCj/hO9J/5+v8AyE/+FH1er/K/uYfU6/8AI/uZr0Vkf8J3pP8Az9f+Qn/wo/4TvSf+fr/yE/8AhR9Xq/yv7mH1Ov8AyP7ma9FZH/Cd6T/z9f8AkJ/8KP8AhO9J/wCfr/yE/wDhR9Xq/wAr+5h9Tr/yP7ma9FZH/Cd6T/z9f+Qn/wAKP+E70n/n6/8AIT/4UfV6v8r+5h9Tr/yP7ma9FZH/AAnek/8AP1/5Cf8Awo/4TvSf+fr/AMhP/hR9Xq/yv7mH1Ov/ACP7ma9FZH/Cd6T/AM/X/kJ/8KP+E70n/n6/8hP/AIUfV6v8r+5h9Tr/AMj+5mvRWR/wnek/8/X/AJCf/Cj/AITvSf8An6/8hP8A4UfV6v8AK/uYfU6/8j+5mvRWR/wnek/8/X/kJ/8ACj/hO9J/5+v/ACE/+FH1er/K/uYfU6/8j+5mvRWR/wAJ3pP/AD9f+Qn/AMKP+E70n/n6/wDIT/4UfV6v8r+5h9Tr/wAj+5mvRWQPHelH/l6/8hv/AIVpWd7DqEAkhkWSM91OamVOcdZJoipQqwV5xa9UyWiiqeq6/Z6IF+1XCQ7uQDyx/Ac1lKSSuzmqVYU489RpLu9EXKKxf+Fh6P8A8/n/AJCf/Cj/AIWHo/8Az+f+Qn/wrL6xS/mX3o5P7VwX/P6H/gS/zNqisX/hYej/APP5/wCQn/wo/wCFh6P/AM/n/kJ/8KPrFL+Zfeg/tXBf8/of+BL/ADNqisX/AIWHo/8Az+f+Qn/wo/4WHo//AD+f+Qn/AMKPrFL+Zfeg/tXBf8/of+BL/M2qKxf+Fh6P/wA/n/kJ/wDCj/hYej/8/n/kJ/8ACj6xS/mX3oP7VwX/AD+h/wCBL/M2qKxf+Fh6P/z+f+Qn/wAKP+Fh6P8A8/n/AJCf/Cj6xS/mX3oP7VwX/P6H/gS/zNqisX/hYej/APP5/wCQn/wo/wCFh6P/AM/n/kJ/8KPrFL+Zfeg/tXBf8/of+BL/ADNqisX/AIWHo/8Az+f+Qn/wo/4WHo//AD+f+Qn/AMKPrFL+Zfeg/tXBf8/of+BL/M2qKxf+Fh6P/wA/n/kJ/wDCj/hYej/8/n/kJ/8ACj6xS/mX3oP7VwX/AD+h/wCBL/M2qKxf+Fh6P/z+f+Qn/wAKP+Fh6P8A8/n/AJCf/Cj6xS/mX3oP7VwX/P6H/gS/zNqisX/hYej/APP5/wCQn/wo/wCFh6P/AM/n/kJ/8KPrFL+Zfeg/tXBf8/of+BL/ADNqisX/AIWHo/8Az+f+Qn/wo/4WHo//AD+f+Qn/AMKPrFL+Zfeg/tXBf8/of+BL/M2qKxf+Fh6P/wA/n/kJ/wDCrGn+MNN1WcRQXSNI3AVgVJ+mQKpVqbdlJfeXDMsJOXLCrFt9FJf5mlRRRWh2BRRRQAUUUUAFFFFABRRRQAjKHGGAI9DVabSo5Pu5Q+3SrVFAGXNpssXbcPaq5GDW5TJbdJx8yg+9AGNRWhJo6n7rMv15qM6O399aAKdFXl0c/wAUn5CpodNji7bj70AUbaze5PAwvrWlbWy2yYX8T61IBiigAooooAKKKKACiiigAooooAKKKKACiiigAooooAKKKKACiiigAooooAKKKKACiiigAooooAKKKKACiiigAooooAKKKKACiiigAooooAKKKKACiiigAooooAKKKKACiiigAooooAKKKKACiiigAooooAKKKKACiiigAooooAKKKKACiiigAooooAKKKKACiiigAooooAKKKKACiiigAooooAKKKKACiiigAooooAKKKKACiiigAooooAKKKKACiiigAooooAKKKKACiiigAooooAKKKKACiiigAooooAKKKKACiiigAqjrczJEijoxOfwq9Wfrv/LL8f6V5ecyccHNry/NG1D+IjPooor8/PSCivnT9vX44aR8LdNsRqnxI+Onwxt7G3l1K71TwF8OJfE1s1uow32udtF1KCBUwWwTE2Mk5WvCdB/aX0eTxYtlH+0p+3Bql9ZxQ6hPprfADLvbOzBGkWPwYsixSGORQ4K52ttbIyOiGFnKPMvyf6IlySdj9AaK+Dv+Cqnxsi8U2vhrwvJ8Vvhv8H9MjjsfFlofGfjfTfCGo+JriO4DwxLHqFhftDDbsgmk8+wYvKIogEw7r5P8Ev2ifih8aPixoPhfT/2yvhbq1zrV2sAtfDfxx8F61q0i8s/2azXwJGZ5AgZgm9M7eWUcjSGDnKHPdE+0V7H6k0VDYW72djDDJcTXUkUao08oUSTEDBZgoVcnqdqgZPAA4qauM0CiiigAooooAKKKKACiiigAooooAKKKKACivC/24/2m9e/Zn/4U/wD2DZ6Rd/8ACwPibovgvUft8Uknk2d553myRbHTbMPLXazblGTlT290qnFpKXcLhRRRUgOTUJNORnTafUHpUbeKblv4Yl+in/GmXv8Ax7N+H86oV9tw7JvCtPpJ/kjz8V8Zxeq6nNrF/JcTMWkkOeew7D8Kr0UV+uRioqyPlG23dhRUGpx3Mum3C2c0FveNEwglmiM0ccmDtZkDKWUHBKhlJHGR1r8/fFf7VnxY8A/tmeJvDMnxs8B+JL7R/DtkuoWPhT4I+J/Flvo9w1xcnZc2WmaxcPZXDJtO+dlMibAq/ISZqVVC1/0/UcYOWx+hNFfPv7M/iTVvFviLxBP4T+I0Pi3w1dRyPfab4lsrq31zwTrEipIkLWkyx3cdrIrmYWt4yTRKyCOQwuiR+T6X41/aF8FeKfivr+qfFLwTeaTomu2ejrFp3wW8R+It0i2Vu7NaWNlrUk8abp8SFRICys5KjgS61knb8v8AMr2fQ+2qK+W/2Wdc8EeEP+Eh8WWDfFxtQ03T5rnXLef4W+IdEs7zz7hrkiysrqx+0zeXO9y0cEMk8iC6kB3AoR5TF8Tf2kPi58ENf034Y+FTp/ij4WeJ7x7fVPHPi2ayuNVVXa6tbaSwtYbp7yGSxuYY3jup7aRXKEFXTek+3SV/y1D2buffVFfOvwc+OfxWsPFmj+GfG8fgvxBr3jLwrP4l0M2OkXnhUWMsH2dZLG+gnub+RDuuY/3yElSrqYSQC3nvw1+PP7RGk+O/jRr958Pfhzq2j+H9VhiuLFfilqMi6ctvptvLNHYpJogRywk3HcYFMhIJAHmGvbR8/wCvQXs2fZlFeL/CL48alq3xtOh6xeQ3ei+PNDi8XeDJTa+RPFahYUurKXGVZ4mlgkVs5Zbhgf8AV5PtFaRkpK6JasFFFFUIKKKKACiiigAooooAKKK8V/Yv/aO1z9oz/hbH9t2ulWv/AAgnxH1jwhYfYYpI/OtLTyfLeXe75lPmNuK7VOBhR3lySaXcfLpc9qoooqhAG2nI4I6GvXPBmpSat4Ys7iU7pGUqxP8AEVJXP44ryOvVPhv/AMiXZ/8AA/8A0Nq8XO4r2MX1v+jO7AN87XkVPibqElvY28CsVW4Zi+O4XHH6/pXFV13xT/5cf+2n/stcjWOASVFP1/M/SMoilhYtdb/mwooryX9rbxncaL4TsNJ0zV/i1omu6xOfsE/gLwxDq93M6DPkSTXllc6faI+QPMuzCmR/rVAY11ydlc9CUrK561RXx38L/jx8WPgv4w0uT4g6f8aLf4d3E5j1XWvH+geEr65s5pdscCrceHNRQW1sJMbnm06cAuS88Scr03/BSj4/eMP2evB/hzWrez02z8Cx+JdDTVtWtNdvV18l9ShU2lrptvZSfbPOXCFBcIzB2URvwGj2i5eZmft1yuTTVj6eor508bfHL4weFLXQPG2oaV4Q8L+Dr7WtP0qbwlfWU194jnivbqK2jma+iuktrWZDMrtbrBdLiIqJ8vmPuv2kviNq/gfxB8L7DR75bBvFHjK30u8JWNjcWotbqeWIB1b7whHK4YdmHNVzor2iPUaKK8+1H4qapD+1NpPgm3t7BtHuPC93rd5O4f7THMl1bwwqhzt2EPMWyCcqvIHWm7FylY9Borzn9qH4tax8B/he/jLT7Gy1HSfDtzHd+IoJQ/nrpYyLmaAqcebCpE21lYOsToMMwYehWd5FqNnDcQSLLDOgkjdTlXUjII+opX1sLmV7ElFFFMoKKKKACiiigAooooAKKK8T/bV/aS1z9nD/AIVL/YdrpN1/wnnxJ0fwdqH26KSTybS887zXi2Om2YeWu0tuUZOVPZSlZXZMpKKuz2yiiimUFb3w81CS319YVY+XcKQy9sgEg/p+tYNa/gT/AJGq1/4H/wCgNWOJSdKV+zOXHRTw80+z/I9Frx/VdSk1fUJbiVizSNnnsOw/CvYK8Xr4TNG7RXr+h+F8bTko0YLZ834Wt+bCiiivIPgQory/9lj4iav8TdA8YX2rX63y2fjLWNMsQqRqLa1trloEiyirnBjbltzc8se3qFOSs7FVIOEuVhRXwv8AtI/tVeHf2Yf2gvC2l3n7ZCf2pc+MLe217wl4i1Twfb2uj6c8clxKtwE0+G8gURBFjaSdWJkjyzlvm+vvB/xg0nxz8QfEvhvT/PkvPC8VlNdTfI1vKt3G0kXlsrEn5VycgfeXGQc1cqbSub1cLOEVN7NX6+nVI6qivD/hdN4j/aP+DOsTT+KNR0fUrPxtqSaff2a+XstrHVZYo7d1iMYmiaKIxsGOSGJyWAavUfhf4V1LwP4D07R9V1qbxFeafGYP7RnjKTXMYY+WZMuxaQJtDOT87Athd2BMo2M6lPkum9U7WN+ivhf9pH9qrw7+zD+0F4W0u8/bIT+1Lnxhb22veEvEWqeD7e10fTnjkuJVuAmnw3kCiIIsbSTqxMkeWct83194P+MGk+OfiD4l8N6f58l54Xisprqb5Gt5Vu42ki8tlYk/KuTkD7y4yDmqlTaVzSrhZwipvZq/X06pHVUUUVmcwUUUUAFFFFABRRRQAUUUUAFFeKfsW/tH65+0Z/wtn+3LXSbX/hA/iPrHg+w+wxSR+daWnk+W8u933SnzG3FdqnAwo7+11UotOzNKlNwlyS3CgHaciiipMz1bwfqMmq+G7WaU7pGUqxPcgkZ/StKsX4ef8ifZ/wDA/wD0Nq2q+ootunFvsj9ry2cp4SlKW7jF/ggooorQ7QooooAKKKKACiiigAooooAKKKKACiiigAooooAKKKKACiiigAooooAKKKKACiiigAooooAKKKKACiiigAooooAKKKKACiiigAooooAKKKKACiiigAooooAKKKKACiiigAooooAKKKKACiiigAooooAKKKKACiiigAooooAKKKKACiiigAooooAKKKKACiiigAooooAKKKKACiiigAooooAKKKKACiiigAooooAKKKKACiiigAooooAKKKKACiiigAooooAKKKKACiiigAooooAKKKKACiiigAooooAKKKKACiiigAooooAKKKKACiiigAooooAKKKKACiiigAooooAKKKKACs/Xf+WX4/0rQrP10fLGfqP5V5edf7lP5fmjbD/xEZ9FFFfn56R4j+1bpXiD47yw/CbRdJ1CHR/ECRS+LPENxA0VjZaX5n7y0gdhi4u7kI0QWPIhRnkkZT5KS8X8Wfi9D+zF+2L4o8Qar4Z+Imo6br3gbTLLSZ/DngXWvE0MtzbXWoO8Mh061nELATwkCUpuD8E4JH1FRW0aiS5WtP6/yJ5T5Z+KPjX4qfGX4Q/D7S/D2h+OPDHxf1DS7LV7/UbE/wBk+H/Cc08J843rXaTRXiqRLH9ijjuplZkLfZ8pdR8Zpv7P/wAQPg94MvNT8VaDeeMvF3hvxtpnjTWfF+lP9sk8dW6GSCXydPQefayW1s7bLGJZYwqxiKaeR5BX2zRVRxFlZJW/r8PL9Q5TkfgR4v1zx/8ACDQdb8SaY2jaxqtsLqexa2ktXtQ5JRHikJeOQIU3I3KtuBxjFddRRWD1dygooopAFFFFABRRRQAUUUUAFFFFABRRRQB+af7cf/BFv4O+Cv8AhT//AArf4S6vN/a3xN0XTfFH2DUNW1Dy9Ck877Y0uZn8iEbY90w2FOPnXPP2h+yv+wl8Kf2KP7e/4Vj4V/4Rn/hJvs/9pf8AEzvLz7T5Hm+V/wAfEsm3b50n3cZ3c5wMeuUV0VMVVnDkk3971JUEndBRRRXOURXv/Hs34fzqhV6+OLZvwqjX2vDn+7P/ABP8kcGK+P5HB0U50MbsrcMpwRTa/Xz5I5z4weG9Y8Y/CfxNpPh/Uv7G17VNLubXTr/cV+x3DxMscmVyRtYg5AJGMjmvnL9nnw54s+EHiLWfEFt8CfFnh/TtA8J6Z4bsfD1lqmhzXOsXEV1dSzz2shv1iMR84OZLuSCVyWJj3EivrCis5U03zFKVlY8H+Flh408R/Fnxh8U9U+H+peEGm8OwaLpfhm9vrCTWdUe3knn824ktriW0Tc0ojiH2h8AuzlN20Z8Pg/4lfs+/CfwXd6Ho+oeL9Vk1241zx3pWiT6fHfatJeJPJJHbPfyRQeXHcyxdZon8qABWY5Rvoiij2fmHMed/B/41+JfiXrlxaa18IfiJ8PbeGHzUvfEF7oM0Fw2QPLUafqV1IG5zlkVcA/NnAPPaV4IvLL9qr4g6fNZatH4X8feHLG+a/spLi1Ed7CZbSdRcxbTDM0BtSpSRXxGWXBUmvZaKfJ3Yc3Y8r8Ifs7eH/wBmzQfEWueC9B1/xP4rnsXWKTXPFF7rWqX+wbo7Nb7U7iaSKAyDPl+YsSszPt3Ek+d6v4L+JXwi+AM3gfRfBtz428SeObS8k1bxLa6jZW1jpurXzyNcT3ENxLHL9lj835PIE8hWMIYxgMfpiik6a6aegcz6nN+EvhZo/hbQPC9n9hs7y48IWKWGm3k8CyXFqghWFjG5G5C6KA20jI4NdJRRWlrbEhRRRQAUUUUAFFFFABRRRQB5V+01+xL8Mf2xf7E/4WP4Z/4SL/hHfP8A7O/4mN3Z/Z/P8vzf9RLHu3eTH97ONvGMnPyB+xf/AMEffhL4x/4Wx/wsL4W6tD/ZXxH1jTvDX26+1Sx36JH5P2RosTJ50RzJtmO4vz87Y4/RSisZ4enKXNJL7jSNSSVkwooorYzCvVPhv/yJdn/wP/0Nq8rr1b4ewtB4OslYbSVZvwLMR+hrx87/AIC9f0Z3YD+I/Qy/in/y4/8AbT/2WuRrsPilExisnx8ql1J9ztx/I1x9c+B/gL5/mfpGU/7rH5/mwrJ8c+M7P4eeEb/W9Qh1a4s9NiM0semaXc6peOo7R21tHJPK3P3Y0Zvataiuw9I+ZPH3j3xd+3R4XuvBvhb4f+LvCPgLWbhbbWfF3jKx/sWW6sFdTNHp+mTH7eZpCrRBryC1RFJlQzAIrp+29+z94g+KnjHwbr8gutS0fwX4n0C50PR9NWWVlnOowC71C6ULz5VvuRBysaPO7HLLs+nKKzdO61MZUeZWkzyX9sjw94k1v4eaDceGfD2oeLLjQvFGl6xd6Rp93bW15fW1vcCV0ha5lhgLgqjYkmjBCn5uinL+PHgvxj8VPh14D8WWPhe3g8ZeCNeh8TJ4audUj3XCCKeCW0+0L+5Fwbe4YqSTCJQFMhT97Xt1FU43KlTTbZ86+OPHHxc/aY8L3Xg/R/hf4r+D9rrKm11bxJ4r1XR5ZrKzcFZf7Pg0y+vGluyuVUzNBHHu8zdIUET6vxa+HHiT4MeKfB/ij4Y+EY/FC+H9Cm8JS6BFe29i62rmFradZZ2VNkEkCiRd28xSyMiyOixv7rRS5O7D2Xdu5wvg/wCEd5Z/AD/hD/EWtXPiLUb7TZ7XVNSumeX7VLcB/OYKzEiMNIwSPdhUCqMAVpfBL4ez/CT4OeFfCt1qja1ceG9ItdLk1BofJN6YYljMuzc23dtzt3HGcZPWuooquVIpRSCiiimUFFFFABRRRQAUUUUAFfnL+2r/AMEdPhH4N/4VL/wrv4V6tN/a3xJ0fTvE32G/1S/2aJJ532tpczP5MQxHumG0px8655/RqioqU1NWZlWoxqK0keUfsw/sQfC/9jX+3P8AhW3hj/hG/wDhJPI/tH/iY3d59o8jzPK/4+JZNu3zpPu4zu5zgY9XooqoxSVkXGKirRVkFa/gT/karX/gf/oDVkVs+AYmk8UW7KOIw7N7DaR/UVliP4UvRmGM/wB3n6P8j0OvF69orxmaJoJmjYbWQlSPQivg80+z8/0PwjjZO1F/4v8A20bRRRXknwZ83+DtQ8efsl6x4q0Gx+EHjD4j6BrPiG/8Q6XqfhbVNGj8pL2ZriSC6j1K/tHSVJnkAMXmoyFDuVsoJLr4P/FPxr4d+JPjq/bStA+I+v8AhyfQ/B2k2l8Z4/DNvtd08y5KBGu5pTG8rIhjQxRIrSrH5r/RlFae06nV9ad72V+r11/G2vWx8x/s1/B668GJb+OPEHgDUfh7ofgHQJ9K8MeDoxBqeqQI5WW+vZ1sHnimurl41CJDJKxUFmPmTOiXv2Hf2PNF+EeoeIfiE3gjTfh14m8danPqcmhaJJ9htbG1dI44Ibu3tmW2nugkfmO7LIUlnmCOQSzfR1FDqN3CeLnJNbX3327ffq7nzj4K8QfEL9lSfX/C8Hwc8ZfEXQ7jXb/WNI1fwtq+iKv2e8uHumhuYtSvrOSOaOWWRMRiZGRUfzAzNGlzUPgv8SPEHhT4neNJpdH0n4o+KvD0mi+GbKyujJB4bt0SVoIvtLoN87zSGWSQIEDCNAHWISP9BUUe08hfWXe6Sv131+99etrHzH+zX8HrrwYlv448QeANR+Huh+AdAn0rwx4OjEGp6pAjlZb69nWweeKa6uXjUIkMkrFQWY+ZM6Je/Yd/Y80X4R6h4h+ITeCNN+HXibx1qc+pyaFokn2G1sbV0jjghu7e2Zbae6CR+Y7sshSWeYI5BLN9HUUOo3cc8XOSa2vvvt2+/V3CiiiszlCiiigAooooAKKKKACvKf2m/wBiT4Yftj/2J/wsjwz/AMJH/wAI55/9nf8AExu7P7P5/l+b/qJY927yY/vZxt4xk59Wopxk07ounUlCXNBtPutD86f2Lf8Agj38JfGP/C2f+FhfCzVof7K+I+sad4a+3X+qWO/RI/J+yNFiZPOiOZNsx3F+fnbHH6LUUVdSpKbuzbFYqpXlzVG3872CiiiszmPTvh5/yJ9n/wAD/wDQ2rarH8AxND4Rs1YYOGb8CxI/Q1sV9Ph/4UfRfkftWVprBUU/5Y/kgooorU7gooooAKKKKACiiigAooooAKKKKACiiigAooooAKKKKACiiigAooooAKKKKACiiigAooooAKKKKACiiigAooooAKKKKACiiigAooooAKKKKACiiigAooooAKKKKACiiigAooooAKKKKACiiigAooooAKKKKACiiigAooooAKKKKACiiigAooooAKKKKACiiigAooooAKKKKACiiigAooooAKKKKACiiigAooooAKKKKACio57lLaPdIwUfzqrHr0LybfmX3IoAvUUA5FFABRRRQAUUUUAFFFFABRRRQAUUUUAFFFFABRRRQAUUUUAFFFFABRRRQAUUUUAFFFFABRRRQAUUUUAFFFFABRRRQAUUUUAFFFFABRRRQAU2aFbiMqwyDTqbJIsSMzMqqoySTgAVMoqS5Wrphtqii2hc8SfmtH9hf9Nf/Hf/AK9Z8/xT0G2lZG1BCy/3Y3YfmARTP+FteH/+gh/5Ak/+Jrm/1XpvX2Ev/JjT61Lv+Rp/2F/01/8AHf8A69H9hf8ATX/x3/69Zn/C2vD/AP0EP/IEn/xNH/C2vD//AEEP/IEn/wATR/qtT/58S/8AJg+tS7/kaf8AYX/TX/x3/wCvR/YX/TX/AMd/+vWZ/wALa8P/APQQ/wDIEn/xNH/C2vD/AP0EP/IEn/xNH+q1P/nxL/yYPrUu/wCRp/2F/wBNf/Hf/r0f2F/01/8AHf8A69Zn/C2vD/8A0EP/ACBJ/wDE0f8AC2vD/wD0EP8AyBJ/8TR/qtT/AOfEv/Jg+tS7/kaf9hf9Nf8Ax3/69H9hf9Nf/Hf/AK9Zn/C2vD//AEEP/IEn/wATR/wtrw//ANBD/wAgSf8AxNH+q1P/AJ8S/wDJg+tS7/kaf9hf9Nf/AB3/AOvR/YX/AE1/8d/+vWZ/wtrw/wD9BD/yBJ/8TR/wtrw//wBBD/yBJ/8AE0f6rU/+fEv/ACYPrUu/5Gn/AGF/01/8d/8Ar0f2F/01/wDHf/r1mf8AC2vD/wD0EP8AyBJ/8TR/wtrw/wD9BD/yBJ/8TR/qtT/58S/8mD61Lv8Akaf9hf8ATX/x3/69DaJtUnzun+z/APXrM/4W14f/AOgh/wCQJP8A4modQ+K+gyWUix3252XAHkyf/E0f6rU/+fEv/Jg+tS7/AJA2o4Y4XIzwc9aT+0v9j9a5/wD4TjS/+fr/AMhv/hR/wnGl/wDP1/5Df/Cj/Van/wA+Jf8AkwfWpd/yOg/tL/Y/Wj+0v9j9a5//AITjS/8An6/8hv8A4Uf8Jxpf/P1/5Df/AAo/1Wp/8+Jf+TB9al3/ACOg/tL/AGP1o/tL/Y/Wuf8A+E40v/n6/wDIb/4Uf8Jxpf8Az9f+Q3/wo/1Wp/8APiX/AJMH1qXf8joP7S/2P1o/tL/Y/Wuf/wCE40v/AJ+v/Ib/AOFA8caWf+Xr/wAhv/hR/qvT/wCfEv8AyYPrUu/5G1PcNOeenpUdR2l7FfwCSGRZIz3U1JXTToxox9nFWS6ESk27szdV8Mw6lL5isYZG6kDIP4VT/wCEJ/6ev/If/wBetq4vI7X/AFjhfaof7atv+en/AI6f8K6P7clR/duqlbo2v1I/s11PfUG/RP8AQy/+EJ/6ev8AyH/9ej/hCf8Ap6/8h/8A161P7atv+en/AI6f8KP7atv+en/jp/wo/wBY3/z+j98R/wBkv/n2/uZl/wDCE/8AT1/5D/8Ar0f8IT/09f8AkP8A+vWp/bVt/wA9P/HT/hR/bVt/z0/8dP8AhR/rG/8An9H74h/ZL/59v7mZf/CE/wDT1/5D/wDr0f8ACE/9PX/kP/69an9tW3/PT/x0/wCFH9tW3/PT/wAdP+FH+sb/AOf0fviH9kv/AJ9v7mM0v4Vf2nbeZ/aGznBHkZ/9mqz/AMKa/wCol/5L/wD2VaHh3xdp9jBIs1xty2R8jH+laP8Awnek/wDP1/5Cf/Cj/WN/8/o/fEP7Jf8Az7f3M57/AIU1/wBRL/yX/wDsqP8AhTX/AFEv/Jf/AOyrof8AhO9J/wCfr/yE/wDhR/wnek/8/X/kJ/8ACj/WN/8AP6P3xD+yX/z7f3M57/hTX/US/wDJf/7Kj/hTX/US/wDJf/7Kuh/4TvSf+fr/AMhP/hR/wnek/wDP1/5Cf/Cj/WN/8/o/fEP7Jf8Az7f3M57/AIU1/wBRL/yX/wDsqP8AhTX/AFEv/Jf/AOyrof8AhO9J/wCfr/yE/wDhR/wnek/8/X/kJ/8ACj/WN/8AP6P3xD+yX/z7f3M57/hTX/US/wDJf/7Kj/hTX/US/wDJf/7Kuh/4TvSf+fr/AMhP/hR/wnek/wDP1/5Cf/Cj/WN/8/o/fEP7Jf8Az7f3M57/AIU1/wBRL/yX/wDsqP8AhTX/AFEv/Jf/AOyrof8AhO9J/wCfr/yE/wDhR/wnek/8/X/kJ/8ACj/WN/8AP6P3xD+yX/z7f3M57/hTX/US/wDJf/7Kj/hTX/US/wDJf/7Kuh/4TvSf+fr/AMhP/hR/wnek/wDP1/5Cf/Cj/WN/8/o/fEP7Jf8Az7f3M57/AIU1/wBRL/yX/wDsqP8AhTX/AFEv/Jf/AOyrof8AhO9J/wCfr/yE/wDhR/wnek/8/X/kJ/8ACj/WN/8AP6P3xD+yX/z7f3Mx9M+EVva3Kvc3T3KKc7AmwH68muuRFjQKqhVUYAA4AqhYeKtP1KYRw3SNI3AUgrn6ZArQqZY54r3nPm9LW/APq3sfd5bev/BINS02HVrNoJ13Rt+YPqK5qX4WqXOy9ZV7Botx/PIrq2cIpZiFVRkk9qy5fG+lwuVa7XI/uozD8wK0oVK0dKV/uud+ErYqCaw9/kr/AKMxv+FWf9P3/kD/AOyo/wCFWf8AT9/5A/8Asq1/+E70n/n6/wDIT/4Uf8J3pP8Az9f+Qn/wro9tjPP7v+Adn1rMuz/8B/4Bkf8ACrP+n7/yB/8AZUf8Ks/6fv8AyB/9lWv/AMJ3pP8Az9f+Qn/wo/4TvSf+fr/yE/8AhR7bGef3f8APrWZdn/4D/wAAyP8AhVn/AE/f+QP/ALKj/hVn/T9/5A/+yrX/AOE70n/n6/8AIT/4Uf8ACd6T/wA/X/kJ/wDCj22M8/u/4AfWsy7P/wAB/wCAZH/CrP8Ap+/8gf8A2VH/AAqz/p+/8gf/AGVa/wDwnek/8/X/AJCf/Cj/AITvSf8An6/8hP8A4Ue2xnn93/AD61mXZ/8AgP8AwDI/4VZ/0/f+QP8A7Kj/AIVZ/wBP3/kD/wCyrX/4TvSf+fr/AMhP/hR/wnek/wDP1/5Cf/Cj22M8/u/4AfWsy7P/AMB/4Bkf8Ks/6fv/ACB/9lR/wqz/AKfv/IH/ANlWv/wnek/8/X/kJ/8ACj/hO9J/5+v/ACE/+FHtsZ5/d/wA+tZl2f8A4D/wDI/4VZ/0/f8AkD/7Kj/hVn/T9/5A/wDsq1/+E70n/n6/8hP/AIUf8J3pP/P1/wCQn/wo9tjPP7v+AH1rMuz/APAf+AZH/CrP+n7/AMgf/ZUf8Ks/6fv/ACB/9lWv/wAJ3pP/AD9f+Qn/AMKP+E70n/n6/wDIT/4Ue2xnn93/AAA+tZl2f/gP/AMj/hVn/T9/5A/+yo/4VZ/0/f8AkD/7Ktf/AITvSf8An6/8hP8A4Uf8J3pP/P1/5Cf/AAo9tjPP7v8AgB9azLs//Af+AZH/AAqz/p+/8gf/AGVH/CrP+n7/AMgf/ZVr/wDCd6T/AM/X/kJ/8KP+E70n/n6/8hP/AIUe2xnn93/AD61mXZ/+A/8AAMj/AIVZ/wBP3/kD/wCyo/4VZ/0/f+QP/sq1/wDhO9J/5+v/ACE/+FH/AAnek/8AP1/5Cf8Awo9tjPP7v+AH1rMuz/8AAf8AgGQPhZ/0/f8AkH/7Kt3w/wCGbfw7Cwi3PI/3pG6n29hUI8d6Uf8Al6/8hv8A4VpWd7DqEAkhkWSM91OayrVcQ42qXt6WOXFYjGShy1729LfoiWuf8SfD221+5M6SNazN94qu5W9yPWugqrqWt2ujgfaZkj3cgHlj+A5rzq6puH721vM8fEYGli4+xqw5l2/ytr9xyv8AwqH/AKiH/kD/AOyo/wCFQ/8AUQ/8gf8A2Vbv/Cd6T/z9f+Qn/wAKP+E70n/n6/8AIT/4V5//AAn/AM0f/Av+CcP+puE/6B3/AOT/AOZhf8Kh/wCoh/5A/wDsqP8AhUP/AFEP/IH/ANlW7/wnek/8/X/kJ/8ACj/hO9J/5+v/ACE/+FH/AAn/AM0f/Av+CH+puE/6B3/5P/mYX/Cof+oh/wCQP/sqP+FQ/wDUQ/8AIH/2Vbv/AAnek/8AP1/5Cf8Awo/4TvSf+fr/AMhP/hR/wn/zR/8AAv8Agh/qbhP+gd/+T/5mF/wqH/qIf+QP/sqP+FQ/9RD/AMgf/ZVu/wDCd6T/AM/X/kJ/8KP+E70n/n6/8hP/AIUf8J/80f8AwL/gh/qbhP8AoHf/AJP/AJmF/wAKh/6iH/kD/wCyo/4VD/1EP/IH/wBlW7/wnek/8/X/AJCf/Cj/AITvSf8An6/8hP8A4Uf8J/8ANH/wL/gh/qbhP+gd/wDk/wDmYX/Cof8AqIf+QP8A7Kj/AIVD/wBRD/yB/wDZVu/8J3pP/P1/5Cf/AAo/4TvSf+fr/wAhP/hR/wAJ/wDNH/wL/gh/qbhP+gd/+T/5mF/wqH/qIf8AkD/7Kj/hUP8A1EP/ACB/9lW7/wAJ3pP/AD9f+Qn/AMKP+E70n/n6/wDIT/4Uf8J/80f/AAL/AIIf6m4T/oHf/k/+Zhf8Kh/6iH/kD/7Kj/hUP/UQ/wDIH/2Vbv8Awnek/wDP1/5Cf/Cj/hO9J/5+v/IT/wCFH/Cf/NH/AMC/4If6m4T/AKB3/wCT/wCZhf8ACof+oh/5A/8AsqP+FQ/9RD/yB/8AZVu/8J3pP/P1/wCQn/wo/wCE70n/AJ+v/IT/AOFH/Cf/ADR/8C/4If6m4T/oHf8A5P8A5mF/wqH/AKiH/kD/AOyo/wCFQ/8AUQ/8gf8A2Vbv/Cd6T/z9f+Qn/wAKP+E70n/n6/8AIT/4Uf8ACf8AzR/8C/4If6m4T/oHf/k/+Zhf8Kh/6iH/AJA/+yo/4VD/ANRD/wAgf/ZVu/8ACd6T/wA/X/kJ/wDCj/hO9J/5+v8AyE/+FH/Cf/NH/wAC/wCCH+puE/6B3/5P/mYX/Cof+oh/5A/+yqxpvwot7a4V7i5a4VTnYE2A/Xk1q/8ACd6T/wA/X/kJ/wDCp7DxVp+pTCOG6RpG4CkFc/TIFXT+ouSUZRb/AMV/1Kjwlg6b5/YPTvzNfi7F9EEaBVAVVGAAOAKWiivTPUCiiigAooooAKKKKACiiigAooooAKKKKACiiigAooooAKKKKACiiigAooooAKKKKACiiigAooooAKKKKACiiigAooooAKKKKACiiigAooooAKKKKACiiigAooooAKKKKACiiigAooooAKKKKACiiigAooooAKKKKACiiigAooooAKKKKACiiigAooooAKKKKACiiigAooooAKKKKACiiigAooooAKKKKACiiigAooooAKbPJ5MLN/dBNOpHUSIVPRhg0Ac5cXDXMhZ2LH+VR1Le2rWdw0Z7dD6ioqANjQb3zYvKb70fT6VoVmaDZPGWlYFQwwAe9adABRRRQAUUUUAFFFFABRRRQAUUUUAFFFFABRRRQAUUUUAFFFFABRRRQAUUUUAFFFFABRRRQAUUUUAFFFFABRRRQAUUUUAFFFFABRRRQAVwnx11iaz0mztI2ZY7xnaTH8QXbx9Mtn8K7uvOfj//AMwn/tt/7Tr0snipYyCfn+TIqfCec0UUV98cwUUV49+2N8U9e8B+H/Bei+EtQXT/ABV438W6do1nIYY5iLcS/aL1tsisvFnBcckHBIxg4ImclFXYHsNFcb8YPhjrfxMsrOLRfiN4y+Hklq7PLN4fttJne8BGAsg1CyulAHUbAh55JHFeDP4b+I3hz9rfwX4N0P48fErxdHYqdd8Y2ms6X4a+yWumbXSCFja6VBMs1xOMJtkBCQzN2FROpyvZ/h/mB9V0V5D+1x+03F8CfCa6Xov2PU/iJ4igmHh/SJZtgITAlvrlv+WNjbB1kmnbCqMLne6KfE5rz48fs2/sZSeK7X46fB/x/pfhvQG1G21O88BajfT+ITsLx/6WviDbI0zsqqypt+dQqgYWlOuouyV7b7aDsfZVFeMfHH4q+LPBXwq+GeoCaDSdc17xJoOnazHDCske25kVbmFRIGKqSWAIO4Do2ean+BPibUtX/aU+Nljd6hfXVjpOpaXHZW807PFZq+nRO4jUnCBmJYhQMkknmq9oubl/rZv9BHsFFeQ/tSfHXw18MG0fTda+JzfCe9vJPtVpq99YxDRrplyFtLq6uojbL5jHiFZ4LmQI3lONrMLE2kfFrV/BFrFN4i8G2urWt4ol1XSYHt7XVrJ4GV5hbXCXBtZY5HDpH586P5C7pAsjKh7RXsgPVqK818OfHu3stA+HcGsXWk6lqXju3MFrqmj3S3Gi3d8luZjHHPwxWVUlaMhCCI2BIO0Ni2H7Wv2z4H6Z4mbw7JDr914ht/C13oDXf7yy1Br5bSaMS+X86x5eUMEG+NQflByD2sQPZKK8v/ak/aAuPgv4PjsfDunp4j+I3iYSWnhXQAxDahdAf62UqCYrWHcrzTEbUTjlmRW8R1rw7+0N+xt+ytq2sar8avhf4ki8G6Tc6lc3OsfDvVr2+v5AHlKNOdfGSznYu2MBQVCoAAtTOtyuyV7b7afeOx9fUVh/DDVdY134beH77xBbW9nr15p1vPqNvbgiKC4aNWkRQSTtDEgZJPHU9a3K2TuriCiiigAorxj9sr9orW/2eP8AhVP9i2ul3X/CdfEXSPCN/wDbYpH8m0u/O8x4tjriUeWu0tuUZOVNez1MZptxXQAoooqgN34f38lvrywgny7hSGHbIBIP6frXd1574H/5Gm1/4H/6A1ehV8XxBFLEprql+bOilsc1cTtczM7dWNMoor8RlJyblLdn6FGKirIKKw/iZFNP8O9cWDV9W0Cb7DMy6lpkdvJeWJCE+bCtxHLAZFxkCWN0zjKkcV+fvwdudfv/AIi2OuzeNv2yvALfGLTv7Sg1nVLb4ZyWesC0sWnRjDZ21w8cxthgO0KMwSNXb5EC60aHOm7pWIqVeVpWP0eor4P+BTah+z38IfGFv4L+JvxS1jQvD/wqXxpolt4mt/DrJFNfi8mSWVbTS4ZnuEe3Ls8lxKsjTvvViAx5bxdofjLxh8UvC0S+M/2uPiZ4u8C6DZeK/tvh+0+Gltp+jSalbzxZVNQtbVnkKRzqD5b7FbhgWNarCatcyt8/67EfWNE7M/Rmivkv9lD4n+KL341eG/P+JvxF8deEPG3w6fxbbWfi3SdDivdOlFzAiADSrK33NslYMm6UEgbT6+N/tF/tcfGjXfhrqsnhvx1rq6lp0sWqafaaf+yj8Q9Pub1reZZ0tHuXvDGEl2eVJvQKyuwO0HImOEk5ct/z/wAgeIio81vy/wAz9GKK+ef2Df2n9Y/aM0i+utW8Sf8ACUQzW0F9p93bfB7xH4Fs/JfOds2qTzxXZOQR5DjABJBBBH0NWFSm4S5X/X3m0JKS5kFFFFQUFFFFABRRRQAUUUUAFFFFABRRXif7FX7SWuftH/8AC2v7ctdJtf8AhA/iTrHg7T/sMUkfnWln5PlPLvd90x8xtxXapwMKO9Rg3FyXQlySaXc9soooqSgB2nIr0zwrfvqXh+1mkO6RlIYnvgkZ/SvM69F8Cf8AIq2v/A//AENq+h4bk/rEo9OX9UeLncV7GL63/Rmf8TdQkt7G3gViq3DMXx3C44/X9K4quu+Kf/Lj/wBtP/Za5Gv1PAJKin6/mdmURSwsWut/zYUUV4r8T/FWp2P7SFpDoWsa1p+uWeg3E8Gh6sGj8N+L4gGYpFOiSvBdQSGJmkSN38qUjyphgxdbdj0JSsrntVFfFa/tD/Hqw8z44S+H/g0fhrqHhm1hgsG+J+vfZ42a4Z1vBF/wje/zXEqRFPJDjaAT2Hu2r/EvxU/7Qfwy8M3H2XSJNQ0HVNc8QWFhKt7BK0AtYY4EnmhjkZFluSwcJEzbBkAErUKomZxrRf8AXc9eor5Q+PP7bvxN8H+L/ANrpvwB+Mmm2+qeKV0+6El74RkGswfZbp/Ii/4nLFGZo0kDP5XyxkFgTtb2H4nWmq/Ev4NWOtXHjTxv8AzZxHU9UliOgSXdhEsbF4buS6hv7NUT7zPExwUH7zbkF+0T2KVVO9r6f11PTqK+D/2Of2irb9ob9p/Tl8I/tkSePPCWnJMw8NajfeDrjWPFzKh3OtrY6db3VpaxHncx82Ug/JFGFkm+8KITUldBSqqouZfp+gUUUVZoFFFFABRRRQAUUUUAFFFFABRRXif7av7SWufs4f8ACpf7DtdJuv8AhPPiTo/g7UPt0Uknk2l553mvFsdNsw8tdpbcoycqeylKyuyZSUVdntlFFFMoK3vh5qElvr6wqx8u4Uhl7ZAJB/T9awa1/An/ACNVr/wP/wBAascSk6Ur9mcuOinh5p9n+R6LXlep6hJql9JPIxZpGzz2HYfhXqleR1+Y8TSdqcemv6Hh5HFXm/T9Qooqpr0s8GhXslruNykDtEFXc28KduB35xxXyZ9EW6K+W/2ff2fvi98Sfgf4T8QeK/2iPjl4d8S61pdveanpa6D4Stl0+4dA0kIjm0JpUCsSNrsWGOSTzWp8ED46+G/7a+veCdc+KXi/4jeGYPBVtrf/ABUNjosEun3cl7LENrafY2h2tHE/EgYZUkYreVG17STt6/5GSq3to9fT/M+kKK+TdQ8Q/Fj9sf4+Wvir4SeNNC8F/DHwEk1pY6hrGiX2rWPj2/lBSeZLe3v7ESWlsqqsUrPJHLLJKyriNHPRfCT4tfF6H9pzxh8PvFniD4f+LrXw/wCEYNba98N+EbzQ5rG8uJpUgt3WfUr1Zd6QyPgbSMDOQRlvDtLdXtdrXT9P6tuCq3e2nc+kKK+W/wBn39n74vfEn4H+E/EHiv8AaI+OXh3xLrWl295qelroPhK2XT7h0DSQiObQmlQKxI2uxYY5JPNanwQPjr4b/tr694J1z4peL/iN4Zg8FW2t/wDFQ2OiwS6fdyXssQ2tp9jaHa0cT8SBhlSRilKja9pJ29f8gVW9tHr6f5n0hRXybqHiH4sftj/Hy18VfCTxpoXgv4Y+AkmtLHUNY0S+1ax8e38oKTzJb29/YiS0tlVVilZ5I5ZZJWVcRo56z4DfFX4rH9rjxH8O/G3iD4e+LtM0Hwxa6zcX3h3wneaDJYXNzcSRw27+fqV6sm+OGV+NhXAzkEUSoWW6va7Wun6f1bcFVu9tO59DUUUVgahRRRQAUUUUAFFFFABRRRQAUV4n+xV+0lrn7R//AAtr+3LXSbX/AIQP4k6x4O0/7DFJH51pZ+T5Ty73fdMfMbcV2qcDCjv7ZVTg4S5WTGSkroKAdpyKKKko9M8K376l4ftZpDukZSGJ74JGf0rQrI8Cf8ira/8AA/8A0Nq16/S8HJyw8JS3cV+R8NioqNaaXd/mFFFFdJgFFFFABRRRQAUUUUAFFFFABRRRQAUUUUAFFFFABRRRQAUUUUAFFFFABRRRQAUUUUAFFFFABRRRQAUUUUAFFFFABRRRQAUUUUAFFFFABRRRQAUUUUAFFFFABRRRQAUUUUAFFFFABRRRQAUUUUAFFFFABRRRQAUUUUAFFFFABRRRQAUUUUAFFFFABRRRQAUUUUAFFFFABRRRQAUUUUAFFFFABRRRQAUUUUAFFFFABRRRQBDd2Md6uHHToR1FR22jw2z7tu5u27tVqigAooooAKKKKACiiigAooooAKKKKACiiigAooooAKKKKACiiigAooooAKKKKACiiigAooooAKKKKACiiigAooooAKKKKACiiigAooooAKKKKACvOfj/AP8AMJ/7bf8AtOvRq88+PsDNb6XJt/do0qk+hO0j+R/KvUyb/fIfP8mRU+E82ooor7w5jhfjV8cJPhHDYwWHgzxx461rVCws9M8PaaJPM243mW7uHhsrYAHP+kXEZfBCB2wp5D4LfBjxd4k+KknxO+KE2nx+IltWsvD3hrT5ftFh4QtZNpm/flFa5vJiAJZtqoqqsca7Q8kvtNFZuneV2/kB5p8YfiH40uNVl8K/Dzw+ZPEE0IaXxDrdtJHoOhq4O2RuVe+lGCRb25xlcSzW4ZWbza5/ZK8Sfs4ahcePvhlreteKPGV5i48X6XruoloPH5UH5hnENjeIOIXhRItqpE6mMI0f0pRSlSUnd/Ly9P6/ADzu6+Inh3Rfh3H8SLjwf4khvtcsbSKe1g8LXFz4gdWY+TazQQxvMPLeVs7/AN3FudmZV3NXgvw9/Ybs/i78eLX4gan8NYfgr4btbw6pP4VsdTWG88YaispkS81q206dtNk8uX97GCbmZm2M8se0wn6+opSoqTXN0A8K+LXhfxB8f/2nfCGhnQ77T/APw3vU8Tanq91iKPWtTWNhZ2dqhy0kcXmNNLL8qBlijUufNEfnt748+JXgP9rD4vaD4F+Geua1rXi+50u6sPEOrQNY+FdLhSxiheee6b5rhkYNi3tVkkZlAYwqfNH1vRRKjfVPW9/wsO55Le+Of+GU/hJ4f0nxA3xF+J2vXStbCfTPDl1ql1qt2x3N5jQxm3s42d8K1zLFDGuAZAqEjz/TPhH48+P3hmHwnN4Rtf2fvg9CWjuNA0+7tW8R63CSS9sxsGez023kYsWNvPPNKjkbrck5+mqKJUb6N6dv83v/AFqI8/8Ai74d8H+EvhPYpq2g6tcaD4VuLK50+x0DTb27urWW3kT7P5MNkrTEKwUEKNu3If5N1cN8OvhtrXxi+Ldj418QeCl+G+g6Jey6pYaHPJavq2tam8H2b+0tQNo8kC7IMpFGJZXIYM5RkWNfeaKqVNN3A5H4k+INB+EFhqHjS60DUtQ1AwQ2Msmh6BPqmrXcYkPlQhLaN5mjDyMef3ce9mYou5h5Hc/D/wAfftjeLNDu/HXh+4+Gvw18PX8eqJ4Uu722vNa8TXcLBoG1BrZ5ba3tYpB5gghmmeVliLvEEaF/oqiiVPm327f5/wBeoBRRRWgBRRRQB+ef7ZX/AASJ+E/g/wD4VT/wr/4X6pN/anxF0jT/ABJ9ivtTvtmiyed9qaXMz+TEMR7phtKcfMuefrr9mn9iz4Z/sf8A9tf8K68Nf8I7/wAJF5H9of8AExurv7R5PmeV/r5X27fNk+7jO7nOBj1KiuenhacJucUvu2HzMKKKK6BGt4H/AORptf8Agf8A6A1ehV5/4EjaTxPbkDhAzH2G0j+or0CvjeIf95X+FfmzopbHL0UrKUYqeqnBpK/DdtD9EMf4hW0l74B1yGGOSaabT50REUszsY2AAA5JJ7V+b37J/wCwlqnwo+NnwMtm8F/DXRdQbwldy61f+E/gne+F7rTkn0swhdR1drqa3upvOYBrf93KX/eFVANfpzRXRRxEqcXFdTGpRU2m+h8S6D4Evbzwd8ZNF0HSfGWpWvhz4SWfgW3vL/wpqGjtrWoWcepI4tYrmJGuFbzIirwGWNvMAV2rvPD37D/ibXvFkPjTT/jB8QvhvJrng7RNDvNH0LSdGZg9nHOS0z6jY3bbj9oK7UWLbtOdxI2/T1FEsRLp+j7eXkCorqfLH7Pngq18Jftc6P4d8N6f44m8PfC74dv4Um1fXvD95p8NzcfbIGjEdzLbwwXZZImZntdyDH8OQD51av4bkWRvjgv7XkfxJaeY6mvhj/hOv7FVfNfyhZ/8IznTfs/l7PL/AOXjZt+0fvvMr7sop/WNb6/J2f32/rQXsdP+BoeN/sN+FPC/g34MXFr4NvPiPceH5tXvLu3h8aaNfaVfWJlk8x4Y4r62t7gwBmJVpFcsWYmRzk17JRRWE5c0rmsY2VgoooqSgooooAKKKKACiiigAooooA8o/ae/Yg+F/wC2V/Yf/CyfDH/CSf8ACN+f/Z3/ABMbuz+z+f5fm/8AHvLHu3eTH97ONvGMnPx5+xV/wR0+EfjL/hbX/CxPhXq0P9k/EnWNO8M/br/VLDfokfk/ZGixMnnRHMm2Y7i/Pztjj9GqK6KeKqwg4Rk7er0MZ4enKXNJL7gooornNgr0XwJ/yKtr/wAD/wDQ2rzqvR/BMTQ+F7RWGDhm/AsSP519Bw3/ALzJ/wB1/mjx87/gL1/RmN8U/wDlx/7af+y1yNdh8UomMVk+PlUupPuduP5GuPr9UwP8BfP8zqyn/dY/P82FeI/Hnx5rtj8adDH2bxnp/gPwLaN4k8QXujaTe30utzPvgtdOhhtI5J7kKTJPMkaNjy4ARhzXt1Fdclc9CUbqx+dtn8ZNP0j4beDfh1J4c+MN94Vs/iFca/eXEPwb8YlbPR4b2bUbK2KSaSrNIZ/s8ZChgFVju6V9AfGv4eeLP2gvi98KfF/geTVtH8L6ppt9pfiK9uYbnRNY0vT5pLW6BjgnWK5hmla08g7kWSMTFsAqDX0lRWap6WZjGi7Wk+34fM8c+J2jaj8ZP2gPBGmWOm6xZ6J8OdWbX9V1W5tWgtrqf7HLDBaW7SAGcn7SZHliBjTythfeSq5n7eXwwk8X/CyTWYfDo8dXWgvDLaeH9RtJNT0aGQzJu1KfTISkmpParmZLbeWZol8rZKVce7UVbjdNdzSVNNNPqfCWufG/xd+2B8N/FHwl1f4d+JPGPiC7ht7rQPFv/Csdc8C6LptxvbZeOmtAtbz2MqxSq1vcTzSblaKMFJAn3Pp0Elrp9vHNJ500caq8hGPMYDBb8TzU1FKMbasKdNx1buwoooqzQKKKKACiiigAooooAKKKKACvzl/bV/4I6fCPwb/wqX/hXfwr1ab+1viTo+neJvsN/ql/s0STzvtbS5mfyYhiPdMNpTj51zz+jVFRUpqaszKtRjUVpI8o/Zh/Yg+F/wCxr/bn/CtvDH/CN/8ACSeR/aP/ABMbu8+0eR5nlf8AHxLJt2+dJ93Gd3OcDHq9FFVGKSsi4xUVaKsgrX8Cf8jVa/8AA/8A0BqyK2fAMTSeKLdlHEYdm9htI/qKyxH8KXozDGf7vP0f5HodeR165XkssTQSsjDDISpHoRX5fxN/y7fr+h4mRfb+X6jaKKK+VPoDyv4t/tRt8P8AxNdeHPD/AMO/id8QPFVvALhbHR9Be0sZEIzn+1b822mZGRmNboy8nEbYIGP8A/2e9ZvZ/Gfiz4sWvh3UPFfxJghsdT0SzLX2j6TpkKyLDpqtMi/aQPOmaWVo0EjythFUKK9sorT2lo2iv6/r/hyOS7uzxj4k/tC+KtP8UXPgz4Y/CzxF4l1nT9ltLq2rQnw/4V0csgZC91MBNdoE7adBdAMNjtCTkbP7Lf7PE/wD8KapLrWvS+LvG/i2/bWPE2vSW4txqF2yqgWGEE+TbQxqkUMW5ikaLuZ3LO3p1FDqe7ypf8EOTXmZ5X8W/wBqNvh/4muvDnh/4d/E74geKreAXC2Oj6C9pYyIRnP9q35ttMyMjMa3Rl5OI2wQMf4B/s96zez+M/FnxYtfDuoeK/iTBDY6nolmWvtH0nTIVkWHTVaZF+0gedM0srRoJHlbCKoUV7ZRR7S0bRX9f1/w4cl3dnjHxJ/aF8Vaf4oufBnwx+FniLxLrOn7LaXVtWhPh/wro5ZAyF7qYCa7QJ206C6AYbHaEnI2f2W/2eJ/gH4U1SXWtel8XeN/Ft+2seJtektxbjULtlVAsMIJ8m2hjVIoYtzFI0XczuWdvTqKHU93lS/4IcmvMwooorMsKKKKACiiigAooooAK8o/ae/Yg+F/7ZX9h/8ACyfDH/CSf8I35/8AZ3/Exu7P7P5/l+b/AMe8se7d5Mf3s428Yyc+r0VUZyi+aLsyZRUlaSuj85f2Kv8Agjp8I/GX/C2v+FifCvVof7J+JOsad4Z+3X+qWG/RI/J+yNFiZPOiOZNsx3F+fnbHH6NUUVpXxE6srzZFKjGmrRQUUUVianovgT/kVbX/AIH/AOhtWvWV4JiaHwvaKwwcM34FiR/OtWv0rA6Yamv7q/JHw+K/jz9X+YUUUV1HOFFFFABRRRQAUUUUAFFFFABRRRQAUUUUAFFFFABRRRQAUUUUAFFFFABRRRQAUUUUAFFFFABRRRQAUUUUAFFFFABRRRQAUUUUAFFFFABRRRQAUUUUAFFFFABRRRQAUUUUAFFFFABRRRQAUUUUAFFFFABRRRQAUUUUAFFFFABRRRQAUUUUAFFFFABRRRQAUUUUAFFFFABRRRQAUUUUAFFFFABRRRQAUUUUAFFFFABRRRQAUUUUAFFFFABRRRQAUUUUAFFFFABRRRQAUUUUAFFFFABRRRQAUUUUAFFFFABRRRQAUUUUAFFFFABRRRQAUUUUAFFFFABRRRQAUUUUAFFFFABRRRQAVU1vRLfxDpslrdR+ZDJ+ansQexFW6R3WNCzEKqjJJPAFVGTi047geez/AACjaVvL1R0j7BrfcR+O4fypn/CgP+ot/wCSv/2ddZN8QtHgkKteqSv91GYfmBim/wDCyNF/5/P/ACC//wATXtLHZnbS/wD4Cv8AIw5qPdfecr/woD/qLf8Akr/9nR/woD/qLf8Akr/9nXVf8LI0X/n8/wDIL/8AxNH/AAsjRf8An8/8gv8A/E0fXsz8/wDwFf5C5qPdfecr/wAKA/6i3/kr/wDZ0f8ACgP+ot/5K/8A2ddV/wALI0X/AJ/P/IL/APxNH/CyNF/5/P8AyC//AMTR9ezPz/8AAV/kHNR7r7zlf+FAf9Rb/wAlf/s6P+FAf9Rb/wAlf/s66r/hZGi/8/n/AJBf/wCJo/4WRov/AD+f+QX/APiaPr2Z+f8A4Cv8g5qPdfecr/woD/qLf+Sv/wBnR/woD/qLf+Sv/wBnXVf8LI0X/n8/8gv/APE0f8LI0X/n8/8AIL//ABNH17M/P/wFf5BzUe6+85X/AIUB/wBRb/yV/wDs6P8AhQH/AFFv/JX/AOzrqv8AhZGi/wDP5/5Bf/4mj/hZGi/8/n/kF/8A4mj69mfn/wCAr/IOaj3X3nK/8KA/6i3/AJK//Z0f8KA/6i3/AJK//Z11X/CyNF/5/P8AyC//AMTR/wALI0X/AJ/P/IL/APxNH17M/P8A8BX+Qc1HuvvOV/4UB/1Fv/JX/wCzo/4UB/1Fv/JX/wCzrqv+FkaL/wA/n/kF/wD4mj/hZGi/8/n/AJBf/wCJo+vZn5/+Ar/IOaj3X3nnsnws8uRl+3fdOP8AU/8A2VN/4Vf/ANP3/kH/AOyrobvxTp73UjLcZVnJB2NyM/So/wDhJrH/AJ7/APjjf4UfXsz8/wDwFf5BzUe6+8wv+FX/APT9/wCQf/sqP+FX/wDT9/5B/wDsq3f+Emsf+e//AI43+FH/AAk1j/z3/wDHG/wo+vZn5/8AgK/yDmo9195hf8Kv/wCn7/yD/wDZUf8ACr/+n7/yD/8AZVu/8JNY/wDPf/xxv8KP+Emsf+e//jjf4UfXsz8//AV/kHNR7r7zC/4Vf/0/f+Qf/sqB8L/+n7/yD/8AZVu/8JNY/wDPf/xxv8KP+Emsf+e//jjf4UfXsz8//AV/kHNR7r7xNA8N2/h+JhHuaR/vO3U+3sK0KZb3Md1FvjZXU9wafXj1qk5zcqm/mbxtbQp32jR3km8N5bHrgcGq/wDwjf8A02/8c/8Ar1oXF5Ha/wCscL7VD/bVt/z0/wDHT/hXh4jCZc6jdblUuvvW/C6PUo4jGqCVO9vS/wChV/4Rv/pt/wCOf/Xo/wCEb/6bf+Of/Xq1/bVt/wA9P/HT/hR/bVt/z0/8dP8AhXP9TynvH/wL/gmv1rMez/8AAf8AgFX/AIRv/pt/45/9ej/hG/8Apt/45/8AXq1/bVt/z0/8dP8AhR/bVt/z0/8AHT/hR9TynvH/AMC/4IfWsx7P/wAB/wCAVf8AhG/+m3/jn/16P+Eb/wCm3/jn/wBerX9tW3/PT/x0/wCFH9tW3/PT/wAdP+FH1PKe8f8AwL/gh9azHs//AAH/AIBDa+FPtNzHH9o2+YwXOzp+ta3/AAqz/p+/8gf/AGVU7TXrWG6jcy8K4J+U+v0ro/8AhO9J/wCfr/yE/wDhR9TynvH/AMC/4IfWsx7P/wAB/wCAZH/CrP8Ap+/8gf8A2VH/AAqz/p+/8gf/AGVa/wDwnek/8/X/AJCf/Cj/AITvSf8An6/8hP8A4UfU8p7x/wDAv+CH1rMez/8AAf8AgGR/wqz/AKfv/IH/ANlR/wAKs/6fv/IH/wBlWv8A8J3pP/P1/wCQn/wo/wCE70n/AJ+v/IT/AOFH1PKe8f8AwL/gh9azHs//AAH/AIBkf8Ks/wCn7/yB/wDZUf8ACrP+n7/yB/8AZVr/APCd6T/z9f8AkJ/8KP8AhO9J/wCfr/yE/wDhR9TynvH/AMC/4IfWsx7P/wAB/wCAZH/CrP8Ap+/8gf8A2VH/AAqz/p+/8gf/AGVa/wDwnek/8/X/AJCf/Cj/AITvSf8An6/8hP8A4UfU8p7x/wDAv+CH1rMez/8AAf8AgGR/wqz/AKfv/IH/ANlR/wAKs/6fv/IH/wBlWv8A8J3pP/P1/wCQn/wo/wCE70n/AJ+v/IT/AOFH1PKe8f8AwL/gh9azHs//AAH/AIBkf8Ks/wCn7/yB/wDZUf8ACrP+n7/yB/8AZVr/APCd6T/z9f8AkJ/8KP8AhO9J/wCfr/yE/wDhR9TynvH/AMC/4IfWsx7P/wAB/wCAZH/CrP8Ap+/8gf8A2VH/AAqz/p+/8gf/AGVa/wDwnek/8/X/AJCf/Cj/AITvSf8An6/8hP8A4UfU8p7x/wDAv+CH1rMez/8AAf8AgFDT/hlBbzq09w1wqnOwJsB+vJrpVUIoVQFVRgADpVCw8VafqUwjhukaRuApBXP0yBWhXqYKjhqcX9Wtbyd/x1OHFVa85fv7381Yg1LTYdWs2gnXdG35g+ormpfhapc7L1lXsGi3H88iusor0qeIqU9IMKGMrUVanK39eZyP/CrP+n7/AMgf/ZUf8Ks/6fv/ACB/9lXXUVr9er/zfgv8jf8AtbF/zfgv8jkf+FWf9P3/AJA/+yo/4VZ/0/f+QP8A7Kuuoo+vV/5vwX+Qf2ti/wCb8F/kcj/wqz/p+/8AIH/2VH/CrP8Ap+/8gf8A2VddRR9er/zfgv8AIP7Wxf8AN+C/yOR/4VZ/0/f+QP8A7Kj/AIVZ/wBP3/kD/wCyrrqKPr1f+b8F/kH9rYv+b8F/kcj/AMKs/wCn7/yB/wDZUf8ACrP+n7/yB/8AZV11FH16v/N+C/yD+1sX/N+C/wAjkf8AhVn/AE/f+QP/ALKj/hVn/T9/5A/+yrrqKPr1f+b8F/kH9rYv+b8F/kcj/wAKs/6fv/IH/wBlR/wqz/p+/wDIH/2VddRR9er/AM34L/IP7Wxf834L/I5H/hVn/T9/5A/+yo/4VZ/0/f8AkD/7Kuuoo+vV/wCb8F/kH9rYv+b8F/kcj/wqz/p+/wDIH/2VH/CrP+n7/wAgf/ZV11FH16v/ADfgv8g/tbF/zfgv8jkf+FWf9P3/AJA/+yo/4VZ/0/f+QP8A7Kuuoo+vV/5vwX+Qf2ti/wCb8F/kcj/wqz/p+/8AIH/2VH/CrP8Ap+/8gf8A2VddRR9er/zfgv8AIP7Wxf8AN+C/yORHws/6fv8AyD/9lW74f8M2/h2FhFueR/vSN1Pt7CtGioqYqrNcsnoZVsfXqx5aktPkvyCsPxB4Ft9buDMsjW8zfeIXKt7ketblFcOIw9OtHkqq6MKNadKXNTdmcj/wqz/p+/8AIH/2VH/CrP8Ap+/8gf8A2VddRXB/YmC/k/F/5nX/AGpiv5vwX+RyP/CrP+n7/wAgf/ZUf8Ks/wCn7/yB/wDZV11FH9iYL+T8X/mH9qYr+b8F/kcj/wAKs/6fv/IH/wBlR/wqz/p+/wDIH/2VddRR/YmC/k/F/wCYf2piv5vwX+RyP/CrP+n7/wAgf/ZUf8Ks/wCn7/yB/wDZV11FH9iYL+T8X/mH9qYr+b8F/kcj/wAKs/6fv/IH/wBlR/wqz/p+/wDIH/2VddRR/YmC/k/F/wCYf2piv5vwX+RyP/CrP+n7/wAgf/ZUf8Ks/wCn7/yB/wDZV11FH9iYL+T8X/mH9qYr+b8F/kcj/wAKs/6fv/IH/wBlR/wqz/p+/wDIH/2VddRR/YmC/k/F/wCYf2piv5vwX+RyP/CrP+n7/wAgf/ZUf8Ks/wCn7/yB/wDZV11FH9iYL+T8X/mH9qYr+b8F/kcj/wAKs/6fv/IH/wBlR/wqz/p+/wDIH/2VddRR/YmC/k/F/wCYf2piv5vwX+RyP/CrP+n7/wAgf/ZUf8Ks/wCn7/yB/wDZV11FH9iYL+T8X/mH9qYr+b8F/kcj/wAKs/6fv/IH/wBlR/wqz/p+/wDIH/2VddRR/YmC/k/F/wCYf2piv5vwX+RyP/CrP+n7/wAgf/ZVY0/4ZQW86tPcNcKpzsCbAfrya6ainHJsHF3UPxf+YpZniWrOX4L/ACEVQihVAVVGAAOlLRRXqHAFFFFABRRRQAUUUUAFFFFABRRRQAUUUUAFFFFABRRRQAUUUUAFFFFABRRRQAUUUUAFFFFABRRRQAUUUUAFFFFABRRRQAUUUUAFFFFABRRRQAUUUUAFFFFABRRRQAUUUUAFFFFABRRRQAUUUUAFFFFABRRRQAUUUUAFFFFABRRRQAUUUUAFFFFABRRRQAUUUUAFFFFABRRRQAUUUUAFFFFABRRRQAUUUUAFFFFABRRRQAUUUUAFFFFABRRRQAUUUUAFFFFABRRRQAUUUUAFFFFABRRRQAUUUUAFFFFABRRRQAUUUUAFFFFABRRRQAUUUUAFFFFABRRRQAUUUUAFFFFABRRRQAUUUUAFch8XdTktdOtbZGKrcsxfHcLjj9f0rr64f4y/8w3/ALa/+yV3ZZFPExT8/wAmc+KbVJ2OHooor7I8MKK+W/25dL8R6/4wWw0v40fEv4a6Dc6aV1S88NJodxZ+GpF3yxXF4k9jJfRxzrFMgmS5SMPEi7fnYn5l0j49fFDxP480fW5PGn7Zdvok2vXXhHTUitvhwlzqk0skRhll06eC3ureRYo3meG4sHmihbzN0a+YG554hRdrM0jTur3P0+or5p/bVh+MXwy/ZzvX8F/E7w7FNDo66QJ/EPhJ77XtZ1KdhbwyRXNlfWNvBM8kiAbLQqr/ADAY+UcL8Nv2nPE3inxJpngrQ/2wf2QfEHiokWEOl2/hea+1S5mjUhk8tfFBkklGxi3y5yGJHWqlWtLla/L/ADBU7q9/zPtCivgH/grT8RPFmmab4f8ACM3iXxtBZ6rYQWuuHQtB1Gy0q9vZJ0Fsbe4i8Ka+VuGmX5I0vI5YyIsB2YPXzjpvxS/aN8a+LbDxB4nvvjhJrHg/Ub1fD80nhjVYxbwSqIvNCL8M5kd2jyvmuEfDN+7i3MDlUxkYy5bFRotq5+xlFeY63+0Zovwt+BnhvxFq3/CVatca5Ha2em2B0WaPXtbvJUykIsmggeOZtrM4kigSJVd5BDGjFafwi8KfEbxl46Txt4+v/wDhGII4JINK8E6VeC4tbKN8Zm1C4Cj7VdkBfkjxBAdyo0x/fN0c6vZGfL1Z61RRRVkhRRRQAUUUUAFFFFABRRRQAUV4r+2h+0drn7Of/Cp/7EtdKuv+E7+I+j+EL/7dFJJ5Npd+d5jxbHTEo8tdpbcoycqe3tVSpJtrsPl0uFFFFUI1PCd00OqLGD8swII+gzXUVyXhn/kOQf8AAv8A0E11tfK51FKumuqX5s9jAtun8zmridrmZnbqxplFFfi8pOTcpbs/SoxUVZBRVbWdZs/DmkXWoahdW1hYWMTXFzc3EqxQ28agszu7EBVABJJIAAr5E8OfFX4kftZ/tKXPiD4Z/E7wT4H8N6XorQaJ4e8TaFdavdeJrWSZd+u/YYdSsZI7ZnjEVvLKrh0EjrtEgLXTpOV3sl1JnU5dOp9iUV8f/snfCbxcf25PiZe+K/EnhfXJvCv2OcXvhbw9caFbm+v7XF5aSxXF9e71MNvp1wdrp+82N3cN7P4Mb4t/D34oW+j64NJ+IXgfU3l8jxDAI9L1rQSAWRL23yILyNsFfPtvJZSY1Nsw3zK50UnZNbX7BGo2rtdT1misKX4l6EnxIj8H/wBpwf8ACTTac+rLYLlpRarIsRmPGFXewUbiCxDYB2tjxb4ofA7xJ8OvC2veKta/an+M+g6Bo8E2o3bnTPB/kWMCAu2C+hMxVVGBksxwOSesxp3dm7ff+iZUpW21+4+hqK8d/YSt/iC37O2nah8Stf1zX/EGtXNxqNudYtLG2v7CxkkJtLedbOCCEzLDsLlY1+dmHYV7FUzjyycQjK6uFFFFSUFFFFABRRRQAUUUUAFFFFABRRXif7FX7SWuftH/APC2v7ctdJtf+ED+JOseDtP+wxSR+daWfk+U8u933THzG3FdqnAwo71GDcXJdCXJJpdz2yiiipKAHacivTPCt++peH7WaQ7pGUhie+CRn9K8zr0XwJ/yKtr/AMD/APQ2r6HhuT+sSj05f1R4udxXsYvrf9Ga9FFFfZnzIUUUUAFFFFABRRRQAUUUUAFFFFABRRRQAUUUUAFFFFABRRRQAUUUUAFFFFABRRRQAUUUUAFFFFABRRRQAUUUUAFFFFABRRRQAUUUUAFFFFABRRRQAUUUUAFFFFABRRRQAUUUUAFFFFABRRRQAUUUUAFFFFABRRRQAUUUUAFFFFABRRRQAUUUUAFFFFABRRRQAUUUUAFFFFABRRRQAUUUUAFFFFABRRRQAUUUUAFFFFABRRRQAUUUUAFFFFABRRRQAUUUUAFFFFABRRRQAUUUUAFFFFABRRRQAUUUUAFFFFABRRRQAUUUUAFFFFABRRRQAUUUUAFFFFABRRRQAUUUUAFFFFABRRRQAUUUUAFFFFABRRRQAUUUUAFFFFABRRRQAUUUUAFFFFABRRRQAUUUUAFFFFABRRRQAUUUUAFFFFABRRRQAUUUUAFFFFABRRRQAUUUUAFFFFABRRRQAUUUUAFFFFABRRRQAUUUUAFFFFABXD/GX/mG/wDbX/2Su4rifjJCzQ6fJj5VaRSfQnbj+Rr0Mr/3qPz/ACZzYz+E/wCupwtFFFfYHiHi/wAbfDereLPjRap4Y02+0HWbHw1epeeM4LINcWcEwIgtLQyq8E8/2iMTFZopo4lj5QNMpr86dO8F+PLKJfiNYa149tvjxfWMYn1FfgJ8QzrBnZQr2Zvrm+k0nyFZmIR7RtPR/wB4tsoAx+v1Fc9TDqbv/X5rU1jU5Ty742fAjw78TPgda6X478J3Hxoi8OomoLpGpQWLya/dxRMqmSCQ29g8jbmIWURwq5DYQqpXzL4s618QP2nvhFqnw10/4AeIPA9nrlmLBtU8aapoS6XpEHyr5sMWmX17PJcRDDwxeXEhaMZniwDX09RWkqaf9IhSsfD/APwWF+A2p/ET9mTUrrXriPWPDvha40ZdD0WO0N5JqN+99bxSXd3H9juxKwV2jjgW0uV+d3aKdmSJPz7+KH7OX9g/D7Vr7/hVf9m/ZLdpftX/AAqz7F9n287/AD/+FYWPlY67/tltt6+dH98fvJRXPWwanLmvY1p1uVWsch8Rfg54b+O3w0j8P+KdMXUtNlWKZMSyW9xaTIMx3FvPGyy286HlJomWRDyrA81574L1D4lfs/8AxF0vwv4gGp/EzwDrUwtNL8TxW6/214ffblYdVRAFuITghb2JUK/Ks0ZObhvcaK6XDW63MlLoFFFFWSFFFFABRRRQAUUUUAFFFFAH51/tof8ABH34S+Dv+FT/APCvfhbq039q/EfR9O8S/Yb7VL7Zoknnfa2lzM/kxDEe6YbSnHzrnn6//Zl/Yl+GP7HX9t/8K48M/wDCO/8ACReR/aP/ABMbu8+0eR5nlf6+WTbt86T7uM7uc4GPVaKxhh6cZc0UvuNJVJNWbCiiitjMv+Gf+Q5B/wAC/wDQTXW1yfhdC2tREfwhifbgj+tdZXy+dfx16fqz1sB/Dfr/AJHL0UrKUYqeqnBpK/E9tD9OKPiXwxpvjPRZtN1jTrHVtOudvnWt5brPDLtYMu5GBU4YAjI4IB7V80ftdeGbf9r+4ufBekfBFfFmqaLdtDB4z8Y2D6LpfhS6wu66sbgmPU5bhF2PFNpyrGzKF+2QspZfqWitKdRwd0ROHMrHmn7Kn7NGlfsmfB228M2Op654ivWke+1fXdZu5b7VNdvXx5lzPNIzySMcKqhmYqiIgJCiuS1b9qjxt8Sp7jTfhX8J/Ft5IXNuniXxtav4W0GzkGd++3uduqzbRgr5Vl5MpIUXCDc6e8UUe0u3KSuw5LJRjojyL4R/Bu2/Zd8K+KPFniDVtf8AHXjPxAy6h4j1uLTZbi71Bo12xW1pZQBzFbQqSsVvEGIBZ3aSR5ZX5LxZ+zr4g/bdWf8A4W1a6h4V+HyhX0nwZp+qvb6m9wpJS+1G9tJBtmjbY0NvbSmOJ08xpZn8tYPoqimq0k+Zb9/8u39WF7NW5en9bnjPwD1r4g/DbxzJ8OfHUWpeLbKC0e80Dx1HbALqVujqptdRVAFhvow64cAR3KguoRldB7NRRUSlzO5UY2VgoooqSgooooAKKKKACiiigAooooA8o/ae/Yg+F/7ZX9h/8LJ8Mf8ACSf8I35/9nf8TG7s/s/n+X5v/HvLHu3eTH97ONvGMnPx5+xV/wAEdPhH4y/4W1/wsT4V6tD/AGT8SdY07wz9uv8AVLDfokfk/ZGixMnnRHMm2Y7i/Pztjj9GqK6KeKqwg4Rk7er0MZ4enKXNJL7gooornNgr0XwJ/wAira/8D/8AQ2rzqvR/BMTQ+F7RWGDhm/AsSP519Bw3/vMn/df5o8fO/wCAvX9GatFFFfaHy4UUUUAFFFFABRRRQAUUUUAFFFFABRRRQAUUUUAFFFFABRRRQAUUUUAFFFFABRRRQAUUUUAFFFFABRRRQAUUUUAFFFFABRRRQAUUUUAFFFFABRRRQAUUUUAFFFFABRRRQAUUUUAFFFFABRRRQAUUUUAFFFFABRRRQAUUUUAFFFFABRRRQAUUUUAFFFFABRRRQAUUUUAFFFFABRRRQAUUUUAFFFFABRRRQAUUUUAFFFFABRRRQAUUUUAFFFFABRRRQAUUUUAFFFFABRRRQAUUUUAFFFFABRRRQAUUUUAFFFFABRRRQAUUUUAFFFFABRRRQAUUUUAFFFFABRRRQAUUUUAFFFFABRRRQAUUUUAFFFFABRRRQAUUUUAFFFFABRRRQAUUUUAFFFFABRRRQAUUUUAFFFFABRRRQAUUUUAFFFFABRRRQAUUUUAFFFFABRRRQAUUUUAFFFFABRRRQAUUUUAFFFFABRRRQAUUUUAFFFFABVfVdKg1qxe3uE3xv+YPqPerFFVGTi7rcGrqzOJm+DaNIfL1BlXsGh3EfjuH8qb/AMKa/wCol/5L/wD2VdxRXd/amK/m/Bf5HN9TpdvzOH/4U1/1Ev8AyX/+yo/4U1/1Ev8AyX/+yruKKP7UxX834L/IPqdLt+Zw/wDwpr/qJf8Akv8A/ZUf8Ka/6iX/AJL/AP2VdxRR/amK/m/Bf5B9TpdvzOH/AOFNf9RL/wAl/wD7Kj/hTX/US/8AJf8A+yruKKP7UxX834L/ACD6nS7fmcP/AMKa/wCol/5L/wD2VH/Cmv8AqJf+S/8A9lXcUUf2piv5vwX+QfU6Xb8zh/8AhTX/AFEv/Jf/AOyo/wCFNf8AUS/8l/8A7Ku4oo/tTFfzfgv8g+p0u35nD/8ACmv+ol/5L/8A2VH/AApr/qJf+S//ANlXcUUf2piv5vwX+QfU6Xb8zh/+FNf9RL/yX/8AsqP+FNf9RL/yX/8Asq7iij+1MV/N+C/yD6nS7fmcP/wpr/qJf+S//wBlWXffD1rC5aNrr7p4PldR+demVT1jSl1KD0kX7po/tTFfzfgv8g+p0u35nnP/AAhP/T1/5D/+vR/whP8A09f+Q/8A69dBNC0EhVlKsvUGm0f2piv5vwX+QfU6Xb8zB/4Qn/p6/wDIf/16P+EJ/wCnr/yH/wDXreoo/tTFfzfgv8g+p0u35mD/AMIT/wBPX/kP/wCvR/whP/T1/wCQ/wD69b1FH9qYr+b8F/kH1Ol2/MqaVo8WkxnZlmb7zHqat0UVxVKkpy5pu7N4xUVZFO+0aO8k3hvLY9cDg1X/AOEb/wCm3/jn/wBetSivLq5ThKknOcNX5tfkzvp5jiIR5Yy0+Rl/8I3/ANNv/HP/AK9H/CN/9Nv/ABz/AOvWpRWf9iYL+T8X/mX/AGpiv5vwX+Rl/wDCN/8ATb/xz/69H/CN/wDTb/xz/wCvWpRR/YmC/k/F/wCYf2piv5vwX+Rl/wDCN/8ATb/xz/69WNN8EvqU+1Ztqj7zbOn61rabpEupP8o2x92PSuksrKOwhCRj6n1o/sTBfyfi/wDMP7UxX834L/I5f/hVn/T9/wCQP/sqP+FWf9P3/kD/AOyrrqKP7EwX8n4v/MP7UxX834L/ACOR/wCFWf8AT9/5A/8AsqP+FWf9P3/kD/7Kuuoo/sTBfyfi/wDMP7UxX834L/I5H/hVn/T9/wCQP/sqP+FWf9P3/kD/AOyrrqKP7EwX8n4v/MP7UxX834L/ACOR/wCFWf8AT9/5A/8AsqP+FWf9P3/kD/7Kuuoo/sTBfyfi/wDMP7UxX834L/I5H/hVn/T9/wCQP/sqP+FWf9P3/kD/AOyrrqKP7EwX8n4v/MP7UxX834L/ACOR/wCFWf8AT9/5A/8AsqP+FWf9P3/kD/7Kuuoo/sTBfyfi/wDMP7UxX834L/I5H/hVn/T9/wCQP/sqP+FWf9P3/kD/AOyrrqKP7EwX8n4v/MP7UxX834L/ACOR/wCFWf8AT9/5A/8AsqP+FWf9P3/kD/7Kuuoo/sTBfyfi/wDMP7UxX834L/I5nT/hlBbzq09w1wqnOwJsB+vJrpVUIoVQFVRgADpS0V2YfB0cOrUY2v8A11OatiatZ3qO4UUUV0mAUUUUAFFFFABRRRQAUUUUAFFFFABRRRQAUUUUAFFFFABRRRQAUUUUAFFFFABRRRQAUUUUAFFFFABRRRQAUUUUAFFFFABRRRQAUUUUAFFFFABRRRQAUUUUAFFFFABRRRQAUUUUAFFFFABRRRQAUUUUAFFFFABRRRQAUUUUAFFFFABRRRQAUUUUAFFFFABRRRQAUUUUAFFFFABRRRQAUUUUAFFFFABRRRQAUUUUAFFFFABRRRQAUUUUAFFFFABRRRQAUUUUAFFFFABRRRQAUUUUAFFFFABRRRQAUUUUAFFFFABRRRQAUUUUAFFFFABRRRQAUUUUAFFFFABRRRQAUUUUAFFFFABRRRQAUUUUAFFFFABRRRQAUUUUAFFFFABRRRQAUUUUAFFFFABRRRQAUUUUAFFFFABRRRQAUUUUAFFFFABRRRQAUUUUAFFFFABRRRQAUUUUAFFFFABRRRQAUUUUAFFFFABRRRQAUUUUAFFFFABRRRQAUUUUAFFFFABRRRQAUUUUAFFFFABRRRQAUUUUAFFFFABRRRQBV1LSo9ST5vlYdGHWsG/0WexPK7k/vLXUUUAcXRXV3GkW9196Nc+o4qq/ha3J+VpF/GgDnqK6BfCluOsk35j/AAqRfDNqv8MjfVqAOborqF0CzX/lj+bH/GpF0m1T/lhH+K5oA5OgDJrsFs4U+7FGv0UVIF2jgYoA49bWV/uxyN9FNSLpVy//ACwl/FcV1lFAHNweG7qY8qsY9WNaFl4YigO6RvMb07VqUUAIiCNdqjaB0ApaKKACiiigAooooAKKKKACiiigAooooAKKKKACiiigAooooAKKKKACiiigAooooAKKKKACiiigAooooAKKKKACiiigAooooAKKKKACiiigAooooAKKKKACiiigAooooAKKKKACiiigAooooAKKKKACiiigAooooAKKKKACiiigAooooAKKKKACiiigAooooAKKKKACiiigAooooAKKKKACiiigAooooAKKKKACiiigAooooAKKKKACiiigAooooAKKKKACiiigAooooAKKKKACiiigAooooAKKKKACiiigAooooAKKKKACiiigAooooAKKKKACiiigAooooAKKKKACiiigAooooAKKKKACiiigAooooAKKKKACiiigAooooAKKKKACiiigAooooAKKKKACiiigAooooAKKKKACiiigAooooAKKKKACiiigAooooAKKKKACiiigAooooAKKKKACiiigAooooAKKKKACiiigAooooAKKKCcCgAorK1LxTHbErCPNf1/hH+NLofiD+0pTHIqq+Mrj+KgDUooooAKKKKACiiigAooooAKKKKACiiigAooooAKKKKACiiigAooooAKKKKACiiigAooooAKKKKACiiigAooooAKKKKACiiigAooooAKKKKACiiigAooooAKKKKACiiigAooooAKKKKACiiigAooooAKKKKACiiigAooooAKKKKACiiigAooooAKKKKACiiigAooooAKKKKACiiigAooooAKKKKACiiigAooooAKKKKACiiigAooooAKKKKACiiigAooooAKKKKACiiigAooooAKKKKACiiigAooooAKKKKACiiigAooooAKKKKACiiigAooooAKKKKACiiigAooooAKKKKACiiigAooooAKKKKACiiigAooooAKKKKACiiigAooooAKKKKACiiigAooooAKKKKACiiigAooooAKKKKACiiigAooooAKKKKACiiigAooooAKKKKACiiigAooooAKKKKACiiigAooooAKKKKACiiigAooooAKKKKACiiigAooooAKKKKACiiigAooooAKKKKACiiigAooooAKKKKACiiigAooooAKKKKACiiigAooooAKKKKACiiigAooooAKKKKACiiigAooooAKKKKACiiigAooooAKju4mntpEU7WZSAfSpKKAOJkjaGRlYbWU4I9KdaSPFdRtH99WGK6HVfDa6hceYr+Wzfe4yDU+naJBpoyq7pP77daALg6UUUUAFFFFABRRRQAUUUUAFFFFABRRRQAUUUUAFFFFABRRRQAUUUUAFFFFABRRRQAUUUUAFFFFABRRRQAUUUUAFFFFABRRRQAUUUUAFFFFABRRRQAUUUUAFFFFABRXkv7XX7Rfib9mnwVY654f+FXjD4qW5udup23hx4GvNOtwpJlSB2Elw2cARxg9yWXAzzn7K3/BTT4O/tf6nJo/hnxN/Zvi+2JS68La9A2l61auBlkNvLguV7mIuo9aAPfaK+fdL/wCChPh/xB8SfDmh2Gg641nq3izUPBGp3c6eVLoOq20bSRxzQgMfLuEUskm4DBUn72B6h8e/2gPCH7MHwv1Dxp461hdB8M6WY1ur5reWdYS7hEysSs5yzAcKetAHZUVT8OeIbPxb4esdV024W60/U7eO7tZlBCzRSKGRhnnlSDzzzVygAor5x/bi/wCCjWl/sD+I/DM3i/wL42vvAetMY9R8XaXbJdWOhSFgqLOit5mDkknA4ACCRiVHtfwm+L3hf47eAdP8U+Dtd03xJ4f1RPMtb6xmEsUg7jI6MDwVOGUgggEYoA6OiivKf20/2wPDP7Cn7PmrfEnxdY65qOh6PNbwTQaRDFNds08yxJtWWSNCAzgnLjjPXpQB6tRXxl+1N/wWF079n/Qf2f8AWNH8CX3iPS/j5PAlo15qq6bcaRFKbfa8iLFOsjAXAJUOBlcbjnI+zaACivm79o//AIK6fs8/skfFO68E/EL4hf8ACP8Aiaxiinnsv7C1K72JIu5D5kFu8ZypzgNkd8V8mfsm/wDByd8P/HPxS+I0Pxa1/wAM+C/CGm6gYvB01joOrXF5q1r5kgEs/lrMqny1jJBWMkueBgigD9RKK8l/ZN/bn+Fn7cmgavqnwt8Uf8JRY6DcJa30v9m3dl5EjqWVcXEUZbKgnKgiuCuf+CmXhzRv28tW+AOt6BqXhfxAmkDU9B1TWLmODT/EbbGcpEybyihVb5mGSY5BsBUBgD6Xor4n8J/8FeP7c/aW8EfDr7H8EfEH/CaQ38v9q+DPiv8A8JBBo32W3ab/AEsf2bD5avjAbJwAxwduC/wZ/wAFcv8AhIf2pvhn8NfsPwV8Tf8ACxru6tf7Q8B/FT/hJm0byLdpt1xD/Z0GA+3avzjPzHtggH2rRUGp6lb6NptxeXU0dva2sTTTSyHasSKCWYnsAATXyJ/wS6/4KP8Aij/gon4u+KWojwppWl/DfwrrDab4e1mGWQXGqjcSA6NlciPY7MpA/eKNvU0AfYVFFfKHxO/4Kr/8Ky+IeteHv+Gbf2r/ABB/Yt5JZ/2novw++16dfbGK+bBL9oHmRtjKtgZB6UAfV9Ffn38Qf+Diz4a/CXxdZeH/ABV8F/2lPDOvakEaz03VvCNrZXl0GbapjikvFd9zcDAOTx1r279nf/gpP/w0N8VdP8LD4B/tK+CBqCSONY8WeCP7N0m32IXxJP57bS2Nq8HLEDvQB9LUUV8X/wDBSH/gst4P/YsvF8E+EbI/Er4yak621j4Z0wtP9klfG37UY8spOQRCuZHyOFB3AA+0KK4/4BeOfEXxL+Dfh3XvFnhO58D+I9Us0nv9DnuUuZNOlI5QunB9ecEZwQCCK+Vf+Ckv/Baz4a/sZeGPHHhjQfFGk3Xxq8OQRGy8P6nompTWssr+W4V5Y0SIjynLcTLzgZzxQB9tUV+fP7Mv/BxT8APFHwF8L6h8UfiDpfhz4gXVmH1zTNO8NazJa2dxubKRsIJQRt2niR+vWvVvhD+038Xf2lr3QfE3g/RbH/hB7bxaqvcPavaWvi7wtd2glttRtnuQsqTQs6eZHhSWVlx6AH1hRXmvxD/bQ+Dvwi8V3Gg+LPix8NfC+uWgVp9O1bxPZWV3CGUMpaKSVXXKkEZHIINfIXxz/wCC4fh/4V/8FCfh34E0vxZ8H/EXwd8XWw/tPxNp+uR3c2i3B81cTTR3BgiQOITl1+6zemaAP0Horyrwl+3b8D/H3iWy0XQvjJ8Kta1jUpRBaWNh4tsLm5upD0SONJSzsewAJpfEP7a/wx8K/tQaT8GL/wATeR8Stcs/t9lo4067fzoNsjb/AD1iMC8RSHDSA/L05GQD1SiodS1O30XTri8vLiG0tLWNpp55nEccKKMszMeFUAEkngAVyPwM/aM8C/tMeFrrW/AHirR/Fuk2d5Jp813ps4miSeM/MuR9QQRwwIIJBBoA7SiiigAooqK+vodMsprm5mit7e3RpZZZXCJGijJZieAAASSelAEtFcqnx18ESfDGPxsvjLwq3gyVBImvjVrf+y3UvsDC53+UQX+XO7rx1rprO9h1GzhuLeWO4t7hBJFLGwZJFIyGUjggjkEdaAJKKxPGHxL8OfDy50mHxB4g0TQ5tevF07TE1C+itW1G6YErBCHYGSUgEhFyxweKfrfxB0Hwz4j0nR9S1zR9P1fXjIumWNzeRxXOolAC4hjYhpNoIJ2g4BGaANiiiigAooooAKKKKACiiigAooooAKKKKACiiigAooooAKKKKACiiigAooooAKKKKACiiigAooooAKKKKACiiigAooooAKKKKACiiigAooooAKKKKACiiigAooooAKKKKACiiigAooooAKKKKACiiigAooooAKKKKACiiigAooooAKKKKACiiigAooooAKKKKACiiigAooooAKKKKACiiigAooooAKKKKACiiigAooooAKKKKACiiigAooooAKKKKACiiigAooooAKKKKACiiigAooooAKKKKACiiigAooooAKKKKACiiigAooooAKKKKACiiigAooooAKKKKACiiigAooooAKKKKACiiigAooooAKKKKACiiigAooooAKKKKACiiigAooooAKKKKACiiigAooooAKKKKACiiigAooooAKKKKACiiigAooooAKKKKACiiigAooooAKKKKACiiigAooooAKKKKACiiigAooooAKKKKACiiigAooooAKKKKACiiigAooooA+W/2sP+GtvAfxYm8UfCB/hf468ELbRI/gzWYpNP1Lcv32guwwRpHz1kZUUADYTknC/Z3+IHw3/4KDfFyG7+IvwB1vwT8ZfhW8N8yeJdCLNYsSwje31BVCXEW4MUD4yV3qh27h6Z+1x/wUU+HH7Fut6To/i1vFN74g1+3e60vSdE0C61G51BEYK2xkTytwJA2s4I3A9CDXzl41/av/aw/bqt5NB+Cvwh1X4G+F9QzFceN/iIFtNSgiPU29gNzq+M7XxKp9UOGAB1vxn/AOClNj8NP+Ci3hX4FfCXwHovjfxV4nujd+Ori1lFmdJXYgWaaZEYPJHENzhwTtEaAgsMM/4LBfBL47fHv4B/ELQfCuo/C23+Fz+GXu7y3v7G9m8QXFxb7p2SJ1cQKp8uPaxUkHORjmvRv+Cd/wDwTL8Gf8E+/CuoS2N1d+LPH3iRjN4h8W6mN19qkhO5lGSxji3ZbbuJJ5ZmOCPojWtJh17RruxuFD297C8EqkcMrKVI/I0AfmF/wTs8I/Gb42/8E+PCHxE1X9rjVvBvw/0vRXhm03TvBmlxSaNBZF4XV76UO7lVizuKg+1av/BCTXvir+0F8Vvif8UNc+JHxJ8U/CT7Q+h+ErfxPfmZtSKS7mu/KCrHGVUBf3arzIynOysX/gj7+z74Z/aQ/Yl+N/7Nvj6DUJNH8D+P73T5YLW8ktZli8wPGQynOPMic4OVPcGv0w+Gfw10H4OeANJ8LeGNLtdF8P6FbJZ2NlbLtjt4lGAB/Mk8kkk5JoA0tZ0Wz8R6RdafqFpbX1jexNBcW1xEJYZ42GGR1YEMpBIIIwRXzf8Aszf8Eu/B/wCx5+0t4g8cfDjX/E3hfwz4ktiL3wPbTq2hNdE/8fCowLJgcKqkbeQDs+QdN+1f/wAFEvhz+xz4k0zQfFP/AAlWoeJdctWvNN0jQvD13qV1fxq207DGnlZDcYZweR2INfN/xI/aH/at/wCCgmnyeGvhB8Mda/Z/8Gal+5vvG3jzFnrSwnhhbWCkyRuRnD/MD2eM4agDa+N3/BTXxh4m/wCCn/gb4DfBPT9G8UQaW7z/ABCvLlGkt9OgO3cglQ/u5Il5J5BkkRCCcgN/4OPtThsf+CVPi+KV1WS81XSoYQT99heRuQP+Aox/CvaP+Cen/BN/wP8A8E7vhtdaX4da61rxJrji41/xHfjN7rEwycnk7IwSxVATjJJLMSx+Sf20/C/jz/gsl+1jpfwg0fwv4i8KfAz4V68bjxh4i1ezezGuXcWVNvaq4BkAUuqkcfvN7YATcAeG/wDBRzSbjQvgr/wTrtLqNobiCTTVdGHKnGm8Gv1b/aV/bM+HP7IcnhUfEHxHa+Hl8ZaoNJ06Sb7vmlSxeQ/wRLhQ0h+VS65IByPzo/4OVo774aaj+zPq3h/QrjUIvC2vTNZ2cELmOSSI2jw24Kg4LCIgAckA4BxVr9j3/gn98ZP+Cj37VOl/tEftVWJ0PRdCKS+FvBEsLQbArb498DEtDCrYciTMsrAbgEABAOr/AOCrv7ZHjr9rnxvqv7KH7O+j6lqvii+jEfjbXJImtbLRrFwCYvOcABXVhvkGQVO1N7McfGFt/wAFCfHX/BHyz8LfD/4c/GTwh8XNL8LSyR+JfDem+D4odBsJ3Ys4GrAi4uZmcuNyhVGzBBwUH60f8FYfhh458XfsH/FC2+EOnN/wn2vWMMMradGI9Q1G1SRRNEjrhnfyDIqjOcMQvJxX5Y/tMeJvgHe/8Eq/A3wR0bWIvgr8QNN1Oz1XxLbeNvCmuWtxdXkcEqTvLLa2Fx5jl3+QdAgx8uNtAH6Pfsy/BL9qf4v/ABM8N/Ej4xfFzRfCeh2hW/tvAHgmwX7HOjxnCXlzMC78NymZACAyspANeb/tP/tO2d5/wUv+H3w9+KH7MOlzX+sSahY+CfG8viW21G6NqqF2uYbJYG8uTci7EldXVmypGTn2r9lX/grh+zv+0L4n8N/D/wAFfEQa/wCKbq2S2gtk0DVbeOV44SW/ezWyRrwjEbmGcY68V8zftqaF4q/bF/4KFeHPHfh34XeM9Y+Hf7Oy32keJpJrVrW58RtcAxXEWmQErJcmKNixKshYAhDuKbgD48/Z4/aK+KHwM+P/AIY+Bss37Vd98JvCthPqtv4L074b22k+K7mOXzQY57aOZpJrPMrFpJJmVjj92uBjvP8Agjz8Wvi58QvjB4X+GX/CWftB6d8L/hx4veys9M0vwDbQ2FrHCZZBb63qccqS2xJJWS3dZlywGeFI85+D37Nf7GPw9+NM2tfHb4gWGkafH5sKeAtK8GeMbCBD/A8t1c7rreoIJRWxn+IjrufsyeCv2OPgr+3n4T8TeDvjN4Y8VeHX8QR3Wn6Zq/hDxXFq+jy7/wDRobSWHbDOfNKLuuUIA6hz1APv7/g4Q/a5uvgB+xa3gnw61xJ40+L1z/wj2nwWql7g27Y+0lFHzEsrLEMc5mGK4/8A4Iy/tHSfs2ax4b/ZL8bfCbVPhf42s/D58R29zPrFvqK+IDIS800giUeQ7YfbGWcqsRViCoByfAHhHWP+Cgf/AAXg17xXr2lala/D/wDZzsltNFh1CzkhS6vXLKsyK4Gd0vmyBuQRBER1Bq3/AMFL9Ruv2Pv+CtfwU/aI17T9Yb4X2+iz+HvEOr2dnLdRaOSJwrSrErNtPnKwGDnY2MkYoA+9Pix+034B+Bfi/wAK6D4v8Uab4f1XxtctZaHDdlk/tCZSgMatjaGJkQAMRksAMmt34peOIvhl8M/EXiSaNpofD+mXOovGvWQQxNIQPrtxX5w6Nqc3/BYH/gqZ8OfiJ4V0vWm+AvwPtnvLTX7/AE+ayt/EOpOdwFukyqzAMsWSQCoiOQu5c/pjr+h2vifQr3Tb6Fbiy1CB7a4ibpJG6lWU/UEigD8uP+CBPwI/4as8U+OP2sviUw8ReOvEmuXFhorXP7yPRokC72hBGFYBxEpH3EjwMbjX2D8K/wBjLxpoPxF8L+JvE3xHvdW1TwPrmtfYLgh7iXWNBvmLx2F4XKjzIXEZWRQ2BEoHUmvmn9mj4R/HD/gjBrfibwnofw41b45fAjWNUk1fSrnw3cRf8JB4fLgBoXtJGBnyFUfIcZUtuBbYPr79kv8AbMb9q+61yJvhL8aPhn/YaxEyeO/DY0dL8yFxi3PmuZCuzLcADcvJzQB8qf8ABwl+1d8W/wBm74VeC7HwJeat4S8G+KrySz8VeMNMszcXWjR5jVI0II8surSMGDKzGMKrKSc9t/wRz/Yt/Zz+FvwntfH3wn1qy+J3iLVkI1DxnffvNS81uZIvKb5rPOTmMgOQRvZ+DX2h4m8Mab408P3mk6xp9lqul6jC1vdWd5As0FzGwwyOjAqykcEEYNfmD+1l/wAEePHX7F/jq7+NP7Gmtal4b1i2zPq3ghZTNa6nEDuZIEfKyL1P2eTP/TNlIVaAP1Mr88f+Dlf4pHw7+wVp/gmzLSa18SPEllplrAn35libzmx7bliX/gYHevo7/gmt+1t4u/bO/ZnsPF3jT4d6v8O9c81rSa3u02QagycNPbo581YywI2yKCCCAzgbj8nfGL4X+Kv+Cgn/AAXK8N6brXhrWtM+Fv7PFlHqyzahZSW8GsXjsHSSIsAJEeZECleCtrJzzQB9AXP7Pn7R3g/4d+AfBPwt8c/DPwL4R8N+FbDTbi71LQ7jVdY+2RRbJCqF1g8rAXGfmzuzxitb4F/sv/tIeCvi3pet+Ov2pI/HHhe1d3vfDcHw20zS0vQUZVX7UjtKgVirccnbjOCa+btWuPjR+xX/AMFTPil8VvGHw7+MPxa+H/i6xjs/DZ8Bt/aUenwLtIim0/zVyyAMAWGAzOy5LnH0B8Kf+CqX/C0/iRovhw/s4/tWeG/7au0tP7U134fm002w3HHmXEvnt5cY7tg4oA0/27bf9lX4D6RN8RPjt4N+FM11qTrbpfaz4VtdU1TVJFUBY4wYXmlKqAOMhRjJA5r87/8AgodffBX9qL9kfXtP+Fv7Hfxe8E64oi1LQ/FmmfB2HTbC52MCVa4tz5nkyRlxkrjO044FfQX/AAWr/Z+8cH9rL4DfG/TPAus/FLwL8M7vOu+HdKt/tV3D+/WUTpBgmQEAcgEAxLuKg5HrMH/Bf/8AZbs4I11zxzrfhfUmUGXTNV8Jasl3bN0KOI7Z03Agg4YjI60AeN/8EDfGfwZ/av8AgpatdfBT4e6H8W/hS8NpqOsW/gq0t5ZnGRDdpcrCClwwQ713Bwys2MEVn28C+KP+DoyZrto/+JH4G32oPXP2QDAz3/fOeO2a+yv2RP22Phv+1h4r8RL8OtD8UpaqiX93r114VuNK0/VpDiPCzTIhllVVXIYZCgdhx8e/8Fdfhx4y/Y4/bo+HX7X3gnw9f+KNH0K2/sbxpp9kpaVbUB0804BwhjkZd54V4488GgD9LE13TdS1a70lbyxuL62iWS5sxKrTRRyZCs8echW2tgkYOD6V+Uv7PNpJ/wAEtf8Agu7rHwu07dZ/C/482w1HTLIZEFndOJHjCDoNsyTRAD+GSMdhXo3/AARz8CeJf2tv2ofid+15410e80aHxp/xJPBVhdg+Zb6Ym0GQeqkJGgYDBYSkZBBr1T/goZ/wTf8AF37Vv7ZnwF+KHhTWPDOlQ/Cy/wDtGqpqEs0dzeRC5gmVIfLidSQqzD5ioy49TgA4r9pTQR/wUK/4K2aD8G9aDXXwt+CejReL/EGmlz5OtanMQLWKZf4o0VlbB4Pzg5DV9J/tf+KtS8DyeC28I+OvD/hrxoL500Twtq99Da2XjgCMeZp+G+dZNuDHJH/q325DKxU/O3wTuE+B/wDwXz+Lmkavut/+FveDdP1bQppOEujaARyxKe7DbIcdcJmvoX9s/wANpruoeCZNE+HWn+NfiRbahI3hXU9SsGk0/wAJylAJb+4mAwiRrgiMEPK6qq4ILKAfP/h/9r/xZefFHx5deE/iBJ4h1/xdDEYvBfiLTo7G0+CkdqhS9u9WmVs7FbLIny/aCFKEoTIvs3jfw3dfED/gnjJb+Ef2gYbGO50s3Nx8Tryzs9ciubbeXu5TGzJBsdPMQBSBEuAvKivCfC37MfjLTPir8TLfw34D8Qf8JV4egiXWfEviq+Euj/HWG6jLXVrcRbdsHl8pA8e4QDCEBCyH1r4l/szfDn9p3/gmyvhOTwb4k+H/AIN0/TXv4/CyibRp7GW2Ejm2mRSPMj81SSQWWTh1Y5VqAPyK8SeMfG0v/BNPSfDMvxC0/wAafCLwv4xtGt9HvdDTTkvtHe8mgtPtE0FzE8fmTQ3MxgluFdVWNvPQdPR/2T/hf8GdI/4KGfA/w/ofw/8Ahfqf9vazPO99pmtSy3elS2tu9zDJGLHxfq8eTIi8XESqQCBv528d4h+E1r4M/wCCV/wz0Pwj4y1Twvd/GbSZta13wxp+i6pqV141u7Ofyooo5YUkht0KkbwVBLLESHXhfV/2DtW8UfDj9t74Y6X4v8T/ALYXwr8AW1naQ6T4b8b32qalb+JdRYBEso0t7aKCG0jyOJEOQoz5YJCgHl3/AAUG8FftA6X+2pb32jaxr+ly+O/iSuoeFdK8QWOlaVfNqkPm20F1bWqXExe3SPbH9qkEaSl4ywLEEMU/EP4R/GXwr4dvfiV4m+G/ib4D+AdZ8Y6TqniTwFaLdXV5OPPubPyHnlhkcxvgXJeViSflBGBX/a6+Cvwxtf2yPjdf+B/gjq/xu0O8t7yKC30NfE9rJ4J1iLd9pu7wvEqzBpy7bUlaIKvAAwD2vjT/AIJ+6l+0H+zV4H+D3wV+FupajefCu1/4Svxj4s8RRX2j2+t6nc2kMkumWSXAWRjMgi4CogCRnK7i7AH0r+0b4a8P+OP+COvgb45/tQ+Em+PXjLQtNi1aKFtRm8JmNNSnixCfsG2P93G0Q3GI7tmcKWNeE+E/2W/g3pvx8+Efg34j/sHf8K90/wCMN8LTSNW/4XXfat8uxZDJ5MEmeFdPldkzu68GvuL41+AtY/4Kwf8ABI2Tw34L0E/DnWvEFva2aaV4qguLCLSpLO5jEsRKxO7Rr5LKjqhDYGcHIHlvxP8A2KPFv7M+s/C341/tHftUL4g8H/Au9gubezh+GaQpbGURweUJbFzMylhGvmPE2AMkLk0AZf8AwQ1/ZB+Hfw2/az/aZ1bRfDos7/wP4uuPCmiSG+uZRZ6Y5LNb7XkKyZMSfPIGf5fvcnPdfB3Q4/8Agnf/AMFgbj4b6Gosfhf+0NpM/iHTNLj+W30nWrbJuBCnREkQZIH95BjCil/4IX+IoPif4x/aa8faPHfTeEfHHxElv9C1Kazlt49Tg2ud8YkVWwNy5BAIJwcHIqX9qKSP42f8F3v2e/D+jt59z8KfDureItcZAWW1juo/JiRj0DEhTg9nFAH39RRRQAUUUUAFFFFABRRRQAUUUUAFFFFABRRRQAUUUUAFFFFABRRRQAUUUUAFFFFABRRRQAUUUUAFFFFABRRRQAUUUUAFFFFABRRRQAUUUUAFFFFABRRRQAUUUUAFFFFABRRRQAUUUUAFFFFABRRRQAUUUUAFFFFABRRRQAUUUUAFFFFABRRRQAUUUUAFFFFABRRRQAUUUUAFFFFABRRRQAUUUUAFFFFABRRRQAUUUUAFFFFABRRRQAUUUUAFFFFABRRRQAUUUUAFFFFABRRRQAUUUUAFFFFABRRRQAUUUUAFFFFABRRRQAUUUUAFFFFABRRRQAUUUUAFFFFABRRRQAUUUUAFFFFABRRRQAUUUUAFFFFABRRRQAUUUUAFFFFABRRRQAUUUUAFFFFABRRRQAUUUUAFFFFABRRRQAUUUUAFFFFABRRRQAUUUUAFFFFABRRRQAUUUUAFFFFABRRRQAUUUUAFFFFABRRRQAUUUUAFFFFABRRRQAUUUUAFFFFABRRRQAUUUUAYfhP4YeGvAWq6tfaH4d0PRb7Xp/tWp3FhYRW8uoy5J8yZkUGR8sx3MSfmPrW5RRQAUUUUAFFFFACFQxGQDt5HtS0UUAFFFFABRRRQAUUUUAFFFFABRRRQAUUUUAFFFFABRRRQAUUUUAFFFFABRRRQAUUUUAeL/tXfsLeEv2t/EfgnxBqmpeJPC/iz4e6j/aOheIPDtzFbahaE43xFpYpUaF8DcjIQcY6Eg+zQoYoVVnaRlABdsbm9zgAc+wAp1FABRRRQAUUUUAFFFFABRRRQAjqXRlDMpIwGHUfnXjH7Mf7DHhP9l74h+OvGNlqfiTxV4y+I16LzWdd8QTwTXjqowlvH5MMSRwJ/Cip6ckBQPaKKACiiigAooooAKKKKACiiigAooooAKKKKACiiigAooooAKKKKACiiigAooooAKKKKACiiigAooooAKKKKACiiigAooooAKKKKACiiigAooooAKKKKACiiigAooooAKKKKACiiigAooooAKKKKACiiigAooooAKKKKACiiigAooooAKKKKACiiigAooooAKKKKACiiigAooooAKKKKACiiigAooooAKKKKACiiigAooooAKKKKACiiigAooooAKKKKACiiigAooooAKKKKACiiigAooooAKKKKACiiigAooooAKKKKACiiigAooooAKKKKACiiigAooooAKKKKACiiigAooooAKKKKACiiigAooooAKKKKACiiigAooooAKKKKACiiigAooooAKKKKACiiigAooooAKKKKACiiigAooooAKKKKACiiigAooooAKKKKACiiigAooooAKKKKACiiigAooooAKKKKACiiigAooooAKKKKACiiigAooooAKKKKACiiigAooooAKKKKACiiigAooooAKKKKACiiigAooooAKKKKACiiigAooooAKKKKACiiigAooooAKKKKACiiigAooooAKKKKACiiigAooooAKKKKACiiigAooooAKKKKACiiigAooooAKKKKACiiigAooooAKKKKACiiigAooooAKKKKACiiigAooooAKKKKACiiigAooooAKKKKACiiigAooooAKKKKACiiigAooooAKKKKACiiigAooooAKKKKACiiigAooooAKKKKACiiigAooooAKKKKACiiigAooooAKKKKACiiigAooooAKKKKACiiigAooooAKKKKACiiigAooooAKKKKACiiigAooooAKKKKACiiigAooooAKKKKACiiigAooooAKKKKACiiigAooooAKKKKACiiigAooooAKKKKACiiigAooooAKKKKACiiigAooooAKKKKACiiigAooooAKKKKACiiigAooooAKKKKACiiigAooooAKKKKACiiigAooooAKKKKACiiigAooooAKKKKACiiigAooooAKKKKACvIv21f2yvDf7EXwc/4SjXre+1fUNRvItJ0HQtPTffeINRmyIbSFf7zEElv4VBOCcKfXa+J/wDgoFCusf8ABVD9ibS7pRNp8l34yv2gflGnt9JheCTH95GJIPYmscRU9nSlU7Jv7kVFXaRW034m/t+eP7KPVtP8I/sv+B7S8USR6N4jvtZvtSsgeQk0tofJZh0O3jNT/wBt/wDBQj+7+xr+XiT/ABr66or4x8QYu/T7ju+rQPkX+2/+ChH939jX8vEn+NH9t/8ABQj+7+xr+XiT/Gvrqil/b+L7r7g+rQPkX+2/+ChH939jX8vEn+NH9t/8FCP7v7Gv5eJP8a+uqKP7fxfdfcH1aB8i/wBt/wDBQj+7+xr+XiT/ABo/tv8A4KEf3f2Nfy8Sf419dUUf2/i+6+4Pq0D5F/tv/goR/d/Y1/LxJ/jR/bf/AAUI/u/sa/l4k/xr66oo/t/F919wfVoHyL/bf/BQj+7+xr+XiT/Gj+2/+ChH939jX8vEn+NfXVFH9v4vuvuD6tA+Rf7b/wCChH939jX8vEn+NH9t/wDBQj+7+xr+XiT/ABr66oo/t/F919wfVoHyL/bf/BQj+7+xr+XiT/Gj+2/+ChH939jX8vEn+NfXVFH9v4vuvuD6tA+Rf7b/AOChH939jX8vEn+NH9t/8FCP7v7Gv5eJP8a+uqKP7fxfdfcH1aB8i/23/wAFCP7v7Gv5eJP8aP7b/wCChH939jX8vEn+NfXVFH9v4vuvuD6tA+Rf7b/4KEf3f2Nfy8Sf40f23/wUI/u/sa/l4k/xr66oo/t/F919wfVoHyL/AG3/AMFCP7v7Gv5eJP8AGhvEH/BQa3XzGt/2OrhU5MUZ8Rq8nsCxwCfU8V9dUUf2/i+6+4Pq0DwX9in9v3Uvjf8AEzXvhT8UPB5+Gvxn8LWq6jcaOLoXVjrVgzbFv7Gcffi3YDKeUJAyxDbfpqvh/wDathXSf+Cx37G13bKIbnV7TxrYXki8NcQRaVHNHG3qqyMWA9TX3BX12X4l4jDxqy3f6Oxx1I8snFHxH8W/+CkPxM+MHxv8SeAP2Z/BfhPxMvge6bTfEXjTxbdzQ6BZ36432UKQfvriRM/OynCkYwQVZsv/AIWb+39/zx/Y9/748R//ABVc3/wQxRbn/gmT4B1OQbr/AFu71e+v5z9+6nOq3aGRj3YqijPoor64r5vGZ5iIV5Qp2STa27H0GFymjKlGc73av9581/8ACzf2/v8Anj+x7/3x4j/+Ko/4Wb+39/zx/Y9/748R/wDxVfSlFcv9v4vuvuOj+x8P5/efNf8Aws39v7/nj+x7/wB8eI//AIqj/hZv7f3/ADx/Y9/748R//FV9KVDqeow6PptxeXD+Xb2sbTSvgttVQSTgcnAHaj+38X3X3B/Y+H8/vPnH/hZv7f3/ADx/Y9/748R//FUf8LN/b+/54/se/wDfHiP/AOKr33wB470n4o+BtH8SaDdfbtF1+yi1CwufKeLz4JUDxvtcBlyrA4YAjPIBrXp/29i1o7fcH9kYbz+8+a/+Fm/t/f8APH9j3/vjxH/8VR/ws39v7/nj+x7/AN8eI/8A4qvpSil/b+L7r7g/sfD+f3nzX/ws39v7/nj+x7/3x4j/APiqP+Fm/t/f88f2Pf8AvjxH/wDFV9KUUf2/i+6+4P7Hw/n9581/8LN/b+/54/se/wDfHiP/AOKo/wCFm/t/f88f2Pf++PEf/wAVX0pRR/b+L7r7g/sfD+f3nzX/AMLN/b+/54/se/8AfHiP/wCKo/4Wb+39/wA8f2Pf++PEf/xVfSlFH9v4vuvuD+x8P5/efNf/AAs39v7/AJ4/se/98eI//iqP+Fm/t/f88f2Pf++PEf8A8VX0pRR/b+L7r7g/sfD+f3nzX/ws39v7/nj+x7/3x4j/APiqP+Fm/t/f88f2Pf8AvjxH/wDFV9KUUf2/i+6+4P7Hw/n9581/8LN/b+/54/se/wDfHiP/AOKo/wCFm/t/f88f2Pf++PEf/wAVX0pRR/b+L7r7g/sfD+f3nzX/AMLN/b+/54/se/8AfHiP/wCKo/4Wb+39/wA8f2Pf++PEf/xVfSlFH9v4vuvuD+x8P5/efLfiH9vb9qX9kezHir41/Dn4V+MPhzZsG1rUPhrdX63+g238V01ven98idWCEYGSWABNfdHw/wDH2j/FTwNo/ibw7qFvq2g69ZxX+n3sBzHdQSKHR1zzgqQcEAjuAa8z1jSLbxBpF1YXkMdxZ30L288TjKyxuCrKR6EEivHf+CAGp3Gr/wDBIr4Qy3MrzSLFqsIZjkhI9XvY0X6KqqB7AV9Bk2YVMVGSqbxt+N/8jx8zwcKDi4bO/wCB7R+2v+2Z4Z/Yf+DTeKvEFvfatfahdxaToOh6eu++1/UZsiG1hX+8xBJY/dVScE4U/M9l8fP28vHdrHqmn+D/ANmXwXZ3iiSLR/EN7rF9qNmDyFlltSIWYdDtAGa0P+Ck0a6t/wAFNf2LdMuB51hJd+Mb5oG5Rp7fSoHhkx/eRiSD2Jr6Kr6zBYSFWLlM3yvL6deDqVO9j5r/AOFm/t/f88f2Pf8AvjxH/wDFUf8ACzf2/v8Anj+x7/3x4j/+Kr6UrN1fxpo/h/XdL0u/1bTbHU9ceSPTbS4ukjn1Bo03yLCjENIVQFiFBwBk8V2f2fR/pnp/2PhvP7z59/4Wb+39/wA8f2Pf++PEf/xVH/Czf2/v+eP7Hv8A3x4j/wDiq+lKKP7Po+Y/7Gw3Z/efNf8Aws39v7/nj+x7/wB8eI//AIqj/hZv7f3/ADx/Y9/748R//FV9KUUf2fR8w/sbDdn9581/8LN/b+/54/se/wDfHiP/AOKo/wCFm/t/f88f2Pf++PEf/wAVX0pRR/Z9HzD+xsN2f3nzX/ws39v7/nj+x7/3x4j/APiqP+Fm/t/f88f2Pf8AvjxH/wDFV9KUUf2fR8w/sbDdn9581/8ACzf2/v8Anj+x7/3x4j/+Ko/4Wb+39/zx/Y9/748R/wDxVfSlFH9n0fMP7Gw3Z/efNf8Aws39v7/nj+x7/wB8eI//AIqj/hZv7f3/ADx/Y9/748R//FV9KUUf2fR8w/sbDdn9581/8LN/b+/54/se/wDfHiP/AOKo/wCFm/t/f88f2Pf++PEf/wAVX0pRR/Z9HzD+xsN2f3nzX/ws39v7/nj+x7/3x4j/APiqP+Fm/t/f88f2Pf8AvjxH/wDFV9KUUf2fR8w/sbDdn9581/8ACzf2/v8Anj+x7/3x4j/+Ko/4Wb+39/zx/Y9/748R/wDxVfSlFH9n0fMP7Gw3Z/efNf8Aws39v7/nj+x7/wB8eI//AIqj/hZv7f3/ADx/Y9/748R//FV9KUUf2fR8w/sbDdn9581H4pft+wDe1p+yDOq8mOP/AISFXk9gWbAJ9TxXqX7D3/BQm++P3xF174W/Ezwj/wAK3+Mnhe1GoXGjrdC6sdasC2wX1jN/HHuwGU8oWAyxDbfQ6+XfjvGulf8ABYz9j+6tx5Nxq1p4zsbx14a4gi0pJY429VWQlgPU1z4rBQhTc49DhzDK6VKi6lO91/wx9/VwvjX4yDRdRktNPhjuJITtklkJ2Bu4AGM49c13VfOju0jszHczHJJ7mtsjwNOvOUqquo209b/5HzVSTWx2f/C9dX/599N/79v/APF0f8L11f8A599N/wC/b/8AxdcXRX0v9l4T+RGPPI7T/heur/8APvpv/ft//i6P+F66v/z76b/37f8A+Lri643wV+0H4L+IOm2N1pfiLT3i1TVLvRLJbhjayXt7aPKlxBFHKFeRkMEpO0HKxswyvNL+zcItHBBzyPZv+F66v/z76b/37f8A+Lo/4Xrq/wDz76b/AN+3/wDi64uin/ZeE/kQc8jtP+F66v8A8++m/wDft/8A4uj/AIXrq/8Az76b/wB+3/8Ai64uij+y8J/Ig55Haf8AC9dX/wCffTf+/b//ABdH/C9dX/599N/79v8A/F1534m8XaT4K01bzWdU0/SbN54rZZ725S3jaWV1jijDOQNzuyqq9WZgBkkCo7vxxoth4ws/D0+saXDr+pW0t7aaZJdRreXUETIssscRO9kRpIwzAEKZFBI3DK/s3CfyIOaR6R/wvXV/+ffTf+/b/wDxdH/C9dX/AOffTf8Av2//AMXXF0U/7Lwn8iDnkdp/wvXV/wDn303/AL9v/wDF0f8AC9dX/wCffTf+/b//ABdcXRR/ZeE/kQc8jtP+F66v/wA++m/9+3/+Lo/4Xrq//Pvpv/ft/wD4uuLoo/svCfyIOeR2n/C9dX/599N/79v/APF0f8L11f8A599N/wC/b/8AxdcXRR/ZeE/kQc8jtP8Aheur/wDPvpv/AH7f/wCLo/4Xrq//AD76b/37f/4uuLoo/svCfyIOeR2n/C9dX/599N/79v8A/F0f8L11f/n303/v2/8A8XXF0Uf2XhP5EHPI7T/heur/APPvpv8A37f/AOLq5o/x2uftai/tLdoGOGaAFWUeuCTn6cV5/RSllOEatyIOeR9EWl3HfWsc0LLJFKodGHRgelSVzvwodpPAGnljniQfgJGAroq+FxFP2dWVPs2vuZ0rVXCiiisRhRRRQAUUUUAFFFFABRRRQAUUUUAFFFFABRRRQAUUUUAFFFFABRRRQAUUUUAFFFFABRRRQAUUUUAFFFFABRRRQAUUUUAFFFFABRRRQAUUUUAFFFFABRRRQAUUUUAFFFFABRRRQAUUUUAFFFFABRRRQAUUUUAFFFFABRRRQAUUUUAFFFFABRRRQAUUUUAFFFFABRRRQAUUUUAFFFFABRRRQAUUUUAFFFFABRRRQAUUUUAFFFFABRRRQAUUUUAFFFFABRRRQAUUUUAFFFFABRRRQAUUUUAFFFFABRRRQAUUUUAFFFFABRRRQAUUUUAFFFFABRRRQAUUUUAFFFFABRRRQAUUUUAFfFP7d/8Aylu/Yj/7nv8A9M0Ffa1fFP7d/wDylu/Yj/7nv/0zQVy47/dqn+F/ky6fxr1PraiiivzU9U+c/jLe/EH4k/tq2/w88P8AxK1f4e+Fz4FOuXUujaRp11qhuxqKxI8M19BcQxqYwyurwSBgw2+Ww3Hznw9+0f8AE7WrHTfhHN4u8rxpL8RNQ8C3HjxNItFupNPtdPbUVvI7cq1n/aDQGKJsxGASiVxbbB5K+g/Gz9lzx18Vf22bHxXoXj7xt8NdAtPBDaTLqvhuPRLiW9ujf+aLeSPUrO8woT5w0cac8Fz92upuv2FvCP8Awp/T/C9jqXibSdU0rVX8RWniu1u4/wC3otYk3+bqRleNoZJpPMkDxyQtAyN5Zi8sBB2KdNRSdvu2fn/lqZ2dzxP4+fHD4ofss/D342+Ek+IV94u1zw18PT4z8L+K9Z0nT/7SspmlmgeG6htIILSZUkjR4yIIiys6tvK767m81r4jfs6fHj4WtrPxK1z4iaF8VNUm0LUdI1DSNLtLfQ7j7BPeR3GntawRTrCGt3jaO5lum2SKfMDKWep+0F+wvqc37JHxm03R/EPi74kfFL4heGpdHXXtfuNOh1C4VUkFtbRrDBbWMEcbSOwCworM7NIXJJruvhH+xvJ4Q8faR4s8ZfEj4g/FTXPD9s8OiDxRHpENvoDSpsnkgi02xtEaV0wnmTCVlTcqFBJJvpzp8t9OvTfRbaaa+gWdz2yiiiuE0CiiigAooooAKKKKACiiigAooooAKq67qy6Bol5fSQ3VxHZQPO0VrA088oVSxVI1BZ3OMBVBJOAOatUUAfMdj/wVw+Dd3+w0Pj02s3UPhwSf2a+jmAnXE1nOz+xfsn3zf+b8nld/v58v56j/AOCe/gj43eK/EPir4xfGzVrzw/qXxCgt4dF+GtvIklh4J02FpHgWZ9u6TUH81jM6kKMhMHYoTf8A+HX/AMF/+G0f+F9/8IlD/wAJ95e/Pmn+z/tuNn9pfZf9X9u8v935+N23/a+avoGumpUpqPLSW+9+nkv8+vl1hJ3uwooormLPkH9r7/lL7+xL/wBz1/6ZYq+3q+If2vv+Uvv7Ev8A3PX/AKZYq+3q+/yT/cofP82ebiP4jPzs/wCCFX/KK34W/wDcW/8ATve19b18kf8ABCr/AJRW/C3/ALi3/p3va+t6+Kx3+81P8T/Nn2WE/gQ9F+Ryvx38S3vgz4H+MtY02b7NqOk6He3lrNsV/Kljt3dG2sCpwwBwQQccg184w+Kvip4K+BPw/wDEV78VNS13xb8XG0TREjn0HTbfQvDk13Esk17bQRwi5MnlpIVS4u5ozK4wm3EY+ovHfg+2+IXgfWdAvZJ4rPXLGfT53gIWVI5Y2jYqSCAwDHBIIz2Ncr4q/Zu8PeMfgdpfgO8k1RdO0O3s49OvoLryNQsZrQJ9nuo5UACzIyK2du0nIKlSVMU6kYqz79iqkZN3R4X8Sfjp40/YU8Qa9p+veMNa+L2lzeCNX8XabPr1lp9nqVldaebdWtmfTrW3ha2lFwhBaDzEZXy7hlWPudC+EPxG0XwtdeJfEfxj8QeJlvtDuZNU8OzaLpMOiRSSW5b/AEJoLaO8jWOTAQz3VxlNwbcxEi7Pgj9jPSdNvddvvGvijxZ8WtW8QaVLoM194r+wKbfTZcGWzigsLW1tkSRhudxF5rkKGcqiKsPw5/Y7uvh/dx28/wAXPix4j8MWNnNYad4c1S50z7Dp8ToYkHnQ2UV5c+VGSqfa7ifPDvvkCuNXUhbS1+um/ppp+BMYyvre3rt666/ifP8A/wAEt/2htY/ay+F3wz07wjrl54T8E/C7wxoyazDPpyR6p4vnlsE8tViuoi8GmD5itwgV7iRD5brHGWl+6K8c0P8AYj8LeEpfhpd6LqfiLRta+F+lw6FZarazwC61XTERVaxvQ0RjmhcornCKyON0bRkkn2Os8ROEp3ht/X3/ANIqjGUY2luFFFFc5sFFFFABRRRQAUUUUAFFFFABRRRQB5T8Vv2xvBvwT/aI8A/DfxNJf6TqXxKiuV0TUp7Vk0u4u4THtsftB+QXMqs7JHnLCIjqyBvAf2rf2hvGn7Znxi1b9nf4B6vLoo0thb/E34jW43w+DoGHzadZN0k1SVcjAOIActhvufTH7S/7NPg39rn4Oat4F8daSuq6Dqqg8MY7izmU5iuYJR80U8bYZJF5BHcEgn7NP7NPg79kf4O6V4F8C6UulaFpSlvmYyXF7MxzLczyn5pZ5GyzyNySewAA6qdSlCPOl73nt6/8D5+RhKNST5b+7+Pp/wAH/hzstE05tH0aztJLq6v5LWFIWubkqZrgqoBdyoVdzYydqgZJwAOKtUUVym4V4b/wb3/8ogvhH/3Gf/T1f17lXhv/AAb3/wDKIL4R/wDcZ/8AT1f19Vwz/wAvP+3f1Pn89+x8/wBDI/4KLf8AKVL9in/uef8A00W9fRNfO3/BRb/lKl+xT/3PP/pot6+ia/Rst/hP1/RHVkf8B+r/ACQV8/8Ax98W+Lfh9+2f8F49O8ba1F4X8bXl/pWq+GntNPbTnEGn3Fylwsptvtayl1QHFx5e1R8gJJP0BXz/AOPfCnir43/tgeAbmbwLr3h3wv8AC291G/k13U73Tmtdfaeye1jS0hguZrjH71mY3EUGAnAYnFds7208j1qt7K3dfmfP/jP9qr4keFda0/x14P8AEXxw8feB7vxhZ6XJe6r4d8Lab4Ka1utTjs3jhjdbbXXWJZQI7lPOjkdA4MsbHHov7TOnfEi5/aX8P+Cfhz8eviVY+KPElwNcv9KOj+HLnRfC+hRSqs8js+ktcEyE+TAj3Jd3Zm3FIpMdfcf8E39GvPDtr4bm+JHxSbwJpOqWeq6P4VjvbCHT9GktbyO7hijljs1u5YA8e3yrm4mTY2AAVQpYtv2DdU0L4t+MPGGg/Hf4x+H7zxtqCahqNrb2/hu7gARAkVvG91pE06QRoNqx+bhdzEfMzE5cs+t/vOb2dTZ36dfvtr+pxP7YWk/Eo/GXQ/CPw1+PPxK0jxt44uBeQaPHpfhq40fw1pUJQXd9L52kyXJQfcjR5y0k8yqGCKxT62tImt7WOOSV55I0CtI4AaQgcsQABk9eABXz9ffsFanD8aPF3jrQ/jt8YvDOreNGt/t0VnbeGruGGKBCkUEJvNInljhXLsIxJt3ySNjcxJ+gLG3e0sYYZJ5bqSJFRppQokmIGCzBQq5PU7QBk8ADitIJ3bZvTi023f7/APgktFFFaGwUUUUAFFFFABRRRQAUUUUAFFFFAFXW9VXQtGvL6SG6uI7OF52itoWmmkCqWKoigs7HGAqgknAHNfO9l/wVZ+EN1+xR/wALybWLqLw8JP7PfSDAf7aXV87P7H+y/fN95nyeV3+/nZ89fSVeC/8ADtL4O/8ADYv/AAvT/hFYf+E68vf/AKw/2f8AbMbP7R+zf6v7b5f7vz8btvv81RLn+yZVPafYt8/z/wCB+JhfsD+DPjP4p1/xR8XPjNql3oGoePobeHRvhzbuj2Pg3ToWkeFZnxukv381jM4IUZCYOxQn0vRRTjHlViqcOWNgr5f/AGh/+Uvv7F3/AHPH/pljr6gr5f8A2h/+Uvv7F3/c8f8Apljrmx38CXy/NHDm3+6y+X5o+/K+c6+jK+c634b/AOXny/U+GrdArB+Kniyz8CfDPxBrWoatHoFnpenT3U2pPB562CpGxM3l4O/Zjdtwd2Md63qxfiP8PtJ+LPgHWPDOvWv2zRtes5bG9h3lDJFIpVgGUgqcHgggg4Ir6eV7aGJ8i/A/47fE7wz+0J8NtN1K9+N3iHwX8QpLqzGpfELRvDGmQz+XZS3UU9nBpqwahbyN5JzFf2wwjEERuoDeQ+F/h9q3jq1+AEel+OvFXgxn+MfjaAS6Nb6bKyOZNZcTD7ZaXA3hUZACCm2VyVLBGT7I8KfsXrpfjrwj4i8QfEz4meONQ8DXU1zoy61cadFBbiW2e2aN47Ozt1m+R8iSUPMCOJNrOrQ3n7BvhxPhppfh/SfEni7w/f6D4mvPFmka/ZSWcmp6Xe3c9xLP5YntpLdo2W5mi2SwuNjd2AccH1ebWt/v1+y/0fUq55T8Yv2kNYtfjnrXw3n8ffGrwzZ+A9M08vrng34ay+J9T1+7uI3dnunh0a8soI1VVIjjhidnZiCEAUzeEvjh8WvjdN8G9Fk1zVPhveeK7fxDFr08nhX7LqF5HZFI7e7t7bUIt1nLICsyieGRFDsrRP8AKV9k8YfsoTa9q1nrWj/Er4g+D/Fi2MWnapr2jrpTXHiGKLOw3dvc2M1mXUsxEkVvG67ioIQ7a1vDP7N1joniHwZrN/4k8VeI9a8F29/BFf6rcwyTai14UM0k4SJEBBQbEhWKNB8qoFCqNPZ1HJ3bt69Lrz7abL5geTaZofxO8a/tIeMPh3H8avFmlaH4T8M6JeR6nb6Hoj65d3lxLfCSWSWSza0EbrCgaNbQHKKUaP5w/MQftOeJfiR+y/8AD1pPGHj3T/iBrWq6jpgt/Afh3TLnVvE72E09tIyjUIprCyjJRJXlnMcYJ2B0LqK+nNB+EGm+HvjD4i8bQz3zar4m0+x066id1NvHHaNO0ZRQoYMTcPuJYg4XAGDnzeL9hDQ9C8G+H9P8N+LvG3hHWPC97qV5pviHTZLGXUYV1Cdp7q3Zbm1mtpIXdl+V4GK+WhBDDcXKlNbN9er7q3Xe1/1A+UfjX48+Inxs/ZY8XeG/FmtfEDwvqngT4q+GNMtrvVLXw+Neubee602eNrsWS3Ons8b3G5GgVAfKjDofnV/ojxfffELwT8fvBPwusPif4k1NvEXgzxJfPrmq6bpLX326KWyW0nKwWcMGIftDgIsSqwxvDn5q6iD9gnwvJ4F8d6LqHiDxprVx8QtTtdb1HVr++ikvrbULaK3SG6tiIhFCyNbRSqix+UrghYwnyDoPCX7MEWi/EPwr4u1vxl4v8ZeJvCWm6jpUGoasunwtdw3ssEj+dHZ2sEW5Ps8aoURPlzu3k7qiNGaet+nXs/8AIDy/wZ+1L4n+M3hz4Q+HtJvF0rxrrGozjxqYo4ZJNMh0lvL1JAjI6jzroRQqcAhLjcpBC14+37dXjPx34PvfiBoGtfGhvEFve3H9l+AtM+EWp33hfUoIbl4lgl1EaO8rTSxoSZ4r5IUkK/LsRg3118PP2XPCvww+OfjT4haXHf8A9veOlgW+WafzLe38pcHyEx+780hWkwSHZFPGK5q+/Yxks9XvF8L/ABU+KHgXwzqNy93c+GtEl0v+zy8jF5/KluLGa8tllYsStvcRBCzNH5bHNOVOtbf+uj3Xr8+oaHsthcteWMMzRvC0sauY3GGQkZwfcdKmpEXy0CjOFGOTk/nS12khRRRQAUUUUAFeW/tLftRf8M2f2L/xbv4pePv7a8//AJE3QP7V+weV5f8Ar/3ieXv8z5Ou7y36befUqKmSbVk7Afm/+wZ+3n/wrD/hc/8AxZj4+eIv+Ei+Keua3/xJPCP2v+zPO8j/AES6/ejyrqPb+8i527l5Oa/SCvLf2Xf2av8Ahmz/AIWJ/wATr+2v+E+8b6l4y/48/s/2D7Z5X+jfffzNnl/6z5d2fujHPqVY4WnOELTY2FFFFdAj2n4S/wDJPtP/AO2n/ox66Ouc+Ev/ACT7T/8Atp/6Meujr85x3+81P8T/ADZ1R2QUUUVylBRRRQAUUUUAFFFFABRRRQAUUUUAFFFFABRRRQAUUUUAFFFFABRRRQAUUUUAFFFFABRRRQAUUUUAFFFFABRRRQAUUUUAFFFFABRRRQAUUUUAFFFFABRRRQAUUUUAFFFFABRRRQAUUUUAFFFFABRRRQAUUUUAFFFFABRRRQAUUUUAFFFFABRRRQAUUUUAFFFFABRRRQAUUUUAFFFFABRRRQAUUUUAFFFFABRRRQAUUUUAFFFFABRRRQAUUUUAFFFFABRRRQAUUUUAFFFFABRRRQAUUUUAFFFFABRRRQAUUUUAFFFFABRRRQAUUUUAFFFFABRRRQAUUUUAFFFFABRRRQAUUUUAFfGv/BV/wR4n8EeNvgr+0F4X0G+8Vf8ACh9X1CbXNIsV33kuj6jbLbXs8KfxvCiK230LEkBSR9lUVNSmpxcJbPQadndHzH4C/wCCpX7OfxF8KWesWXxr+Gtnb3sYkWHVPEFtpt3HkZw8Fw6SIw7hlFbP/DxP9n3/AKLp8HP/AAtNN/8Aj1db4r/YR+B/jzXbjVNc+DXwp1rU7pi893feErC4nmY9SzvEWY+5NZ3/AA7h/Z5/6IN8GP8AwidM/wDjNfOvhulfSb/A6frT7GH/AMPE/wBn3/ounwc/8LTTf/j1H/DxP9n3/ounwc/8LTTf/j1bn/DuH9nn/og3wY/8InTP/jNH/DuH9nn/AKIN8GP/AAidM/8AjNH+rdL+d/cg+tPsYf8Aw8T/AGff+i6fBz/wtNN/+PUf8PE/2ff+i6fBz/wtNN/+PVuf8O4f2ef+iDfBj/widM/+M0f8O4f2ef8Aog3wY/8ACJ0z/wCM0f6t0v539yD60+xh/wDDxP8AZ9/6Lp8HP/C003/49R/w8T/Z9/6Lp8HP/C003/49W5/w7h/Z5/6IN8GP/CJ0z/4zR/w7h/Z5/wCiDfBj/wAInTP/AIzR/q3S/nf3IPrT7GH/AMPE/wBn3/ounwc/8LTTf/j1H/DxP9n3/ounwc/8LTTf/j1bn/DuH9nn/og3wY/8InTP/jNH/DuH9nn/AKIN8GP/AAidM/8AjNH+rdL+d/cg+tPsYf8Aw8T/AGff+i6fBz/wtNN/+PUf8PE/2ff+i6fBz/wtNN/+PVuf8O4f2ef+iDfBj/widM/+M0f8O4f2ef8Aog3wY/8ACJ0z/wCM0f6t0v539yD60+xh/wDDxP8AZ9/6Lp8HP/C003/49R/w8T/Z9/6Lp8HP/C003/49W5/w7h/Z5/6IN8GP/CJ0z/4zR/w7h/Z5/wCiDfBj/wAInTP/AIzR/q3S/nf3IPrT7GH/AMPE/wBn3/ounwc/8LTTf/j1H/DxP9n3/ounwc/8LTTf/j1bn/DuH9nn/og3wY/8InTP/jNH/DuH9nn/AKIN8GP/AAidM/8AjNH+rdL+d/cg+tPsYf8Aw8T/AGff+i6fBz/wtNN/+PUf8PE/2ff+i6fBz/wtNN/+PVuf8O4f2ef+iDfBj/widM/+M0f8O4f2ef8Aog3wY/8ACJ0z/wCM0f6t0v539yD60+xh/wDDxP8AZ9/6Lp8HP/C003/49R/w8T/Z9/6Lp8HP/C003/49W5/w7h/Z5/6IN8GP/CJ0z/4zR/w7h/Z5/wCiDfBj/wAInTP/AIzR/q3S/nf3IPrT7GH/AMPE/wBn3/ounwc/8LTTf/j1H/DxP9n3/ounwc/8LTTf/j1bn/DuH9nn/og3wY/8InTP/jNH/DuH9nn/AKIN8GP/AAidM/8AjNH+rdL+d/cg+tPsYf8Aw8T/AGff+i6fBz/wtNN/+PUy4/4KM/s+W0DyN8dPg+VjBYhPGOnOxx6ATEn6Dmt//h3D+zz/ANEG+DH/AIROmf8AxmnQ/wDBOf8AZ7t5Vkj+BPwajkQhlZfBWmgqR3B8mj/Vul/O/wAA+tPsfMfwU8fr/wAFK/8Agpn4K+KHgq1up/g/+z7pur2dl4mmheCDxHrOowi2mitQ4BkiihUEydNwHZlJ/QGquh6FY+GNIt9P02ztdPsLNBHBbW0KwwwoOiqigBQPQCrVe9hsPGhSVKGyOeUnJ3Z+Xf7Fnxv0H/gmb/aP7Nvxj1C18CTeFNSvrrwfrmqv9n0rxNo9xcyXEcyXLYjWRWmdXRmGDxkkMB9Gf8N/fAf/AKLZ8I//AAsNP/8Aj1fS3xL+EHhP4z6ENL8YeF/DvizTFbeLTWdNhv4A3rslVlz74rzr/h3D+zz/ANEG+DH/AIROmf8AxmvHxOQ0qtR1FJq+p6lDOKlOChZOx5d/w398B/8Aotnwj/8ACw0//wCPUf8ADf3wH/6LZ8I//Cw0/wD+PV6j/wAO4f2ef+iDfBj/AMInTP8A4zR/w7h/Z5/6IN8GP/CJ0z/4zWP+rdL+d/cjb+3Kn8qPLv8Ahv74D/8ARbPhH/4WGn//AB6j/hv74D/9Fs+Ef/hYaf8A/Hq9R/4dw/s8/wDRBvgx/wCETpn/AMZo/wCHcP7PP/RBvgx/4ROmf/GaP9W6X87+5B/blT+VHl3/AA398B/+i2fCP/wsNP8A/j1H/Df3wH/6LZ8I/wDwsNP/APj1eo/8O4f2ef8Aog3wY/8ACJ0z/wCM0f8ADuH9nn/og3wY/wDCJ0z/AOM0f6t0v539yD+3Kn8qPLv+G/vgP/0Wz4R/+Fhp/wD8eo/4b++A/wD0Wz4R/wDhYaf/APHq9R/4dw/s8/8ARBvgx/4ROmf/ABmj/h3D+zz/ANEG+DH/AIROmf8Axmj/AFbpfzv7kH9uVP5UeXf8N/fAf/otnwj/APCw0/8A+PUf8N/fAf8A6LZ8I/8AwsNP/wDj1eo/8O4f2ef+iDfBj/widM/+M0f8O4f2ef8Aog3wY/8ACJ0z/wCM0f6t0v539yD+3Kn8qPLv+G/vgP8A9Fs+Ef8A4WGn/wDx6j/hv74D/wDRbPhH/wCFhp//AMer1H/h3D+zz/0Qb4Mf+ETpn/xmj/h3D+zz/wBEG+DH/hE6Z/8AGaP9W6X87+5B/blT+VHl3/Df3wH/AOi2fCP/AMLDT/8A49R/w398B/8Aotnwj/8ACw0//wCPV6j/AMO4f2ef+iDfBj/widM/+M0f8O4f2ef+iDfBj/widM/+M0f6t0v539yD+3Kn8qPLv+G/vgP/ANFs+Ef/AIWGn/8Ax6j/AIb++A//AEWz4R/+Fhp//wAer1H/AIdw/s8/9EG+DH/hE6Z/8Zo/4dw/s8/9EG+DH/hE6Z/8Zo/1bpfzv7kH9uVP5UeXf8N/fAf/AKLZ8I//AAsNP/8Aj1H/AA398B/+i2fCP/wsNP8A/j1eo/8ADuH9nn/og3wY/wDCJ0z/AOM0f8O4f2ef+iDfBj/widM/+M0f6t0v539yD+3Kn8qPLv8Ahv74D/8ARbPhH/4WGn//AB6j/hv74D/9Fs+Ef/hYaf8A/Hq9R/4dw/s8/wDRBvgx/wCETpn/AMZo/wCHcP7PP/RBvgx/4ROmf/GaP9W6X87+5B/blT+VHl3/AA398B/+i2fCP/wsNP8A/j1H/Df3wH/6LZ8I/wDwsNP/APj1eo/8O4f2ef8Aog3wY/8ACJ0z/wCM0f8ADuH9nn/og3wY/wDCJ0z/AOM0f6t0v539yD+3Kn8qPmv9oz/gqd8MfAfguSx+HvijQ/il8RtcU2Phnw74UvI9YuNQvnBESt9nLiNA2CxYj5QcAnAP0J/wTI/Zg1H9jT9hD4b/AA31h4m1nw/pzyaiInEiRXVzPLdTRqw4YJJO6hhwQuRXd/Cz9ln4Y/AzUpLzwT8OfAfg68mXZJPoegWmnySL6FoY1JHsa7yvUy/LqeEi1B3b3Z5+Mxs8Q05aWPi3/grn8PPE/hjxP8Gfj54X0K+8VH4F6tqE2t6TYrvu5dH1G2W3vJ4U/jeJUVto7FiSApIk8Df8FMf2fviB4YtNWs/jH8OrO3vIxIsOp69baddR5GcPDO6SIR6Mor7OrynxX+wj8D/Hmu3Gqa58GvhTrWp3TF57u+8JWFxPMx6lneIsx9ya9rD4uVJWWxpg8ynh04pXTPHf+G/vgP8A9Fs+Ef8A4WGn/wDx6j/hv74D/wDRbPhH/wCFhp//AMer1H/h3D+zz/0Qb4Mf+ETpn/xmj/h3D+zz/wBEG+DH/hE6Z/8AGa6v7Tl/Kd39vVP5UeXf8N/fAf8A6LZ8I/8AwsNP/wDj1H/Df3wH/wCi2fCP/wALDT//AI9XqP8Aw7h/Z5/6IN8GP/CJ0z/4zR/w7h/Z5/6IN8GP/CJ0z/4zR/acv5Q/t6p/Kjy7/hv74D/9Fs+Ef/hYaf8A/HqP+G/vgP8A9Fs+Ef8A4WGn/wDx6vUf+HcP7PP/AEQb4Mf+ETpn/wAZo/4dw/s8/wDRBvgx/wCETpn/AMZo/tOX8of29U/lR5d/w398B/8Aotnwj/8ACw0//wCPUf8ADf3wH/6LZ8I//Cw0/wD+PV6j/wAO4f2ef+iDfBj/AMInTP8A4zR/w7h/Z5/6IN8GP/CJ0z/4zR/acv5Q/t6p/Kjy7/hv74D/APRbPhH/AOFhp/8A8eo/4b++A/8A0Wz4R/8AhYaf/wDHq9R/4dw/s8/9EG+DH/hE6Z/8Zo/4dw/s8/8ARBvgx/4ROmf/ABmj+05fyh/b1T+VHl3/AA398B/+i2fCP/wsNP8A/j1H/Df3wH/6LZ8I/wDwsNP/APj1eo/8O4f2ef8Aog3wY/8ACJ0z/wCM0f8ADuH9nn/og3wY/wDCJ0z/AOM0f2nL+UP7eqfyo8u/4b++A/8A0Wz4R/8AhYaf/wDHqP8Ahv74D/8ARbPhH/4WGn//AB6vUf8Ah3D+zz/0Qb4Mf+ETpn/xmj/h3D+zz/0Qb4Mf+ETpn/xmj+05fyh/b1T+VHl3/Df3wH/6LZ8I/wDwsNP/APj1H/Df3wH/AOi2fCP/AMLDT/8A49XqP/DuH9nn/og3wY/8InTP/jNH/DuH9nn/AKIN8GP/AAidM/8AjNH9py/lD+3qn8qPLv8Ahv74D/8ARbPhH/4WGn//AB6j/hv74D/9Fs+Ef/hYaf8A/Hq9R/4dw/s8/wDRBvgx/wCETpn/AMZo/wCHcP7PP/RBvgx/4ROmf/GaP7Tl/KH9vVP5UeXf8N/fAf8A6LZ8I/8AwsNP/wDj1H/Df3wH/wCi2fCP/wALDT//AI9XqP8Aw7h/Z5/6IN8GP/CJ0z/4zR/w7h/Z5/6IN8GP/CJ0z/4zR/acv5Q/t6p/Kjy7/hv74D/9Fs+Ef/hYaf8A/HqP+G/vgP8A9Fs+Ef8A4WGn/wDx6vUf+HcP7PP/AEQb4Mf+ETpn/wAZo/4dw/s8/wDRBvgx/wCETpn/AMZo/tOX8of29U/lR5ZP/wAFBPgNbwtI3xr+ExVAWIXxbYM34ASkn6CvJf2bfFJ/4KM/8FKvBvxS8H2t1N8IvgHp2rWdn4kmheGDxFrGoQi2mitgwBkiihGS44DAdmUn6vh/4Jz/ALPdvKskfwJ+DUciEMrL4K00FSO4Pk163oehWPhjSLfT9Ns7XT7CzQRwW1tCsMMKDoqooAUD0ArCvjp1I8lrHLi81qV6fs2kkWq8F8V+Gp/Cusy2syMqhiYnxxIvYg/55r3qob3T7fUovLuIIbiP+7IgYfka1y3MHhZt2unueROPMfPNFe9f8IfpH/QL03/wGT/Cj/hD9I/6Bem/+Ayf4V7f+sdP+RkeyZ4LRXvX/CH6R/0C9N/8Bk/wo/4Q/SP+gXpv/gMn+FH+sdP+Rh7JngtFe9f8IfpH/QL03/wGT/Cj/hD9I/6Bem/+Ayf4Uf6x0/5GHsmeC0V71/wh+kf9AvTf/AZP8KP+EP0j/oF6b/4DJ/hR/rHT/kYeyZ4LRXvX/CH6R/0C9N/8Bk/wo/4Q/SP+gXpv/gMn+FH+sdP+Rh7JngtFe9f8IfpH/QL03/wGT/Cj/hD9I/6Bem/+Ayf4Uf6x0/5GHsmeC0V71/wh+kf9AvTf/AZP8KP+EP0j/oF6b/4DJ/hR/rHT/kYeyZ4LRXvX/CH6R/0C9N/8Bk/wo/4Q/SP+gXpv/gMn+FH+sdP+Rh7JngtFe9f8IfpH/QL03/wGT/Cj/hD9I/6Bem/+Ayf4Uf6x0/5GHsmeC0V71/wh+kf9AvTf/AZP8KP+EP0j/oF6b/4DJ/hR/rHT/kYeyZ4LRXvX/CH6R/0C9N/8Bk/wo/4Q/SP+gXpv/gMn+FH+sdP+Rh7JngtSWtrJe3CQwxtJJIdqqoyWNe7f8IfpH/QL03/wGT/CrFjodjpblrWztbdj1MUSoT+QpS4jhb3YO/qHsmVfBWiP4c8LWdnJjzIUJfBzhiSxH4E1qUUV8tUqOc3OW7dzbbQKKKKgAooooAKKKKACiiigAooooAKKKKACiiigAooooAKKKKACiiigAooooAKKKKACiiigAooooAKKKKACiiigAooooAKKKKACiiigAooooAKKKKACiiigAooooAKKKKACiiigAooooAKKKKACiiigAooooAKKKKACiiigAooooAKKKKACiiigAooooAKKKKACiiigAooooAKKKKACiiigAooooAKKKKACiiigAooooAKKKKACiiigAooooAKKKKACiiigAooooAKKKKACiiigAooooAKKKKACiiigAooooAKKKKACiiigAooooAKKKKACiiigAooooAKKKKACiiigAooooAKKKKACqet61DoNi082TzhVHVz6VcrkvimxC2K9iZDj/vmt8PTVSooM6sDRVavGnLZ/8OVJfideFzsgtVXsGDMfzyKb/wALNv8A/njZ/wDfDf8AxVc7RXu/VKP8p9b/AGbhv5EdF/ws2/8A+eNn/wB8N/8AFUf8LNv/APnjZ/8AfDf/ABVc7RR9Uo/yj/s7DfyI6L/hZt//AM8bP/vhv/iqP+Fm3/8Azxs/++G/+KrjPFvi/SfAPhu81rXtU07RdH02MzXd9f3KW1taoOrySOQqqPUkCr8MyXMKyRsskcgDKynKsD0INH1Wj/Khf2fhv5EdJ/ws2/8A+eNn/wB8N/8AFUf8LNv/APnjZ/8AfDf/ABVc7RR9Uo/yj/s7DfyI6L/hZt//AM8bP/vhv/iqP+Fm3/8Azxs/++G/+KrnaKPqlH+UP7Ow38iOi/4Wbf8A/PGz/wC+G/8AiqP+Fm3/APzxs/8Avhv/AIqudoo+qUf5Q/s7DfyI6L/hZt//AM8bP/vhv/iqP+Fm3/8Azxs/++G/+KrnaKPqlH+UP7Ow38iOi/4Wbf8A/PGz/wC+G/8AiqP+Fm3/APzxs/8Avhv/AIqudoo+qUf5Q/s7DfyI6L/hZt//AM8bP/vhv/iqP+Fm3/8Azxs/++G/+KrnaKPqlH+UP7Ow38iOi/4Wbf8A/PGz/wC+G/8AiqP+Fm3/APzxs/8Avhv/AIqudoo+qUf5Q/s7DfyI6L/hZt//AM8bP/vhv/iqP+Fm3/8Azxs/++G/+KrnaKPqlH+UP7Ow38iOi/4Wbf8A/PGz/wC+G/8AiqB8Tb//AJ42f/fLf/FVztFH1Sj/ACi/s7DfyI9E8LeLo/EStGy+TcIMlc5DD1FbFed+A2K+KrX/AGt4Pv8AIa9ErxsZRjTqWjtufM5phoUK3LDZq5yfif4lf2Zetb2ccczRnDu+doPoAOtZX/C19R/542X/AHw3/wAVXMsxdizcljkn1pK+SnjasndOx+J4jiPH1KjnGbiuiXQ6f/ha+o/88bL/AL4b/wCKo/4WvqP/ADxsv++G/wDiq5iqPifxJZeDfDWoaxqU32bTtJtpLy6m2M/lRRqXdtqgscKCcAEnHANT9arfzMx/t3MHoqrO1/4WvqP/ADxsv++G/wDiqP8Aha+o/wDPGy/74b/4quK8MeJLLxl4a0/WNNm+06dq1tHeWs2xk82KRQ6NtYBhlSDggEZ5Arm9e/aE8FeHIbaSfxJpsy3Wvx+FlNm5vPL1SQ4W0k8kN5cmeofaF43EZFP61X7sazrMm7KpI9Z/4WvqP/PGy/74b/4qj/ha+o/88bL/AL4b/wCKrzbwR8WPD/xG17xNpmi6h9svvB+ojSdXj8iSP7JcmGKcR5dQH/dzRtuQsvzYzkEDoqX1qsvtMJZ5mKdnVZ0//C19R/542X/fDf8AxVH/AAtfUf8AnjZf98N/8VXMUUfW638zJ/t7MP8An6zp/wDha+o/88bL/vhv/iqP+Fr6j/zxsv8Avhv/AIquYoo+t1v5mH9vZh/z9Z0//C19R/542X/fDf8AxVH/AAtfUf8AnjZf98N/8VXMUUfW638zD+3sw/5+s6f/AIWvqP8Azxsv++G/+Ko/4WvqP/PGy/74b/4quYoo+t1v5mH9vZh/z9Z0/wDwtfUf+eNl/wB8N/8AFUf8LX1H/njZf98N/wDFVzFFH1ut/Mw/t7MP+frOn/4WvqP/ADxsv++G/wDiqP8Aha+o/wDPGy/74b/4quYoo+t1v5mH9vZh/wA/WdP/AMLX1H/njZf98N/8VR/wtfUf+eNl/wB8N/8AFVzFFH1ut/Mw/t7MP+frOn/4WvqP/PGy/wC+G/8AiqP+Fr6j/wA8bL/vhv8A4quYoo+t1v5mH9vZh/z9Z1+m/Fif7Qou7eExE8mIEMv5k5rtre4S7gSWNg8cgDKw7g141Xp/w+Yv4Qs888OP/H2r0MBiJzk4T1PrOFs4xOIqyoV3zaXT67pfqedftr/tmeGf2H/g03irX7e+1a+1C7i0nQdD09d99r+ozZENrCv95iCS38KqTgnCn5nsvj5+3j46tY9U0/wf+zJ4Ls7xRJHo/iG91i+1GzB5Cyy2pELMOh2jGa0P+CkyLq3/AAU2/Yt0y4HnWEl34xvmgblGnt9KgeGTH95GJIPYmvoquHOM0q4aoqdK21/xf+R+oZbl9OvBzqd7HzX/AMLN/b+/54/se/8AfHiP/wCKo/4Wb+39/wA8f2Pf++PEf/xVfSlFeP8A2/i+6+49L+x8P5/efNf/AAs39v7/AJ4/se/98eI//iqP+Fm/t/f88f2Pf++PEf8A8VXuj/FPQY/inH4Ja+/4qaXS21pbLyJObQSiEyeZt8v/AFhA27t3fGOa6Cn/AG9jFvb7g/sjDef3nzX/AMLN/b+/54/se/8AfHiP/wCKo/4Wb+39/wA8f2Pf++PEf/xVe8eB/iTovxI/tj+xb37Z/YOpzaPf/uZI/Iu4dvmR/Oo3Y3D5lypzwTW5Q8+xi0dvuD+yMM9r/efNf/Czf2/v+eP7Hv8A3x4j/wDiqP8AhZv7f3/PH9j3/vjxH/8AFV9KUUv7fxfdfcH9j4fz+8+a/wDhZv7f3/PH9j3/AL48R/8AxVH/AAs39v7/AJ4/se/98eI//iq+lKKP7fxfdfcH9j4fz+8+a/8AhZv7f3/PH9j3/vjxH/8AFUf8LN/b+/54/se/98eI/wD4qvpSij+38X3X3B/Y+H8/vPmv/hZv7f3/ADx/Y9/748R//FUf8LN/b+/54/se/wDfHiP/AOKr6Uoo/t/F919wf2Ph/P7z5r/4Wb+39/zx/Y9/748R/wDxVH/Czf2/v+eP7Hv/AHx4j/8Aiq+lKKP7fxfdfcH9j4fz+8+a/wDhZv7f3/PH9j3/AL48R/8AxVH/AAs39v7/AJ4/se/98eI//iq+lKKP7fxfdfcH9j4fz+8+a/8AhZv7f3/PH9j3/vjxH/8AFUf8LN/b+/54/se/98eI/wD4qvpSij+38X3X3B/Y+H8/vPmv/hZv7f3/ADx/Y9/748R//FUf8LN/b+/54/se/wDfHiP/AOKr6Uoo/t/F919wf2Ph/P7z5qPxS/b9gG9rT9kGdV5Mcf8AwkSvJ7As2AT6nivUv2Hv+ChF98ffiLr3wt+JnhH/AIVv8ZPC9qNQuNHW6F1Y61YFtgvrGb+OPdgMp5QsBliG2+h18u/HdF0r/gsX+x/dW48m41a08Z2N5IvDXEEWlJLHG3qqyEsB6mvRyvOK9bEKlVtZ3/BXOLMMtpUqLqU76f8ADH39Xwz+0J/wVF+I/j79pTxJ8F/2WfhnpfxI8XeBZEg8X+KvEV+1j4V8LXD5xauyYlubgfxRxEMuGGGKuE+5q/PH/g2606G+/wCCT3g7xdKu/X/iJrmv+I9fuzy9/fNq11btMx7sY7eJf+ACvXzXGywtD2kFq3b+vuPFo0+eVmaf9t/8FMz/AA/sK/l4q/xo/tv/AIKZ/wB39hT8vFX+NfbdFfL/ANv4vuvuOv6tA+JP7b/4KZ/3f2FPy8Vf40f23/wUz/u/sKfl4q/xr7boo/t/F919wfVoHxJ/bf8AwUz/ALv7Cn5eKv8AGj+2/wDgpn/d/YU/LxV/jX23RR/b+L7r7g+rQPiT+2/+Cmf939hT8vFX+NH9t/8ABTP+7+wp+Xir/GvsnXvGmj+FtQ0u01TVtN0261y5NlpsN1dJDJqE4R5PKhViDJJ5aO+1cnajHGATWlR/b2L7r7g+rQPiT+2/+Cmf939hT8vFX+NH9t/8FM/7v7Cn5eKv8a+26KP7fxfdfcH1aB8Sf23/AMFM/wC7+wp+Xir/ABo/tv8A4KZ/3f2FPy8Vf419t0Uf2/i+6+4Pq0D4k/tv/gpn/d/YU/LxV/jR/bf/AAUz/u/sKfl4q/xr7boo/t/F919wfVoHxJ/bf/BTP+7+wp+Xir/Gj+2/+Cmf939hT8vFX+NfbdFH9v4vuvuD6tA+JP7b/wCCmf8Ad/YU/LxV/jR/bf8AwUz/ALv7Cn5eKv8AGvtuij+38X3X3B9WgfEn9t/8FM/7v7Cn5eKv8aP7b/4KZ/3f2FPy8Vf419t0Uf2/i+6+4Pq0D4k/tv8A4KZ/3f2FPy8Vf40f23/wUz/u/sKfl4q/xr7boo/t/F919wfVoHxJ/bf/AAUz/u/sKfl4q/xrE8Wf8FJf2pP2BHt/EH7UPwl+HOvfCppooNU8Z/Ca8vZ18MCRwqzXVjeZnkhBPzOmAuRjcxVG+9qx/iL4C0v4q/D/AFzwvrlql9oviTT7jS9QtnHy3FvPG0UiH2KMw/GtKfEGJUk52a9AlhY20Oq8LeJ9P8beGdO1rR7231LSdXtYr2yu7dxJDdQSIHjkRhwysrAgjqCKvV8Rf8G4ni2/8af8EWfgfealcSXNxDZ6nYI7nJENtq97bwp9FiiRR7KK+3a+2PPCiiigAooooAKKKKACiiigAooooAKKKKACiiigAooooAKKKKACiiigAooooAKKKKACiiigAooooAKKKKACiiigAooooAKKKKACiiigAooooAKKKKACiiigAooooAKKKKACiiigAooooAKKKKACiiigAooooAKKKKACiiigAooooAKKKKACiiigAooooAKKKKACiiigAooooAKKKKACiiigAooooAKKKKACiiigAooooAKKKKACiiigAooooAKKKKACiiigAooooAKKKKACiiigAooooAKKKKACiiigAooooAKKKKACiiigAooooAKKKKACiiigAooooAKKKKACiiigAooooAKKKKACuR+Kf/Lj/wBtP/Za66uR+Kf/AC4/9tP/AGWuvA/x4/P8mejlP+9R+f5M5GiiivoT7M+Yf2xPiL4jufjJp/hbwP4u+Nv/AAkNrpH2+78N/DjQ/DkrrC8rKl5d32vQtZxAlGSOBZo5XxIwSRVYpw/gf9pj4sfGX4Wfs/xx+Iv+EL17xn4s1rw54mnk0azubqSCxt9SQkRh5LeG632sb7o2lhWQH5ZYvkb6A+Jv7K6+N/ioPGWg+PPHHw91y6sodO1V/D39nPHrltC7vDFOl7aXIUoZZQJIPKkxKw3nC7aXw6/Yh8J/DHR/ANjp+peJ7iH4c63qOvaa97fLczXE98t0sq3EjIXlUC7k2kkOSqlnc7i2LjJy/rujllTqObfT181+lzw34oftAfEb9nv4WftN+Hj4+1bxZrnwv8LWviPw94k1bS9Oj1CE3VvOfLmS2t4rWXy5LclT9nX5Xw28jNdqNQ+JXx1/aj8ZeELH4qaz4E8NaJ4S8P6pAdD0TTJtSF7dNfCVhNe29xF5LrCm6MwFsqpSSMblf0D4pfsU+Ffi5J8Um1LUPEEJ+Lmg23h7WPs08K/Zre3WZUa33RNtkInfJfeOFwo5z1ng34GaT4H+KmueL7S41KTUvEGlafpFxFNIhgSKyM5iZAEDBz9ofcSxBwuAvOTklfXb19f+ACpz5tXp6vz/AOAfH/hT44fGG2/ZC8HfG3W/itqF7fWuvWWjah4csvD2mW2iazanWRp0ks4aGS8W6aNzIXguoYd6ptgVdytb+Jn7ZPiLx78SviNDpvjL40eCZvAOtXGh6JpfhL4Raj4m0nWZbeNGMmo3a6Pd7lkmYp5dpcW7JF1bewZfoUfsQ+Ex+zNa/Cn+0PEP/CO2eoxamlx58P20yR6gNQALeVs2+aNpGzOzjOfmpfHf7IU2seNtV1zwd8T/AIjfCubxA4uNYtvDQ0m4tNTuAoQXLRajY3Yil2Kqs0Hlb9oLhmAInknb7v63J9nUSVn2vr/wV+Z2/wACPHOrfE34K+FPEWu6JdeG9a1rSba9v9KuYZIZdPneNWkhZJAHUqxIwwDDHIzXWVQ8LaAvhTw1p+lx3V/fJp9vHbC4vrhri5nCKF3yyN8zucZLHkkk1froW2p1xvbUKKKKBhRRRQAUUUUAFFFFABRRRQB+Z/8AwUA/4KAf8LU/4Un/AMWT/aC8N/8ACN/FfQtc/wCJ54P+x/2p5Hn/AOh2v75vNu5N37uLjdtbkYr7Z/Zh/ar/AOGm/wC3P+Lb/Ff4e/2J5H/I6+H/AOyft/m+Z/x7/vH8zZ5fz9NvmJ13cH7Vf7MP/DTf/Ct/+J5/Yn/CvfHWmeNf+PP7T9v+xeb/AKN99PL3+Z/rPm27funPHq9YxjJSbbOanTqKblJ6BRRRWx0mv4E/5Gq1/wCB/wDoDV6LXnXgT/karX/gf/oDV6LXh5l/FXp+rPlc8/jr0X5s8Xooor4M/m04n9pH4tt8BPgD4y8aR2Q1GTwvo9zqUdqXKLcPFGzKhYAlQSACcHAya8d8bfCL4i6L8CPFniTxH8YvEHiZb7wfqUmqeHZtF0mHRYpJLGRv9CaC2jvI1jkwEM9zcZTcG3MRIv0R4t8Kab488LaloesWcOoaTrFrJZXlrMMx3EMilHRvYqSPxrx3wx+xJNoem3Gj33xc+LXiDwkdLutIsvD2oXWmfZNOgmiaBcTQ2Md3cGKJiqG7nn5w7iR1DjSEkkdeHqQjHWyd+qvdeXZ/d6nkfw8v/iR8APB/7OuvXnxQ1LxFpPjafR/DWq+GJNB0+30e2iuNOby5bNki+3RSJJFGxM93cKwaUbFynl5nxO+KWvfE2G3j1y++3L4b/aNsdF04eTHH9mtIipjj+RRuwXb5myxzyTxX034g/Zk0HxJ4Q+Heiz3erra/DTULDUtLeOWMSTyWcTRRCYlCGUqxLBQhJ6EdKxZ/2KPCtx9o3ah4g/0jx4nxDbE8PGoLtxEP3X/Hv8o+X7/+3WiqR3Z0xxVK/NJa+iXXy8jlf2JP+S7ftLf9lEj/APTLplfRVcX8LfgZpPwj8WeONY0241Ga68f60Nd1BbmRGjhnFrBbbYgqKVTZbocMWO4tzjAHaVjOV3dHDiKinO67L8EkFFFFSYhRRRQAUUUUAFFFFABRRRQAUUUUAeU/tN/tUf8ADM/9if8AFuPit8QP7a8//kS/D/8Aa32DyvL/AOPj94nl7/M+Tru8t+m3n4q/YD/b8/4Vb/wur/iyv7QHiP8A4SP4ra7rn/Ej8H/bP7L8/wAj/Q7r98PKu49v7yLnbuXk5r9K68p/ZX/Zk/4Zn/4WP/xO/wC2v+FgeOdT8af8ef2b7B9s8r/Rvvv5mzy/9Z8u7d90Y52jKKi00d9CvRjRlCcbt26vXX8LHq1FFFYnAFenfDz/AJE+z/4H/wChtXmNenfDz/kT7P8A4H/6G1ehlv8AFfp+qPreDf8AfZf4H+cT40/4KLf8pUv2Kf8Auef/AE0W9fRNfO3/AAUW/wCUqX7FP/c8/wDpot6+ia8fiP8A3mP+Ffmz9zyT+A/X9EFeC/EfxB4w+Nf7TWrfDfw7411j4b6T4U0Cy1u/1bRLOwudV1Ce7muI4oU+321zbpAiW0hciFnZnQB4wjB/eq8t+Mv7LUPxQ8eWfi3Q/GXjL4b+MLWz/syXWvDX2CSa/stxkFtPDf2t1buiyEureUJEJYK6q7q3h0pJPX/M9Som1oeKazB4h+F37Y0w1DxNceJfEGh/BbUZF1u4sYLee7ePUd0cssUSiHzMBd2xEjZgSI0UhB0Vp+0J4wl/Y1+APittXzr/AI2v/C0GtXX2WH/TUvPK+0jZs2Jv3HlFUrn5cV6T4K/ZP0jwr43sPEl/4g8WeKdctfDMvhe5u9ZuoZW1KGW4+0STSiOJAJWckYiEcSKdqRqoUDh/C3/BOXS/D1j4W0u6+JnxW1vwv4E1a01bwzoF5f2EdjoxtXYw2+6CzjnuoVRvLC3ks5ARGDCRRJXR7Sm7c3Ty9THkmtvz9DzDwF8P/iRqXh/49eJPCPxY1LwXN4d8ea9e6ZpVtomnXGm6hLHHBJs1JrqKWeSJnQqfss1oyxuw3FgJB9X/AAK+JLfGT4J+EfFzWcmnv4m0a01VrZxhrczQpIUP03Y/CvJdT/4J9w6j4g8Ybfix8VbXwj481afVtc8I276PHpd404VZ4RP/AGf9vjikVAGEd2rYJwwya980jSbXQNKtbGxt4bSysokgt4IUCRwxoAqoqjgKAAAB0AqK9SMlp+X9XNKMWtyxRRRXMbBRRRQAUUUUAFFFFABRRRQAUUUUAVdb1VdC0a8vpIbq4js4XnaK2haaaQKpYqiKCzscYCqCScAc1872X/BVn4Q3X7FA+ObaxdReHhJ/Z76QYCdaXV87P7H+y/fN95nyeV3+/nZ89fSVeC/8O0vg7/w2L/wvT/hFYf8AhOvL3/6w/wBn/bMbP7R+zf6v7b5f7vz8btvv81bUfZf8vL/L8vn36djKp7T7Fvn+f/A/Ew/2B/Bnxn8U6/4o+Lnxm1S70DUPH0NvDo3w5t3R7Hwbp0LSPCsz7d0l+/msZnBCjITB2KE+lqKKmpU55c1rehcI8qsFfL/7Q/8Ayl9/Yu/7nj/0yx19QV8v/tD/APKX39i7/ueP/TLHXo5J/vsPn+TOHNP91l8vzR9+V+fH/Btf/wAoVPgv/wBxz/0+6jX6D1+fH/Btf/yhU+C//cc/9Puo17/Ef+7R/wAS/JnzGF+P5H3PXC/tOfGJv2e/2d/G3jmOxGpS+E9FutUjtC5Rbh4o2ZULAEqpIAJwcDJruqzfGPhDTPiD4S1PQdasoNS0fWrWWxvbSYZjuYZFKOjD0Kkj8a+NjZNN7HefN/jJPif+zD8EPEHxg174va/45m0Pwzd6vqHhG50XSbfQGuPsxkVbN7e1jvoY0mChTPdXP7ouG3MRIrXvPih+zTrXw48ReI/ivq3xGsfH2v2mg63ol/oul2ljpj3quY5dLNpbxXKJFKFXZdTXZaHOX3KZD13gf9hdPDUTaTrfxU+KfjnwJHp9xpVv4O1+fTG0qG1ljMIieW3sYb26WOFmjX7XczE5DvvkVZBJ8OP2G7TwX4v0LUNb+I3xM+IGmeD5jP4Y0TxJd2Mlj4fk2NGjq9vaQ3N08cTGNHvprl1BLbjIS56vaQtrb7v+Bo/61sZ2Z5To/wC1X4+uv+CX/wAWPiJJr27xj4Z1DxXBpuofYrf/AEZLLVLuC2HleX5TbIokXLKS23LbiST1XiHUPiR8a/2w/FngXSvinrXw/wDC+j+DdE1hG0PRdMuNTF5cXF8rsk99b3EIiZIFDo8DkkIUeLD77fjf/gmfonjbQ/Gnh3/hZXxW0nwB45uLu9vvCOnX2nw6bBc3MnmzTQzmza+UNNukMJuWgJd1MRRilev+G/gZpPhf406146t7jUX1fXtGsdDuIZJENskNpJcPGyKEDBybl9xLEEBcAYOSVSmruNr69Ntv+CFn1Pg34heJPGf7WXh39lW+1D4jeJ/DPiLTvivrnhi71bQtO0pJLyaxttYtRf8AlXVpcxJK6WxygXyh58mI8iMp75/ZfxQ8dftV+IvhfbfGzxdoXh/wr4K0TUG1W00PRJNfvr6a4vo5J2lmsns0WRYF8yNbPGQpjMOGD9hcf8E9/CsPwi0/wrpXiLxhoN5ofiu98Z6N4hs5bN9V0fUbq5uJ5Wi862kt2Qi6ni2SwSAxvhtx+au3+GX7O9r8OviNfeLrjxF4j8TeJdU0HT9Av77VPsiNepZvcOk7R20EMazO1zIX2KsfC7UTBzVSvBr3bdbaLvft2DlZ8/eJP2tPHHwH8MfGLwPrWqyeI/iZpGsW8HgG7vbW2hfWrfWXKaXujhjiiYW1wLiFyBuMdnvfJYk/WPgvSdQ0HwfpdjquqTa5qlnaRQ3eoywxwvfTKgDzFI1VFLsC21FCjOAAK8U8dfs1N8Wf+ChXg74gat4XtYdH+GPhy5XStZkmjaXUtQvJNhjEYcsqW0KSNudBlrv5CcPXv1YVpRaXLvu/6/H5lRuFFFFYFBRRRQAUUUUAFFFFABXkfxc/bT8F/Av9pH4e/DPxRLqGkan8TorpdC1O4tWTSri8hMe2w+0n5BdSq7skecsIiOrIG9crz/8Aag/Zf8F/ti/BbVvAPj7SE1bw/qyg8MY7iymU5iubeUfNFPG2GSReVI7gkHSnyc3v7Cd7aHy9+1z+0d44/ba+NGsfs2/s96xNoY0lhb/FL4l2w3w+C4HHzabYt0k1WVcjAOLdTlsP9z7X0LTX0bRLOzkvLrUJLWBIWuroqZ7kqoBkcqqrvbGTtUDJOABxXE/sv/sweC/2O/gvpPgHwDpK6ToGkqW+ZjJcXs7nMtzcSn5pp5GyzyNyxPYAAegVVWpF2jBaL735v/Lp+Iop7sKKKKxKPjD/AINmv+UIvwT/AO47/wCn7Ua+76+EP+DZr/lCL8E/+47/AOn7Ua+76/VDxwooooAKKKKACiiigAooooAKKKKACiiigAooooAKKKKACiiigAooooAKKKKACiiigAooooAKKKKACiiigAooooAKKKKACiiigAooooAKKKKACiiigAooooAKKKKACiiigAooooAKKKKACiiigAooooAKKKKACiiigAooooAKKKKACiiigAooooAKKKKACiiigAooooAKKKKACiiigAooooAKKKKACiiigAooooAKKKKACiiigAooooAKKKKACiiigAooooAKKKKACiiigAooooAKKKKACiiigAooooAKKKKACiiigAooooAKKKKACiiigAooooAKKKKACiiigAooooAKKKKACiiigArnfiLo8uo6fFNEpdrUkso67TjJ/DAroqK0pVHTmprobYes6NRVI9DyOivUpdEs53LPZ2rs3UtEpJ/Sm/8ACP2H/PjZ/wDflf8ACvU/tSP8p9B/b0P5GeX0V6h/wj9h/wA+Nn/35X/Cj/hH7D/nxs/+/K/4U/7Tj/Kw/t6n/Kzy+ivUP+EfsP8Anxs/+/K/4Uf8I/Yf8+Nn/wB+V/wo/tOP8rD+3qf8rPL6K9Q/4R+w/wCfGz/78r/hR/wj9h/z42f/AH5X/Cj+04/ysP7ep/ys8vor1D/hH7D/AJ8bP/vyv+FH/CP2H/PjZ/8Aflf8KP7Tj/Kw/t6n/Kzy+ivUP+EfsP8Anxs/+/K/4Uf8I/Yf8+Nn/wB+V/wo/tOP8rD+3qf8rPL6K9Q/4R+w/wCfGz/78r/hR/wj9h/z42f/AH5X/Cj+04/ysP7ep/ys8vor1D/hH7D/AJ8bP/vyv+FH/CP2H/PjZ/8Aflf8KP7Tj/Kw/t6n/Kzy+ivUP+EfsP8Anxs/+/K/4Uf8I/Yf8+Nn/wB+V/wo/tOP8rD+3qf8rPL6K9Q/4R+w/wCfGz/78r/hR/wj9h/z42f/AH5X/Cj+04/ysP7ep/ys8vor1D/hH7D/AJ8bP/vyv+FH/CP2H/PjZ/8Aflf8KP7Tj/Kw/t6n/Kzy+ivUP+EfsP8Anxs/+/K/4UDQLEf8uNn/AN+V/wAKX9qR/lD+3qf8rOS+HWjyz6qt4VKwwAgMf4mIxgfma7mkRFjQKqhVXgADgUtediK7qz5meHjMU8RU9o1boeS+INEm0DU5IJFIXJKN2dexFUa9kurOG9j2zRRzL6OoYfrVb/hG9O/6B9l/34X/AArwp5Y7+69D84xHBknUbo1Eo9E1seSUV63/AMI3p3/QPsv+/C/4Uf8ACN6d/wBA+y/78L/hU/2ZL+Yw/wBS6/8Az8X3M8kor1v/AIRvTv8AoH2X/fhf8KP+Eb07/oH2X/fhf8KP7Ml/MH+pdf8A5+L7meSUV63/AMI3p3/QPsv+/C/4Uf8ACN6d/wBA+y/78L/hR/Zkv5g/1Lr/APPxfczySivW/wDhG9O/6B9l/wB+F/wo/wCEb07/AKB9l/34X/Cj+zJfzB/qXX/5+L7meSUV63/wjenf9A+y/wC/C/4Uf8I3p3/QPsv+/C/4Uf2ZL+YP9S6//PxfczySivW/+Eb07/oH2X/fhf8ACj/hG9O/6B9l/wB+F/wo/syX8wf6l1/+fi+5nklFet/8I3p3/QPsv+/C/wCFH/CN6d/0D7L/AL8L/hR/Zkv5g/1Lr/8APxfczySivW/+Eb07/oH2X/fhf8KP+Eb07/oH2X/fhf8ACj+zJfzB/qXX/wCfi+5nklFet/8ACN6d/wBA+y/78L/hR/wjenf9A+y/78L/AIUf2ZL+YP8AUuv/AM/F9zPJKK9b/wCEb07/AKB9l/34X/Cj/hG9O/6B9l/34X/Cj+zJfzB/qXX/AOfi+5nklFet/wDCN6d/0D7L/vwv+FH/AAjenf8AQPsv+/C/4Uf2ZL+YP9S6/wDz8X3M8mgge6mWONWkkc4VVGSTXq/hjS20XQba2f78a5bHYkkn+dT2mlWtg26C2t4WPeOML/KrFdeFwfsW5N3Z9BkfD6wEpVZy5pNW8kj4t/4K5fDzxP4Y8T/Bn4+eF9CvvFR+BerahNrek2K77uXR9Rtlt7yeFP43iVFbaOxYkgKSJPA//BTH9n74geGLTVrP4x/Dq0t7yMSLDqevW2nXUeRnDwzukiEejKK+zq8p8V/sI/A/x5rtxqmufBr4U61qd0xee7vvCVhcTzMepZ3iLMfcmsMwymnipKcm01ofaYPMJ4dOKV0zx3/hv74D/wDRbPhH/wCFhp//AMeo/wCG/vgP/wBFs+Ef/hYaf/8AHq9R/wCHcP7PP/RBvgx/4ROmf/GaP+HcP7PP/RBvgx/4ROmf/Ga8/wD1bpfzv7kdn9uVP5UeXf8ADf3wH/6LZ8I//Cw0/wD+PUf8N/fAf/otnwj/APCw0/8A+PV6j/w7h/Z5/wCiDfBj/wAInTP/AIzR/wAO4f2ef+iDfBj/AMInTP8A4zR/q3S/nf3IP7cqfyo8u/4b++A//RbPhH/4WGn/APx6j/hv74D/APRbPhH/AOFhp/8A8er1H/h3D+zz/wBEG+DH/hE6Z/8AGaP+HcP7PP8A0Qb4Mf8AhE6Z/wDGaP8AVul/O/uQf25U/lR5d/w398B/+i2fCP8A8LDT/wD49R/w398B/wDotnwj/wDCw0//AOPV6j/w7h/Z5/6IN8GP/CJ0z/4zR/w7h/Z5/wCiDfBj/wAInTP/AIzR/q3S/nf3IP7cqfyo8u/4b++A/wD0Wz4R/wDhYaf/APHqP+G/vgP/ANFs+Ef/AIWGn/8Ax6vUf+HcP7PP/RBvgx/4ROmf/GaP+HcP7PP/AEQb4Mf+ETpn/wAZo/1bpfzv7kH9uVP5UeXf8N/fAf8A6LZ8I/8AwsNP/wDj1H/Df3wH/wCi2fCP/wALDT//AI9XqP8Aw7h/Z5/6IN8GP/CJ0z/4zR/w7h/Z5/6IN8GP/CJ0z/4zR/q3S/nf3IP7cqfyo8u/4b++A/8A0Wz4R/8AhYaf/wDHqP8Ahv74D/8ARbPhH/4WGn//AB6vUf8Ah3D+zz/0Qb4Mf+ETpn/xmj/h3D+zz/0Qb4Mf+ETpn/xmj/Vul/O/uQf25U/lR5d/w398B/8Aotnwj/8ACw0//wCPUf8ADf3wH/6LZ8I//Cw0/wD+PV6j/wAO4f2ef+iDfBj/AMInTP8A4zR/w7h/Z5/6IN8GP/CJ0z/4zR/q3S/nf3IP7cqfyo8u/wCG/vgP/wBFs+Ef/hYaf/8AHqP+G/vgP/0Wz4R/+Fhp/wD8er1H/h3D+zz/ANEG+DH/AIROmf8Axmj/AIdw/s8/9EG+DH/hE6Z/8Zo/1bpfzv7kH9uVP5UeXf8ADf3wH/6LZ8I//Cw0/wD+PUf8N/fAf/otnwj/APCw0/8A+PV6j/w7h/Z5/wCiDfBj/wAInTP/AIzR/wAO4f2ef+iDfBj/AMInTP8A4zR/q3S/nf3IP7cqfyo8u/4b++A//RbPhH/4WGn/APx6j/hv74D/APRbPhH/AOFhp/8A8er1H/h3D+zz/wBEG+DH/hE6Z/8AGaP+HcP7PP8A0Qb4Mf8AhE6Z/wDGaP8AVul/O/uQf25U/lR5ZP8A8FBPgNbwtI3xr+ExVAWIXxdYM34AS5P0FeS/s3eKf+HjP/BSrwb8UvB9rdTfCL4B6dq1pZ+JJoXhh8RaxqEItporYMAZIooRkuOA2OzKT9Xw/wDBOf8AZ7t5Vkj+BPwajkQhlZfBWmgqR3B8mvW9D0Kx8MaRb6fptna6fYWaCOC2toVhhhQdFVFACgegFdeByWlhqntU22tjmxWaVK0PZtJItV+VP7Ev7TGg/wDBFnxh4i/Zh+O1zN4J8G2ev32qfCzxpfQOuha1pN3O1x9jkuFBSC5gkklL+YQvznlQIzJ+q1YnxC+Gnhv4t+GJtD8V+H9E8TaLcEGWw1axivbWUjpujkVlPU9R3rvxmDhiafs6h59Oo4O6PBh/wVB/ZoI/5OI+Bn/heaV/8fo/4eg/s0f9HEfAv/wvNK/+P1un/glp+zGT/wAm5/Aj/wAIDSv/AIxSf8OtP2Y/+jc/gP8A+EBpX/xivF/1bpfzv7kb/Wn2MP8A4eg/s0f9HEfAv/wvNK/+P0f8PQf2aP8Ao4j4F/8AheaV/wDH63P+HWn7Mf8A0bn8B/8AwgNK/wDjFH/DrT9mP/o3P4D/APhAaV/8Yo/1bpfzv7kH1p9jD/4eg/s0f9HEfAv/AMLzSv8A4/R/w9B/Zo/6OI+Bf/heaV/8frc/4dafsx/9G5/Af/wgNK/+MUf8OtP2Y/8Ao3P4D/8AhAaV/wDGKP8AVul/O/uQfWn2MP8A4eg/s0f9HEfAv/wvNK/+P0f8PQf2aP8Ao4j4F/8AheaV/wDH63P+HWn7Mf8A0bn8B/8AwgNK/wDjFH/DrT9mP/o3P4D/APhAaV/8Yo/1bpfzv7kH1p9jD/4eg/s0f9HEfAv/AMLzSv8A4/R/w9B/Zo/6OI+Bf/heaV/8frc/4dafsx/9G5/Af/wgNK/+MUf8OtP2Y/8Ao3P4D/8AhAaV/wDGKP8AVul/O/uQfWn2MP8A4eg/s0f9HEfAv/wvNK/+P0f8PQf2aP8Ao4j4F/8AheaV/wDH63P+HWn7Mf8A0bn8B/8AwgNK/wDjFH/DrT9mP/o3P4D/APhAaV/8Yo/1bpfzv7kH1p9jD/4eg/s0f9HEfAv/AMLzSv8A4/R/w9B/Zo/6OI+Bf/heaV/8frc/4dafsx/9G5/Af/wgNK/+MUf8OtP2Y/8Ao3P4D/8AhAaV/wDGKP8AVul/O/uQfWn2MP8A4eg/s0f9HEfAv/wvNK/+P0f8PQf2aP8Ao4j4F/8AheaV/wDH63P+HWn7Mf8A0bn8B/8AwgNK/wDjFH/DrT9mP/o3P4D/APhAaV/8Yo/1bpfzv7kH1p9jD/4eg/s0f9HEfAv/AMLzSv8A4/R/w9B/Zo/6OI+Bf/heaV/8frc/4dafsx/9G5/Af/wgNK/+MUf8OtP2Y/8Ao3P4D/8AhAaV/wDGKP8AVul/O/uQfWn2MP8A4eg/s0f9HEfAv/wvNK/+P0f8PQf2aP8Ao4j4F/8AheaV/wDH63P+HWn7Mf8A0bn8B/8AwgNK/wDjFH/DrT9mP/o3P4D/APhAaV/8Yo/1bpfzv7kH1p9jD/4eg/s0f9HEfAv/AMLzSv8A4/R/w9B/Zo/6OI+Bf/heaV/8frc/4dafsx/9G5/Af/wgNK/+MUf8OtP2Y/8Ao3P4D/8AhAaV/wDGKP8AVul/O/uQfWn2MP8A4eg/s0f9HEfAv/wvNK/+P14b+2p/wWj+HOkeBb3wP8A/EWn/ABs+OXjG2fTfCmieCrhNXjguZVKLd3FxDugihgJEjBnBIXnau50+jv8Ah1p+zH/0bn8B/wDwgNK/+MV3/wAHP2Yvhr+ztHcL8Pvh54G8CreDE48PaDa6WJxnPzeQi7ufWrp8O0YyUpSbXYJYqTWhwn/BM79kVv2EP2D/AIZ/Cea5hvL7wlpOzUJov9VJezyyXN0U7lPPml2k8lcdK90oor6E5QooooAKKKKACiiigAooooAKKKKACiiigAooooAKKKKACiiigAooooAKKKKACiiigAooooAKKKKACiiigAooooAKKKKACiiigAooooAKKKKACiiigAooooAKKKKACiiigAooooAKKKKACiiigAooooAKKKKACiiigAooooAKKKKACiiigAooooAKKKKACiiigAooooAKKKKACiiigAooooAKKKKACiiigAooooAKKKKACiiigAooooAKKKKACiiigAooooAKKKKACiiigAooooAKKKKACiiigAooooAKKKKACiiigAooooAKKKKACiiigAooooAKKKKACiiigAooooAKKKKACiiigAqO6uVtYtzfgPWpKz9dPEX4/wBK4sxxEqGHlVjuv1djSlHmkkyNtbkzwsf45o/tub+7H+R/xqnRXxH9q4v/AJ+M9D2MOxc/tub+7H+R/wAaP7bm/ux/kf8AGqdc38M/i34e+MWm6leeHNQ/tG30fVbrRbt/Ikh8m7tZDFPFiRVJ2uCNwyp6gkc0f2pjLX52HsYdjsP7bm/ux/kf8aP7bm/ux/kf8ap0Uf2ri/8An4w9jDsXP7bm/ux/kf8AGj+25v7sf5H/ABqnRR/auL/5+MPYw7Fz+25v7sf5H/Gj+25v7sf5H/GqdFH9q4v/AJ+MPYw7Fz+25v7sf5H/ABo/tub+7H+R/wAap0Uf2ri/+fjD2MOxc/tub+7H+R/xo/tub+7H+R/xqnRR/auL/wCfjD2MOxc/tub+7H+R/wAaP7bm/ux/kf8AGqdFH9q4v/n4w9jDsXP7bm/ux/kf8aP7bm/ux/kf8ap0Uf2ri/8An4w9jDsXP7bm/ux/kf8AGj+25v7sf5H/ABqnRR/auL/5+MPYw7Fz+25v7sf5H/Gj+25v7sf5H/GqdFH9q4v/AJ+MPYw7Fz+25v7sf5H/ABo/tuX+7H+R/wAap0Uf2ri/+fjD2MOxsWOoLeDbja47etWKx9KP+nx/j/Ktivr8nxk8Rh+apunb12/zOGvBRlZHM+I/iF/Z121vaxpK0Zw7vnaD6ACsv/hZt/8A88bP/vhv/iq55mLsWPJJyTSV8pWzjFTm5KVl2R9VTy3DxiouN/M6L/hZt/8A88bP/vhv/iqP+Fm3/wDzxs/++G/+KrnaKz/tXF/8/Gaf2fh/5EdF/wALNv8A/njZ/wDfDf8AxVH/AAs2/wD+eNn/AN8N/wDFVztFH9q4v/n4w/s/D/yI6L/hZt//AM8bP/vhv/iqP+Fm3/8Azxs/++G/+Krz/wAXfEzQ/Auu+HdM1W++y33iu+bTdKj8mST7VcLDJOUyqkL+7hkbLkD5cZyQDvUf2pjP52H1DDfyo6L/AIWbf/8APGz/AO+G/wDiqP8AhZt//wA8bP8A74b/AOKrnaKP7Vxf/Pxh/Z+H/kR0X/Czb/8A542f/fDf/FUf8LNv/wDnjZ/98N/8VXO0Uf2ri/8An4w/s/D/AMiOi/4Wbf8A/PGz/wC+G/8AiqP+Fm3/APzxs/8Avhv/AIqudoo/tXF/8/GH9n4f+RHRf8LNv/8AnjZ/98N/8VR/ws2//wCeNn/3w3/xVc7RR/auL/5+MP7Pw/8AIjov+Fm3/wDzxs/++G/+Ko/4Wbf/APPGz/74b/4qudoo/tXF/wDPxh/Z+H/kR0X/AAs2/wD+eNn/AN8N/wDFUf8ACzb/AP542f8A3w3/AMVXO0Uf2ri/+fjD+z8P/Ijov+Fm3/8Azxs/++G/+Ko/4Wbf/wDPGz/74b/4qudoo/tXF/8APxh/Z+H/AJEdF/ws2/8A+eNn/wB8N/8AFUf8LNv/APnjZ/8AfDf/ABVc7RR/auL/AOfjD+z8P/IjqtP+J03nqLqCLyyeTHkFfzJzXYQTrcwrJGwaOQBlI7g15LXo3gZi3hW1z6MP/HjXvZHmFatUlSqu+l/xX+Z5GbYOlSgqlNW1sWNf16Hw7p7XE2TztRR1c+lcdL8WL4yHy7e0VewYMx/PIq58XmIXT17EyHH/AHzXFV3YzFVI1OSLtY/IOIs8xdLGPD0ZcqjbbrdJ/qdP/wALX1H/AJ42X/fDf/FUf8LX1H/njZf98N/8VXMVh/8ACydF/wCFlf8ACH/bP+Ki/sz+2Psnkyf8evm+T5m/bs/1nG3du74xzXH9arfzM8FZ5mL2qs9D/wCFr6j/AM8bL/vhv/iqP+Fr6j/zxsv++G/+KrhvEfjLR/B32H+19V03S/7Uu0sLP7ZcpB9ruHzshj3Eb5GwcIuScHArSo+tVv5mL+3Mw39qzp/+Fr6j/wA8bL/vhv8A4qj/AIWvqP8Azxsv++G/+KrmKw/DnxI0XxZ4s8QaHp959o1TwtLDBqkHkyL9leaITRjcyhWzGwOVJAzg4PFH1qt/Mx/25mL2qs9D/wCFr6j/AM8bL/vhv/iqP+Fr6j/zxsv++G/+KrmKKPrdb+Zk/wBvZh/z9Z0//C19R/542X/fDf8AxVH/AAtfUf8AnjZf98N/8VXMUUfW638zD+3sw/5+s6f/AIWvqP8Azxsv++G/+Ko/4WvqP/PGy/74b/4quYoo+t1v5mH9vZh/z9Z0/wDwtfUf+eNl/wB8N/8AFUf8LX1H/njZf98N/wDFVzFFH1ut/Mw/t7MP+frOn/4WvqP/ADxsv++G/wDiqP8Aha+o/wDPGy/74b/4quYoo+t1v5mH9vZh/wA/WdP/AMLX1H/njZf98N/8VR/wtfUf+eNl/wB8N/8AFVzFFH1ut/Mw/t7MP+frOn/4WvqP/PGy/wC+G/8AiqP+Fr6j/wA8bL/vhv8A4quYoo+t1v5mH9vZh/z9Z0//AAtfUf8AnjZf98N/8VR/wtfUf+eNl/3w3/xVcxRR9brfzMP7ezD/AJ+s6gfFfUM/6mz/AO+G/wDiq6Twh40j8TK0bJ5N1GMlM5DD1H+FeZ1t/Dtivi+1/wBoOD7/ACNW+HxlX2iUndPQ9PKM/wAb9bhCpPmjJpNPzdj02uF8a/GQaLqMlpp8MdxJCdskshOwN3AAxnHrmu6r50d2kdmY7mY5JPc19zkeBp15ylVV1G2nrf8AyP0upJrY7P8A4Xrq/wDz76b/AN+3/wDi6P8Aheur/wDPvpv/AH7f/wCLri6o+JfEdn4P8Oahq2pTfZ9P0u2kvLqXYz+VFGpd22qCThQTgAk9hX0n9l4T+RGPPI9C/wCF66v/AM++m/8Aft//AIuj/heur/8APvpv/ft//i6898NeI7Pxh4c0/VtNm+0afqltHeWsuxk82KRQ6NtYAjKkHBAI7ir1H9l4T+RBzyO0/wCF66v/AM++m/8Aft//AIuj/heur/8APvpv/ft//i64uin/AGXhP5EHPI7T/heur/8APvpv/ft//i6P+F66v/z76b/37f8A+Lri6KP7Lwn8iDnkdp/wvXV/+ffTf+/b/wDxdH/C9dX/AOffTf8Av2//AMXXF0Uf2XhP5EHPI7T/AIXrq/8Az76b/wB+3/8Ai6P+F66v/wA++m/9+3/+Lri6z9d8V6X4XexXU9S0/Tm1O6SysxdXCQm7uHyVhj3Eb5GwcKuScHjil/ZeE/kQc8j0T/heur/8++m/9+3/APi6P+F66v8A8++m/wDft/8A4uuLrA8SfFDQ/CPjTw74e1C++z6x4re4TSrfyZH+1GCPzZRuVSq7U5+cjPQZPFDyzCLeCDnkep/8L11f/n303/v2/wD8XR/wvXV/+ffTf+/b/wDxdcXRT/svCfyIOeR2n/C9dX/599N/79v/APF0f8L11f8A599N/wC/b/8AxdcXRR/ZeE/kQc8jtP8Aheur/wDPvpv/AH7f/wCLo/4Xrq//AD76b/37f/4uuLoo/svCfyIOeR2n/C9dX/599N/79v8A/F0f8L11f/n303/v2/8A8XXF0Uf2XhP5EHPI7T/heur/APPvpv8A37f/AOLq5o/x2uftai/tLdoGOGaAFWUeuCTn6cV5/RSllOEatyIOeR9EWl3HfWsc0LLJFKodGHRgelSVzvwodpPAGnljniQfgJGAroq+FxFP2dWVPs2vuZ0rVXCiiisRhRRRQAUUUUAFFFFABRRRQAUUUUAFFFFABRRRQAUUUUAFFFFABRRRQAUUUUAFFFFABRRRQAUUUUAFFFFABRRRQAUUUUAFFFFABRRRQAUUUUAFFFFABRRRQAUUUUAFFFFABRRRQAUUUUAFFFFABRRRQAUUUUAFFFFABRRRQAUUUUAFFFFABRRRQAUUUUAFFFFABRRRQAUUUUAFFFFABRRRQAUUUUAFFFFABRRRQAUUUUAFFFFABRRRQAUUUUAFFFFABRRRQAUUUUAFFFFABRRRQAUUUUAFFFFABRRRQAUUUUAFFFFABRRRQAUUUUAFFFFABRRRQAUUUUAFFFFABRRRQAUUUUAFZ+u/8svx/pWhWfrv/LL8f6V5Wd/7lP5fmjbD/wARGfRRRXwB6R87/E7xH4y+PX7WGrfDHwx8Qdb+F+k+CfD9lr2qaloFnpt1q2qT3stzFBAP7RtbqCO3RLaR2KwmR3eMB0VGWT54+BHivUvg7+yH4i0KH4j/ABOi8W6p8YvEunWF54b0DSdT8U+LJ0u7mRreKOe0/s2B5Am955YYreJUYs0QO9frX40/soL8UfiLa+MfD/j7x18MfFsNh/ZN1qnhj+zZW1OyDtIkE8OoWd3bsI5GdkdYlkXe4D7WZTyOmf8ABN3wz4W+G9povh/xp8RvD+s6X4qv/GGm+KINQtbvWdPvb55DdKGu7eaCaGRZZIzHPDKArAjDIjr3Qq01Gz8unbvptf10M3F3PBbb9rH41+DvgB8ftL1C88aaH4t+H66LceHdU8e6Z4euNaiW/lVG+1RaLK2nTxKyvs2CGTaxDYYLIfYJfFHxA/Zr/a78HaL4g+J2vfEXw38Q9G1u7udN1PRdMtV0W7skhuENg9nbwyrAUeWMx3TXUmBEfN3K7SdFbf8ABPDw7c6B4+tta8ZfEPxPqXxMi0xNe1XVL+1a6lawYGJ4Ujt0t7fdgbo4YkizllRWZmb0vxr8CNH8efGLwb42vZ9QXVPA8V/DYwRugtp1vIkil81ShZsKg27WXBJznpUyrU+iXXp5Lb5hys8U/Z4X4mfGn4Y+E/jXqXxc8Q6Xa69Zx+IpPA1jo2kz+HksJFMiWnmNaf2i0whK5mF4B5wLCIR/uK8A+Hn/AAUG8efEXwL4V+J2i618dta8QeJLqyuT8Oofgpq6+ERYXFwiNFFqZ0UTmaO2ff8Aam1D7O0qFtgiYIPqn4f/ALC6fCvxHYR+Hvip8U9L8A6Xem9tPAUM+mf2HACS/wBnWc2J1L7P5hL+T9t2Afu8eT+6qPw5+wo3gPUoLTwv8Xvi54X8C2159qi8F2F1pbaVAhk81raK4msZNShtyxIEUV4ixofLi8uMKgqNSld3t5adO22/9XCzPeqKKK4TQKKKKACiiigAooooAKKKKACiiigD8u/+CiH/AAUQ/wCFs/8ACi/+LF/tF+Gf+EZ+Luga9/xPvBn2P+1fI+0f6Fafvm828k3/ALuLjdtbkYr7o/ZX/a2/4ak/t7/i2Xxc+HP9hfZ/+R48O/2R/aHneb/x7/vH8zZ5Xz9NvmR9d3B+1r+yx/w1J/wrL/iff2F/wrnx9pXjj/jy+1f2h9i83/Rf9Ynl7/N/1nzbdv3Gzx65XVUq03TUYrXXrsZxi07sKKKK5TQsaV/x/wAf4/yNbFY+lf8AH/H+P8jWxX2nDn+7S/xP8kcGK+P5HkdFFFfFn25yvx38S3vgz4H+MtY02b7NqOk6He3lrNsV/Kljt3dG2sCpwwBwQQccg1826T4t+K3wn8G/Bv4ka18VNW8aW/ji80TSvEfhmbQNMtdLQajFHH9osPJhS8hljnaOQia6uEKGYbB8jR/SXx38N3vjP4H+MtH02H7TqOraHe2drDvVPNlkt3RF3MQoyxAySAM8kV4/+zf+xJqHhPwz8Pbr4g/ELx/48vPBun2k1hoeuro0enaFfpbCIyRjT7G3aZ4gXRDPJMFzuHz4euqjKKg3K33a7dOxhUjJy0uc/o/7SPjS6/Yg+PvjCTWt3iLwTqvi620W7+yQf6HHYyTrajZs2PsCLy6sWx827mtDV9d+I3xj/aUs/Bul/ErVPA3h9vh7Ya9dzaRo2nXGqNeyXbp5kM13DPDGpVCro9vKCCNhiYFm1viN/wAE8NJ+Idv480pfiN8UNA8GfEj7XJrfhfSb6xhsJLi6j2TTxTtaNewsxw5SO5WItnMZVnVvT/DfwJ0jwt8U18XW9xqT6kvh638NeXJIhg+zQSvKj4CBvMLOQTu24xhR1qpVKa1jv6en/BEoTej/ADPiX4nftgXnw/8Ahf8ACXxh8QZte8Y33w3+Kmv+H7q50fQzPqfiA2VjqtvDILS1Tb58qhC/lokSsXbEcY+X67/ZL1XxZ47+HY8a+KfE2n6wPGwj1XTNL0n7PNpegWboDFBBcpGsl0xUhpJnYqzk+WqIADV8MfsWeFvCmpaPdW+oeIHk0PxlqXjiASTwlXvb5LhJo2xEMwgXMm1RhgQuXbBzu/BH9nDRf2e9U8R/8Ize6ta6D4hvW1JPDzyRNpekXEhLTvaL5YkiWZyXaPzGjDElEQs24rVKco2jv/wdvIKdOaleX9afieg0UUVxnQFFFFABRRRQAUUUUAFFFFABRRRQB5R+09+1X/wzJ/Yf/Ft/iv8AEL+2/P8A+RK8P/2t9g8ry/8Aj4/eJ5e/zPk67vLfpt5+Jv8Agn//AMFAP+FV/wDC7P8Aiyf7QXiT/hJPivruuf8AEj8H/bP7L8/yP9Duv3y+Vdx7f3kXO3cvJzX6YV5R+yp+zD/wzJ/wsj/ief23/wALC8dan41/48/s32D7b5X+jfffzNnl/wCs+Xdu+6Mc9dKrTjTcZLXTruc9SnNzTT0PV6KKK5DoCvRfAn/Iq2v/AAP/ANDavOq9F8Cf8ira/wDA/wD0Nq+g4c/3mX+F/mjx87/gL1/RmF8Xv+Yf/wBtP/ZK4uu0+L3/ADD/APtp/wCyVxdenjv48vl+SP594m/5GVT/ALd/9JQV8wfF7wL4k+IX/BRGDT9A8cal4Djb4bFrrUNK060utTwNVBQQPeRzW0YJBD+ZbSllbCmNgHr6frlf+FQ6b/wu/wD4T7z77+2P7D/4R/yd6/ZvI+0efu27d3mbuM7sY7Z5rmhKx5FCpyNvyfmfMXh/9pz4g6X8IfDdrfeJ/wC1Nd0n4zr8P9S1htMtoJdb09LqRQ0sSr5SSvCYw7wpGC6syLGCFF2K5+MHxY8P/GLxJpfxk1LwxN4A8U6xaeHdKtvD2lSabcQ2scUkcGpNPA880RcMpa3mtZBHIwLlgsg9a/4Yo8K/2d9l/tDxB5f/AAnn/Cw8+fDu/tDfv8r/AFX/AB75/h+/j+OvNfAH7DPijxTrvxQXxV8QviJoPhHxh4x1G+bwlpsmjLpur6fMIx884s31CMTBWDhLuNwMgbAeduaG6/I741qDvJWXql3Wyt/Xkd94Z/au8S+JfAvgXWtN+DPxE8TWvjDRLHVp73SLvQ4bXS2uI1dopFvdRt5yU3ZOyJxjGCTxXmWm/DHxp8R/2pP2gv8AhHfihrvw3trW70iSN9D0jTbq8muBpSf657+C5iaDBT93HDHJuUnziG2j6x0jSbXQNKtbGxt4bSysokgt4IUCRwxqAqoqjgKAAAB0ArmfCnwZ0vwf468aeILW4v5Lzx1NbzX6SuhihMFutunlAKCAUUE7i3PoOKzjNK9l/Vzlp4iMeblSV1p16p63utl2Pm/4M/tB+Pv2zND+GWiWfi66+HV1rPgZPF3iDWdB02zlvricz/ZlgtVvorm3jiLrK7loZWx5ahkJya/iD4/fFDS9BXwTb+Mrf/hKfDfxV0rwVc+KJtFt5X1jTrm1juvMmt12QrcmOXYzQiNPMQOI0U+TXqWn/sFaH4S+HvgvR/CfjDx14M1jwHpz6RpniTS5rGTUns5GDyW88dzazWkyMyq3z25KFQUKEknlfjb+xJqUXwm8H+HfA+veLF1r/hP9P8TeIPFr3FhNrcrqGE+oP9pha1aQKI1ES25jVQqRwqqqq6c0LnVGrh3Oyta+l1tru3bVW6fhodB8H9X8bfCH9qyf4b+JPHeufErRdc8Mt4j03Uta07TrbUtLmguUt57eR7CC2geFxNE8eYA6sswMjgqqe/V5v8Fv2bbf4T+JtS8Rap4p8UfEDxfqtvHYza/4iFkt2lpGxZLWOOytra3jjDszHZCGdjl2bau30isZtN6Hn4iUZSvHt0Vk36BRRRUmIUUUUAFFFFABRRRQAV+an7fn7fn/AAtL/hSv/Flf2gPDn/COfFbQtc/4nng/7H/ankef/odr++Pm3cm793Fxu2tyMV+ldeU/tUfsyf8ADTH/AArj/id/2L/wr/xzpnjT/jz+0/b/ALH5v+jffTy9/mf6z5tu37pzxpSklK8jswNanTqc1Rf8AP2ZP2qP+GmP7b/4tx8Vvh//AGL5H/I6eH/7J+3+b5n/AB7/ALx/M2eX8/Tb5idd3Hq1FFRK19DmqSi5XirIK2vh5/yOFn/wP/0Bqxa2vh5/yOFn/wAD/wDQGrXD/wAWPqvzOzKv99o/44/mj06vnOvoyvnOv07hv/l58v1P2Ot0CuJ/aW/5Ny+IH/Yt6j/6SyV21Zfjjwlb+P8AwVrGg3jzx2etWU1hO8JCyJHLGyMVJBAYBjjIIz2NfTSV00Ynyb8P7/4ifAXwn+zzrl58TdS8RaT40m0jw5qnhmTQ9Pt9It4p9Oby5bNkj+2xSJJFGxM93cKwaUbBlPL5DxL+294r8fr448SaH4k+Mmjat4W1jU9M8P8AhTQ/hDqeteHtY+wzPCi318ukTySNPJE+5rW7gWNXRfvIzt9Z6/8As1aF4j8J/D7R5rvVltfhvf2Oo6YySxiSeS0iMUYmJQhlKsSwUKSehHSuZ1/9jdx4m1i+8I/FD4mfDfT/ABFdPf6no+gSaXLY3NzJjzZkF9ZXMls0mMuLaSJS5aTaJHd245UaiVovT1fb1X5laHlPxx+Mvjjx54z8nwPrfx5i13T9Bsr3VPC/gzQPDK2vh+aaJpR9uu9eiRJJW3KDb286yoqFmRQ4etD4AftY+K9WvPhB4t8capb2Xhf4veC1ZrMwW9va6LrtvG11JtcbpCLi384lWlkVDZjaRuYt6d4j/Y/t7/x5fa3ofj74heD4tdhgh1/TtIubNrfxAYYhCsk0tzbTXMUxhCoZbaaGQhVJbcoYU/E/7BPgnxh+yPoPwZvrrxLJ4X8Nw2UNleLqOzVF+yspRjOqjLMoKOdvzo7g/eNV7OrzOSf46b6fhv8AkGh5v4U+PnxH0ux+G/xS1/Wbk+APHXiO5sLzQ2srZI9H02/dY9GuTIIBPuV44Q4ZyM6g+7IjTb2Xw1/aH8Y+KLHxt450/wANeJviB4XuPEDaL4X0LQDpNvOtraAw3F+Zb25tldZblZQAZj8kcRVPmYnqP2xvhff/ABF/ZT8SeB/Dfh211ibxBZx6Hb2rypb29hFIyRG5JZk+W3Q+aFQ7yYgFBOK734YfDrS/hF8OdC8LaLAtvpPh6xh0+0jAA2xxIEXOO5AyfcmqjTmpWu7frt/wbdxHi3x0+K/xA17W/grp2hSat8Krjx3r95Y61Z6rY6dqWoW9tHpt5NtUwzT2yTb4kdHWSVAQu9JF3RnjfBWhfFrxb8ZPin8O5vj14wt9N8CR6df6brcHh7QRr1w13bSO0Fy7WLWT26smVEdnFLk8zEfKfo7x58INN+Ifjbwbr17PfRXngfUJtRsUgdVjlkltZrZhKCpJUJMxAUqdwHJGQa/hv4IaT4X+KXjLxdb3GoPqXjiGzgvo5JEMES2sTxx+UAoYEq5LbmbJxjHSqdGTldt793tby8wPkm3/AG9/EHxM8HfCfSdQ1rx54QuPFPgoeJ9b13wL4DuvEupvcLMtuIYYI7C/gt4ncSO7zQtxsRCpJI5/4m+I/HH7Q3gv4Y2mpeK/iZ4afQPjBZ6TpfiK78JQ6DqfiG0a2aSG+ls9S04BJ4yzxkpbxwuyMwj2lVX6asP2F9D8K/DjwdonhbxZ418H6t4FsW0zTPEmmTWb6obR23SQTJcW0tpNGzAHElu21lDJsbmr2t/sgR+LvhWvh/XviD8Qtc1u31iLXrLxVdTWC6tpl5CV8mSCOO0SyjVFXb5YtfLcM5dXZ2Y8/sarVpPp/l59/L5jujzH9oHxB4x0HxxpPgnwp8Rv2gPFXifRdGin1Ky8HaF4S+1yLJJNsv7+71W1isEL+X5aQW5ic7GYRsu5k5r4YfF3Xvjn4x/ZR8SeKIBb+ILq48TW1+nlRxMZYLaSAlkjeSNXPl5YRuyBi20lcV7VffsdXUniuz8QWPxZ+J2j+IJLCDTtd1CyXRg/iqKF2aI3cb6e0UUiiSRBJZpbNtfBJKoVs/Df9ifwp8Lbb4dQ6dqHia4T4YzajNpRvb4XUlwb4OJftMjoZJSN52sWDE8sznJN+yqOV9badfNPz6XuB7BRRRXaSFFFFABXlv7S37UX/DNn9i/8W7+KXj7+2vP/AORN0D+1fsHleX/r/wB4nl7/ADPk67vLfpt59SoqZJtWTsB+b/7Bn7ef/CsP+Fz/APFmPj54i/4SL4p65rf/ABJPCP2v+zPO8j/RLr96PKuo9v7yLnbuXk5r9IK8t/Zd/Zq/4Zs/4WJ/xOv7a/4T7xvqXjL/AI8/s/2D7Z5X+jfffzNnl/6z5d2fujHPqVY4WnOELTY2FFFFdAj2n4S/8k+0/wD7af8Aox66Ouc+Ev8AyT7T/wDtp/6Meujr85x3+81P8T/NnVHZBRRRXKUFFFFABRRRQAUUUUAFFFFABRRRQAUUUUAFFFFABRRRQAUUUUAFFFFABRRRQAUUUUAFFFFABRRRQAUUUUAFFFFABRRRQAUUUUAFFFFABRRRQAUUUUAFFFFABRRRQAUUUUAFFFFABRRRQAUUUUAFFFFABRRRQAUUUUAFFFFABRRRQAUUUUAFFFFABRRRQAUUUUAFFFFABRRRQAUUUUAFFFFABRRRQAUUUUAFFFFABRRRQAUUUUAFFFFABRRRQAUUUUAFFFFABRRRQAUUUUAFFFFABRRRQAUUUUAFFFFABRRRQAUUUUAFFFFABRRRQAUUUUAFFFFABRRRQAUUUUAFFFFABRRRQAVT1i3aaFWXny85HtVyiufFYeNek6UtmVCTjLmRz9FbjW0bHJjjP1UUfZIv+eUf/fIr5j/Vup/OvuOz60uxh0VufZIv+eUf/fIo+yRf88o/++RR/q3V/nX3MPrS7GHRW59ki/55R/8AfIo+yRf88o/++RR/q3V/nX3MPrS7GHRW59ki/wCeUf8A3yKPskX/ADyj/wC+RR/q3V/nX3MPrS7GHRW59ki/55R/98ij7JF/zyj/AO+RR/q3V/nX3MPrS7GHRW59ki/55R/98ij7JF/zyj/75FH+rdX+dfcw+tLsYdFbn2SL/nlH/wB8ij7JF/zyj/75FH+rdX+dfcw+tLsYdFbn2SL/AJ5R/wDfIo+yRf8APKP/AL5FH+rdX+dfcw+tLsYdFbn2SL/nlH/3yKPskX/PKP8A75FH+rdX+dfcw+tLsYdFbn2SL/nlH/3yKPskX/PKP/vkUf6t1f519zD60uxh0VufZIv+eUf/AHyKPskX/PKP/vkUf6t1f519zD60uxh0VufZIv8AnlH/AN8ij7JF/wA84/8AvkUf6t1f519zD60uxn6Pbs9x5n8K9/U1qUAbRxRX0OX4JYWl7NO/V+py1KnPK55frujy6JqMkMikLklG7OvY1Tr1i4tYrxNs0ccq+jqGH61X/wCEfsP+fGz/AO/K/wCFeHW4bbm3Tnp5nuU87SilOOp5fRXqH/CP2H/PjZ/9+V/wo/4R+w/58bP/AL8r/hWX+rdX+dfczT+3Ifys8vor1D/hH7D/AJ8bP/vyv+FH/CP2H/PjZ/8Aflf8KP8AVur/ADr7mH9uQ/lZ5fRXqH/CP2H/AD42f/flf8KP+EfsP+fGz/78r/hR/q3V/nX3MP7ch/Kzy+ivUP8AhH7D/nxs/wDvyv8AhR/wj9h/z42f/flf8KP9W6v86+5h/bkP5WeX0V6h/wAI/Yf8+Nn/AN+V/wAKP+EfsP8Anxs/+/K/4Uf6t1f519zD+3Ifys8vor1D/hH7D/nxs/8Avyv+FH/CP2H/AD42f/flf8KP9W6v86+5h/bkP5WeX0V6h/wj9h/z42f/AH5X/Cj/AIR+w/58bP8A78r/AIUf6t1f519zD+3Ifys8vor1D/hH7D/nxs/+/K/4Uf8ACP2H/PjZ/wDflf8ACj/Vur/OvuYf25D+Vnl9Feof8I/Yf8+Nn/35X/Cj/hH7D/nxs/8Avyv+FH+rdX+dfcw/tyH8rPL6K9Q/4R+w/wCfGz/78r/hR/wj9h/z42f/AH5X/Cj/AFbq/wA6+5h/bkP5WeX0V6h/wj9h/wA+Nn/35X/Cj/hH7D/nxs/+/K/4Uf6t1f519zD+3Ifys8xghe5mWONWd2OFUDkmvTPDmmtpGiW9u3341+bHYkkn+dWLbTbeybdDbwwt6pGF/lU1etleU/VW5yd29Pkedj8x+sJRSskcz8TtEm1PTIZ4VMjWpYso67TjJ/DArz2vaKqS6DYzyFpLK0dm6loVJP6V04nA+0nzxdj4DOeGfrlf6xTnyt73XbT8jyKivW/+Eb07/oH2X/fhf8KP+Eb07/oH2X/fhf8ACuf+zJfzHj/6l1/+fi+5nklFet/8I3p3/QPsv+/C/wCFH/CN6d/0D7L/AL8L/hR/Zkv5g/1Lr/8APxfczySivW/+Eb07/oH2X/fhf8KP+Eb07/oH2X/fhf8ACj+zJfzB/qXX/wCfi+5nklFet/8ACN6d/wBA+y/78L/hR/wjenf9A+y/78L/AIUf2ZL+YP8AUuv/AM/F9zPJKK9b/wCEb07/AKB9l/34X/Cj/hG9O/6B9l/34X/Cj+zJfzB/qXX/AOfi+5nklFet/wDCN6d/0D7L/vwv+FH/AAjenf8AQPsv+/C/4Uf2ZL+YP9S6/wDz8X3M8kor1v8A4RvTv+gfZf8Afhf8KP8AhG9O/wCgfZf9+F/wo/syX8wf6l1/+fi+5nklFet/8I3p3/QPsv8Avwv+FH/CN6d/0D7L/vwv+FH9mS/mD/Uuv/z8X3M8kor1v/hG9O/6B9l/34X/AAo/4RvTv+gfZf8Afhf8KP7Ml/MH+pdf/n4vuZ5JRXrf/CN6d/0D7L/vwv8AhR/wjenf9A+y/wC/C/4Uf2ZL+YP9S6//AD8X3M8kor1v/hG9O/6B9l/34X/Cj/hG9O/6B9l/34X/AAo/syX8wf6l1/8An4vuZ5JXUfDHRJrjWFvSpWG3DAMf4mIxgfgTXaDw5p4P/HhZ/wDfhf8ACrUcaxIFVVVV4AAwBWtHL+SalJ7HoZbwm6GIjWrTvyu6SXVbDq8F8V+Gp/Cusy2syMqhiYnxxIvYg/55r3qob3T7fUovLuIIbiP+7IgYfka+ly3MHhZt2unufYzjzHzzRXvX/CH6R/0C9N/8Bk/wo/4Q/SP+gXpv/gMn+Fe3/rHT/kZHsmeC0V71/wAIfpH/AEC9N/8AAZP8KP8AhD9I/wCgXpv/AIDJ/hR/rHT/AJGHsmeC0V71/wAIfpH/AEC9N/8AAZP8KP8AhD9I/wCgXpv/AIDJ/hR/rHT/AJGHsmeC0V71/wAIfpH/AEC9N/8AAZP8KP8AhD9I/wCgXpv/AIDJ/hR/rHT/AJGHsmeC0V71/wAIfpH/AEC9N/8AAZP8KP8AhD9I/wCgXpv/AIDJ/hR/rHT/AJGHsmeC0V71/wAIfpH/AEC9N/8AAZP8KP8AhD9I/wCgXpv/AIDJ/hR/rHT/AJGHsmeC0V71/wAIfpH/AEC9N/8AAZP8KP8AhD9I/wCgXpv/AIDJ/hR/rHT/AJGHsmeC0V71/wAIfpH/AEC9N/8AAZP8KP8AhD9I/wCgXpv/AIDJ/hR/rHT/AJGHsmeC0V71/wAIfpH/AEC9N/8AAZP8KP8AhD9I/wCgXpv/AIDJ/hR/rHT/AJGHsmeC0V71/wAIfpH/AEC9N/8AAZP8KP8AhD9I/wCgXpv/AIDJ/hR/rHT/AJGHsmeC0V71/wAIfpH/AEC9N/8AAZP8KP8AhD9I/wCgXpv/AIDJ/hR/rHT/AJGHsmeC1Ja2sl7cJDDG0kkh2qqjJY17t/wh+kf9AvTf/AZP8KsWOh2OluWtbO1t2PUxRKhP5ClLiOFvdg7+oeyZV8FaI/hzwtZ2cmPMhQl8HOGJLEfgTWpRRXy1So5zc5bt3NttAoooqACiiigAooooAKKKKACiiigAooooAKKKKACiiigAooooAKKKKACiiigAooooAKKKKACiiigAooooAKKKKACiiigAooooAKKKKACiiigAooooAKKKKACiiigAooooAKKKKACiiigAooooAKKKKACiiigAooooAKKKKACiiigAooooAKKKKACiiigAooooAKKKKACiiigAooooAKKKKACiiigAooooAKKKKACiiigAooooAKKKKACiiigAooooAKKKKACiiigAooooAKKKKACiiigAooooAKKKKACiiigAooooAKKKKACiiigAooooAKKKKACiiigAooooAKKKKACiiigAooooAKjurlbWLc34D1qSs/XTxF+P9K4sxxEqGHlVjuv1djSlHmkkyNtbkzwsf45o/tub+7H+R/xqnRXxH9q4v/n4z0PYw7Fz+25v7sf5H/Gj+25v7sf5H/Guf1jxvovh3X9J0rUNY0ux1TXnkj0yzuLpIrjUWjTzJFhRiGkKoCzBQcKMnArUo/tTF/zsPYw7Fz+25v7sf5H/ABo/tub+7H+R/wAap0Uf2ri/+fjD2MOxc/tub+7H+R/xo/tub+7H+R/xqnRR/auL/wCfjD2MOxc/tub+7H+R/wAaP7bm/ux/kf8AGqdFH9q4v/n4w9jDsXP7bm/ux/kf8aP7bm/ux/kf8ap0Uf2ri/8An4w9jDsXP7bm/ux/kf8AGj+25v7sf5H/ABqnRR/auL/5+MPYw7Fz+25v7sf5H/Gj+25v7sf5H/GqdFH9q4v/AJ+MPYw7Fz+25v7sf5H/ABo/tub+7H+R/wAap0Uf2ri/+fjD2MOxc/tub+7H+R/xo/tub+7H+R/xqnRR/auL/wCfjD2MOxc/tub+7H+R/wAaP7bm/ux/kf8AGqdFH9q4v/n4w9jDsXP7bm/ux/kf8aP7bl/ux/kf8ap0Uf2ri/8An4w9jDsbFjqC3g242uO3rVisfSj/AKfH+P8AKtivr8nxk8Rh+apunb12/wAzhrwUZWRwvjX4yDRdRktNPhjuJITtklkJ2Bu4AGM49c1g/wDC9dX/AOffTf8Av2//AMXXGO7SOzMdzMcknuaSv1Gjk+FhBRcbvuzg9pI7T/heur/8++m/9+3/APi6P+F66v8A8++m/wDft/8A4uuLrN8J+MdI8e6JHqeh6rputabK7xpd2FylxA7I5R1DoSpKurKRngqQeRWn9l4T+RC55Ho3/C9dX/599N/79v8A/F0f8L11f/n303/v2/8A8XXF0U/7Lwn8iDnkdp/wvXV/+ffTf+/b/wDxdH/C9dX/AOffTf8Av2//AMXXF1h3/wASdF0v4iab4TnvfL8QaxZXGo2lr5Mh82CBoklfeF2Da00YwWBO7gHBwv7Mwi3gg55HqH/C9dX/AOffTf8Av2//AMXR/wAL11f/AJ99N/79v/8AF1xdFP8AsvCfyIOeR2n/AAvXV/8An303/v2//wAXR/wvXV/+ffTf+/b/APxdcXRR/ZeE/kQc8jtP+F66v/z76b/37f8A+Lo/4Xrq/wDz76b/AN+3/wDi64uij+y8J/Ig55Haf8L11f8A599N/wC/b/8AxdH/AAvXV/8An303/v2//wAXXF0Uf2XhP5EHPI7T/heur/8APvpv/ft//i6P+F66v/z76b/37f8A+Lri6KP7Lwn8iDnkdp/wvXV/+ffTf+/b/wDxdH/C9dX/AOffTf8Av2//AMXXF0Uf2XhP5EHPI7T/AIXrq/8Az76b/wB+3/8Ai6P+F66v/wA++m/9+3/+Lri6KP7Lwn8iDnkdp/wvXV/+ffTf+/b/APxdH/C9dX/599N/79v/APF1xdFH9l4T+RBzyPQNH+O1z9rUX9pbtAxwzQAqyj1wSc/TivSLS7jvrWOaFlkilUOjDowPSvnevavhQ7SeANPLHPEg/ASMBXhZ5l9GjTVWkra2/P8AyNKcm3ZmtretQ6DYtPNk84VR1c+lcnL8TrwudkFqq9gwZj+eRVv4psQtivYmQ4/75rkK48FhacqfPJXufWZXl9GdFVKiu3/nY6L/AIWbf/8APGz/AO+G/wDiqP8AhZt//wA8bP8A74b/AOKrnaw/+Fk6L/wsr/hD/tv/ABUX9mf2x9k8mT/j083yfM37dn+s427t3fGOa7PqtH+VHo/2fhv5Ed9/ws2//wCeNn/3w3/xVH/Czb//AJ42f/fDf/FVztFH1Sj/ACj/ALOw38iOi/4Wbf8A/PGz/wC+G/8AiqP+Fm3/APzxs/8Avhv/AIqudoo+qUf5Q/s7DfyI6L/hZt//AM8bP/vhv/iqP+Fm3/8Azxs/++G/+KrnaKPqlH+UP7Ow38iOi/4Wbf8A/PGz/wC+G/8AiqP+Fm3/APzxs/8Avhv/AIqudoo+qUf5Q/s7DfyI6L/hZt//AM8bP/vhv/iqP+Fm3/8Azxs/++G/+KrnaKPqlH+UP7Ow38iOi/4Wbf8A/PGz/wC+G/8AiqP+Fm3/APzxs/8Avhv/AIqudoo+qUf5Q/s7DfyI6L/hZt//AM8bP/vhv/iqP+Fm3/8Azxs/++G/+KrnaKPqlH+UP7Ow38iOi/4Wbf8A/PGz/wC+G/8AiqP+Fm3/APzxs/8Avhv/AIqudoo+qUf5Q/s7DfyI6L/hZt//AM8bP/vhv/iqP+Fm3/8Azxs/++G/+KrnaKPqlH+UP7Ow38iOi/4Wbf8A/PGz/wC+G/8AiqP+Fm3/APzxs/8Avhv/AIqudoo+qUf5Q/s7DfyI6IfE2/8A+eNn/wB8t/8AFV0XhbxdH4iVo2XybhBkrnIYeorzutjwGxXxVa/7W8H3+Q1hiMHS9m3FWaOPG5bQ9jKUI2aV/uPRK4Xxr8ZBouoyWmnwx3EkJ2ySyE7A3cADGceua7qvnR3aR2ZjuZjkk9zSyPA0685Sqq6jbT1v/kfH1JNbHZ/8L11f/n303/v2/wD8XR/wvXV/+ffTf+/b/wDxdcXRX0v9l4T+RGPPI7T/AIXrq/8Az76b/wB+3/8Ai6P+F66v/wA++m/9+3/+Lrwv40/tT+Af2edV0mx8YeII9JvNaEstvEtrPdNHBFt866mEKP8AZ7WIugkuZtkMZkQM6llB76GZbiFZI2WSOQBlZTlWB6EGkstwbdlBBzSO2/4Xrq//AD76b/37f/4uj/heur/8++m/9+3/APi68z8JfETw/wCP5NSTQdc0fWm0W8fTtQWwvY7k2FymN8Euwny5FyMo2GGRkVJofjjRfE97Lb6brGl6hcQKXlitruOZ41EjxEkKSQBJFImT/FG46qQD+zcJ/Ig5pHpH/C9dX/599N/79v8A/F0f8L11f/n303/v2/8A8XXF0M20ZPAHJJ7U/wCy8J/Ig55Haf8AC9dX/wCffTf+/b//ABdH/C9dX/599N/79v8A/F1554Y8VaX420K31TRtSsNW027BMF3ZXCXEEwBKna6Eq2CCOD1BFX6X9l4T+RBzyO0/4Xrq/wDz76b/AN+3/wDi6P8Aheur/wDPvpv/AH7f/wCLryLxX8bPCngvw1qWsX+uWP8AZ+i3sem38luxujZ3MjxxrDIsQZlfdLHlSMgOCcDmupo/s3CP7CDmkdp/wvXV/wDn303/AL9v/wDF0f8AC9dX/wCffTf+/b//ABdcXRT/ALLwn8iDnkdp/wAL11f/AJ99N/79v/8AF0f8L11f/n303/v2/wD8XXF0Uf2XhP5EHPI7T/heur/8++m/9+3/APi6P+F66v8A8++m/wDft/8A4uuLoo/svCfyIOeR2n/C9dX/AOffTf8Av2//AMXR/wAL11f/AJ99N/79v/8AF1xdFH9l4T+RBzyO0/4Xrq//AD76b/37f/4uj/heur/8++m/9+3/APi64uij+y8J/Ig55Haf8L11f/n303/v2/8A8XVzR/jtc/a1F/aW7QMcM0AKso9cEnP04rz+ilLKcI1bkQc8j6ItLuO+tY5oWWSKVQ6MOjA9KkrnfhQ7SeANPLHPEg/ASMBXRV8LiKfs6sqfZtfczpWquFFFFYjCiiigAooooAKKKKACiiigAooooAKKKKACiiigAooooAKKKKACiiigAooooAKKKKACiiigAooooAKKKKACiiigAooooAKKKKACiiigAooooAKKKKACiiigAooooAKKKKACiiigAooooAKKKKACiiigAooooAKKKKACiiigAooooAKKKKACiiigAooooAKKKKACiiigAooooAKKKKACiiigAooooAKKKKACiiigAooooAKKKKACiiigAooooAKKKKACiiigAooooAKKKKACiiigAooooAKKKKACiiigAooooAKKKKACiiigAooooAKKKKACiiigAooooAKKKKACiiigAooooAKz9d/5Zfj/AErQrP13/ll+P9K8rO/9yn8vzRth/wCIjPooor4A9I+d/wBoPxd4w+Hn7bvwQj0zxxrsfhXx1e6hpGq+F3s9OfTX8jTrm5S4SU2v2xZi6IDi58vagGwEknqtO/aF8XeIrnxLY3nwd+JPga20vTry4tvEOs3nh6fT7h4gdgRLPU7m5y/318yBRhSG2nCnl/HvhXxd8cv2zvh5eSeA/EXhnwt8Jr7UdRfxBqd9prWviB57J7WJLOG3uZrnGZWZjcxW+AnG4nFe4eO9Nm1nwPrNnbR+ZcXdjPDEmQu52jYAZPAySOtdEpRSirLb9X28u5MT4z8C/FD4weAf2Xfgz8bPEHxX1jxlN4qHhq28ReFX0DSbPRriPU5Le2ea18qBbyK5Rp1l+a7kiYrIBCqsqx9DD4z+LHxk+Gnj/wCMGh/FLUPCtv4R1DWrfRPBsejaZNoV5DpVxPCf7Rkmt2vmknaByzQXVssatGAhKM0l/wDY5/4J7614O+DXwkh+KXxE+IvjCbwLpOnzxeDtY/sNdG0bU4IEVHB0+xhluDbtuEfnXEyBsSYaRUkXtvGH/BP7SfE+v6/HZ/ED4k+G/BPi+5kvPEPgrSbyyj0XWZpiTcsZJLV762E5P71LS6gRjubaGkkZ95VKalbTfe2lu234/iSk7HC+HfiD8Qv2tf2g9Q0fRfiZ4i+GXhOT4feHfFMEOiaPpdxqcN1fSXhcedf2txH5ZSJVZGgZiVQo8fzh/WP2J/i34g+Lnwbu28VTW974g8Ma/qnhm91C3gWCLVWsbuS3F0qKSqGRUVmVeFcuAAAAPOfFf7HPjbxX+2b4m8ReH/iB46+E3hGTwdo2i2c/hWLQZl1CW3nvi8Lx6hY3jxiJJYtpjWMHzDy235ffPgz8HNB+Afw50/wv4btZLbTLDe+6WUzT3U0jtJNPNI3zSTSyO8ju3LM5NZVpQ5bRt0+Wmt3/AMOON76nUUUUVylhRRRQAUUUUAFFFFABRRRQAUUUUAfl3/wUQ/4KIf8AC2f+FF/8WL/aL8M/8Iz8XdA17/ifeDPsf9q+R9o/0K0/fN5t5Jv/AHcXG7a3IxX3R+yv+1t/w1J/b3/Fsvi58Of7C+z/API8eHf7I/tDzvN/49/3j+Zs8r5+m3zI+u7g/a1/ZY/4ak/4Vl/xPv7C/wCFc+PtK8cf8eX2r+0PsXm/6L/rE8vf5v8ArPm27fuNnj1yuqpVpumoxWuvXYzjFp3YUUUVymhY0r/j/j/H+RrYrH0r/j/j/H+RrYr7Thz/AHaX+J/kjgxXx/I+c6KKK/cDyjO8XaLc+JPDGoafZ6xqPh+6vIHhh1KwSB7qxYjAljW4jlhLr1AkjdcjlSOK+eP2Xv2j/Hkv7J/h/W9Q8L+OfjL4gm1fVtMurnRzoVjdCO2v7iCKWZbi4sLflI1B8leTk7QOa91+KfjbVPh/4Sk1LSPB/iLxzeLIqLpeiT2EN04PVw17c28O1e+ZN3oDXG/sVfCPVvgj+zpo2h65DHbaxJc3upXdukwmFpJd3k10Yd6/KxTzQpK5BKnBIwTjK7qWV9n+a+XcZxHxE8a/EL4m/tJeA/COk+Itc+FWk+IvBWpa1q9l/ZumX2tWVzFc2KRCOZjdWscqec6txcRMrMAM7ZFr+HrH4i/Hf4i+NdH0v4ueKPB9h8MLyDw/byWekaPcXXiK7Nlb3Ml3qJns3XYTMqiO0S14Eh3ncnl+1ah8INN1L41aX48knvl1fSdHutEhhV1+zNDcTQSuzLt3bw1ugBDAYLZB4I434jfskx+LvH2peIvD/j7x/wDDq68QRpHr8Phuaw8jXdiCNHlW7tbgwyrGPL861MMpXblyUjKZypyvfV69+lv8wPL/AIcftAeOP2uJvBvhmw8QzfDm5u/DM2v6/rOhWtrNeSTxXzWSw2a30NzAsLyRSyMzxysFMaqwJ3nif2p/jtcfsM/tB/DXVPFmra58RtVj8KeILGyvZdNjtZLlpb3TfKe/ktYltrWGJeZroxxRKqFtgJCN9CeJv2MfDs2l+FV8I6z4k+G+reC7B9J0nWPD8ttLeQ2T7TJbSLfQ3ME6OyI5M0TuHXcrKxJNzw3+yjpWneI9F1jXPEPijxpquk6TqWjzXGvS2039qQ38sMk/nxxQRxD/AFKqqRJHEqkjZ0xEqVVq19dNenToM6L4HeHfFHh34f248Y+KY/FniC8dru5ure0htrO28z5hb2yxorGCMfKjSl5GAyzEnA7CuJ+AnwK0/wDZ28EHw1ouqa5e6BbTu+l2Wozxzrotufu2kDhFkMCc7BK0jKDtDbQqjtq64XUUn/mSFFFFUAUUUUAFFFFABRRRQAUUUUAeW/tLftRf8M2f2L/xbv4pePv7a8//AJE3QP7V+weV5f8Ar/3ieXv8z5Ou7y36befjH9gz9vP/AIVh/wALn/4sx8fPEX/CRfFPXNb/AOJJ4R+1/wBmed5H+iXX70eVdR7f3kXO3cvJzX6QV5b+y7+zV/wzZ/wsT/idf21/wn3jfUvGX/Hn9n+wfbPK/wBG++/mbPL/ANZ8u7P3RjnlqUqkqilF6a9NitLHqVFFFdRIV7T8Jf8Akn2n/wDbT/0Y9eLV7T8Jf+Sfaf8A9tP/AEY9eDxF/u0f8S/JmlLcqfFP/lx/7af+y1yNdd8U/wDlx/7af+y1yNedgf4Efn+bPu8p/wB1j8/zYV8W/tkftXW/7K/7eGnTx6bLqWveJfAMelaQs0csWl208usJGs9/dqjR2lqjSJudyCxIRA7sFr7Srg/F/wCzj4Z+IHxG1HxFrlvJqv8Aa/hqTwpe6bdCOTT7qyeYyuHjK7ixJKn5sbe2ea6KkW1odlaMpK0dzkNO8c/Eb4CaBoWgat4Q+JXxy1i4jM+p+J9HXw3pdnBK8hJiEFxfWcixxg4QLHK3lhd0kkm4nk760+JXx6/ab+K3hjTfi54i+Hfh/wAIxaM+lx6Domkz3qT3FpI8ollvra5R4S2w7FjVwy8S7Tsr2P4AfBaH9nv4YWPhKz8QeJvEWl6SWj0+TXbpLq6srXP7q1Eyxo8kcS4RHmMkpUDfI5+avG7/APZI8ceM/wBq34peJIfiT8Qvhz4a8RQ6RDaxeHRockesiG1eOZnN3Y3NxCyk7AY3h4OVyRuESTstyJRlZb+l/J9dDlfhh+0V8Rv2prL4b+C4/FEnw/1zVNH1jUfE3iLQtMtHubiTTL+PTythFepdW8cc8rNKTJHOVjwo2lhIK/xH+P8A8Ufh/wCDvE3gu18aQXXivwj8QPDHh+38VXujW00upadqc9qW+1W8QigNwElljYwLCCAjqkZOK9q8TfsVeGZ/CXhHT/CWq+I/htqXgO2ey0LWvDstu19Z28u3z4XF5DcQXCSlFZ/tEUhLgSAiQBx57+0H+xBqcv7PsPh3wZrniq/8W6x440PxDrniu4uLB9auGt762aa9PnQizDRQQgJCluIgsYVIexmUZpGcoVFHrf18vzudB8P9b8afBL9rXSfh/r3jzX/iToPjTw9f61aXet2Gm299otxZz2yPEGsLe2je3kS6BAeJnV4z+8YNtX6Cry74M/svQ/C7xvfeKtc8ZeMPiR4vu7QabFrXiUaek9hZBg5tYIrG1tbeNGk+d2EXmOQoZ2VI1X1Gto3tqdFNNLUKKKKo0CiiigAooooAKKKKACiiigAr8z/+CgH/AAUA/wCFqf8ACk/+LJ/tBeG/+Eb+K+ha5/xPPB/2P+1PI8//AEO1/fN5t3Ju/dxcbtrcjFfphXlH7Vf7MP8Aw03/AMK3/wCJ5/Yn/CvfHWmeNf8Ajz+0/b/sXm/6N99PL3+Z/rPm27funPGdWMpRsjnxFOco2iw/Zh/ar/4ab/tz/i2/xX+Hv9ieR/yOvh/+yft/m+Z/x7/vH8zZ5fz9NvmJ13cer0UVcb21NoppWeoVr+BP+Rqtf+B/+gNWRWv4E/5Gq1/4H/6A1ZYj+FL0f5GOM/gT9H+R6LXznX0ZXznVcN/8vPl+p+e1ugVmeMrXVL7wvew6LqVlpGpyR4gvLuzN3DbHIyzRCSPdxnHzgA4JyAQdOqmvQ31xol5HpdxaWepPC62s91bNcwQy4O1niV42dQcEqHQkcbl619Q9jE/Ozxz+1H4T/Z+8ffa/B/7U/wCy74j1Dxnqlroev6r4vt4NY8QLbhJSz3dxba1awLbRPv228NrbwRmdsKGZmf379hiHSH8O3Nt8M/jp8MviBo2l27QXmg+FoobnQNBmYP8AZ/sMcd7cXFjCeA1vJcTQ7YwIEtxuzf8AiH+zp+0B8SpvD8l98XPg7C3hvV4datvI+FepLvmiV1VX3eIDlCJGyBg8DkV6f8JPDXxX0bWrmTx540+HviTTmh228Gg+C7zRJopcj5nkm1W7V1xkbQinJB3cYPBRpTU7taf1/ef5FdDhdC+FfiPxt8UNIuvin8NPBeoeINKQw6Z8QfB+pPa3UMcbiUrKkvlXllFMwUfZoLm9jcb1lfYfmm+HOveDta/at8QWXgfQW1O88PwXp8R+IItUuFsNP1C6e3c6cE+aKSZ/KEsqrjyCAxG+dsya3+y546+Ld7cr8QfjH4gfQ5Jio0HwNYDwpZ3Vt1VLi58251Lzcn5ntr22VgAvlgbt3q/w5+G3h/4Q+C7Hw74X0bTtA0LTE8u1sbGBYYYQSScKvcsSxJ5Ykkkkk1vGm29retr/AIfnuI+VvBMXxusP2sPiRa3mvfC74aaZrOnaf4o1CCLTbvxNIYgJbKaS3vpJrFIpBDaQsTLZSojyDKyKp3+ofsJnxxrfgrXfEPirxl4v8WaHr2o+b4U/4STTtMs9Qi0xUVUnkWxtLZf3775VV03LG0QIDbhXfaz8G11P9oPQfH0WovbzaTol7ok9n5O5b2OeW3lVi+4bTG0BwMHPmHp37V9xQ7SA2OCRkA0U6LjK7b69d7/h+AHnVr+y74X0H40/8J54fW/8K65eSSSa3Ho8wtrHxOWTbuv7baYp5lwpW42iddgUS+WWRs/4SftEzfHb4x+IrXwtb2OofD7wqjabdeIAzldS1cOPMt7Rh+7lit1DJLIpIEx8sHdFKBh6r+yh4r+L09wnxQ+Kmt65odw5SXwx4VsF8MaLdwjO1Z2WSfUZGOf3ii+WCUAK0O0sreieLvhhM/wem8I+CtSj+HyrZrp+n3el6fC39jQjC/6NCw8pXWPIj3KyI20lHA2lxUt0rL8X+gHyX4xv49c/Zg+O2p22ZLG++LUa28w+7N5OoadbyFT3AlikXPqpHavsbXPiRofhvxlofh2+1K3t9b8SCc6bZnJlulhQPKwAHCqCuWOBllGcsAfM/iL+xxY6j+x+vwl8F6r/AMIpb2MNqmm6le2z6s0MsFxHcCadWlje4d5E3OWkVnZ2JOTWp+z7+yxZ/BfV9Q8Saz4g1vx98QtdhSHVPFGtGMXEka8i2toIlWGztVbJEMKKCTucySEyGKcZxla3RXfzd/Pr/Ww+h6pRRRXUSFFFFABRRRQAV5b+0t+1F/wzZ/Yv/Fu/il4+/trz/wDkTdA/tX7B5Xl/6/8AeJ5e/wAz5Ou7y36befUqKmSbVk7Afm/+wZ+3n/wrD/hc/wDxZj4+eIv+Ei+Keua3/wASTwj9r/szzvI/0S6/ejyrqPb+8i527l5Oa/SCvLf2Xf2av+GbP+Fif8Tr+2v+E+8b6l4y/wCPP7P9g+2eV/o3338zZ5f+s+Xdn7oxz6lWOFpzhC02NhRRRXQI9p+Ev/JPtP8A+2n/AKMeujrnPhL/AMk+0/8A7af+jHro6/Ocd/vNT/E/zZ1R2QUUUVylBRRRQAUUUUAFFFFABRRRQAUUUUAFFFFABRRRQAUUUUAFFFFABRRRQAUUUUAFFFFABRRRQAUUUUAFFFFABRRRQAUUUUAFFFFABRRRQAUUUUAFFFFABRRRQAUUUUAFFFFABRRRQAUUUUAFFFFABRRRQAUUUUAFFFFABRRRQAUUUUAFFFFABRRRQAUUUUAFFFFABRRRQAUUUUAFFFFABRRRQAUUUUAFFFFABRRRQAUUUUAFFFFABRRRQAUUUUAFFFFABRRRQAUUUUAFFFFABRRRQAUUUUAFFFFABRRRQAUUUUAFFFFABRRRQAUUUUAFFFFABRRRQAUUUUAFFFFABRRRQAUUUUAFU9Yt2mhVl58vOR7VcornxWHjXpOlLZlQk4y5kc/RW41tGxyY4z9VFH2SL/nlH/3yK+Y/1bqfzr7js+tLsYdFbn2SL/nlH/3yKPskX/PKP/vkUf6t1f519zD60uxh0VufZIv+eUf/AHyKPskX/PKP/vkUf6t1f519zD60uxh0VufZIv8AnlH/AN8ij7JF/wA8o/8AvkUf6t1f519zD60uxh0VufZIv+eUf/fIo+yRf88o/wDvkUf6t1f519zD60uxh0VufZIv+eUf/fIo+yRf88o/++RR/q3V/nX3MPrS7GHRW59ki/55R/8AfIo+yRf88o/++RR/q3V/nX3MPrS7GHRW59ki/wCeUf8A3yKPskX/ADyj/wC+RR/q3V/nX3MPrS7GHRW59ki/55R/98ij7JF/zyj/AO+RR/q3V/nX3MPrS7GHRW59ki/55R/98ij7JF/zyj/75FH+rdX+dfcw+tLsYdFbn2SL/nlH/wB8ij7JF/zyj/75FH+rdX+dfcw+tLsYdFbn2SL/AJ5R/wDfIo+yRf8APOP/AL5FH+rdX+dfcw+tLsZ+j27PceZ/Cvf1NalAG0cUV9Dl+CWFpezTv1fqctSpzyueC+K/DU/hXWZbWZGVQxMT44kXsQf881m19DXun2+pReXcQQ3Ef92RAw/I1T/4Q/SP+gXpv/gMn+FfbUeIkoJVIa+Ry+y7HgtFe9f8IfpH/QL03/wGT/Cj/hD9I/6Bem/+Ayf4Vr/rHT/kYeyZ4LRXvX/CH6R/0C9N/wDAZP8ACj/hD9I/6Bem/wDgMn+FH+sdP+Rh7JngtFe9f8IfpH/QL03/AMBk/wAKP+EP0j/oF6b/AOAyf4Uf6x0/5GHsmeC0V71/wh+kf9AvTf8AwGT/AAo/4Q/SP+gXpv8A4DJ/hR/rHT/kYeyZ4LRXvX/CH6R/0C9N/wDAZP8ACj/hD9I/6Bem/wDgMn+FH+sdP+Rh7JngtFe9f8IfpH/QL03/AMBk/wAKP+EP0j/oF6b/AOAyf4Uf6x0/5GHsmeC0V71/wh+kf9AvTf8AwGT/AAo/4Q/SP+gXpv8A4DJ/hR/rHT/kYeyZ4LRXvX/CH6R/0C9N/wDAZP8ACj/hD9I/6Bem/wDgMn+FH+sdP+Rh7JngtFe9f8IfpH/QL03/AMBk/wAKP+EP0j/oF6b/AOAyf4Uf6x0/5GHsmeC0V71/wh+kf9AvTf8AwGT/AAo/4Q/SP+gXpv8A4DJ/hR/rHT/kYeyZ4LRXvX/CH6R/0C9N/wDAZP8ACj/hD9I/6Bem/wDgMn+FH+sdP+Rh7JnhNrayXtwkMMbSSSHaqqMljXungrRH8OeFrOzkx5kKEvg5wxJYj8CatWOh2OluWtbO1t2PUxRKhP5CrVeVmeavFJQirJa/MqELanO/EXR5dR0+KaJS7WpJZR12nGT+GBXC165VWXRLOdyz2dq7N1LRKSf0rnw2O9nHkkj3cDm3sKfs5xuuh5bRXqH/AAj9h/z42f8A35X/AAo/4R+w/wCfGz/78r/hXT/acf5Wdv8Ab1P+Vnl9Feof8I/Yf8+Nn/35X/Cj/hH7D/nxs/8Avyv+FH9px/lYf29T/lZ5fRXqH/CP2H/PjZ/9+V/wo/4R+w/58bP/AL8r/hR/acf5WH9vU/5WeX0V6h/wj9h/z42f/flf8KP+EfsP+fGz/wC/K/4Uf2nH+Vh/b1P+Vnl9Feof8I/Yf8+Nn/35X/Cj/hH7D/nxs/8Avyv+FH9px/lYf29T/lZ5fRXqH/CP2H/PjZ/9+V/wo/4R+w/58bP/AL8r/hR/acf5WH9vU/5WeX0V6h/wj9h/z42f/flf8KP+EfsP+fGz/wC/K/4Uf2nH+Vh/b1P+Vnl9Feof8I/Yf8+Nn/35X/Cj/hH7D/nxs/8Avyv+FH9px/lYf29T/lZ5fRXqH/CP2H/PjZ/9+V/wo/4R+w/58bP/AL8r/hR/acf5WH9vU/5WeX0V6h/wj9h/z42f/flf8KP+EfsP+fGz/wC/K/4Uf2nH+Vh/b1P+Vnl9Feof8I/Yf8+Nn/35X/Cj/hH7D/nxs/8Avyv+FH9px/lYf29T/lZ5fXR/DrR5Z9VW8KlYYAQGP8TEYwPzNdaNAsR/y42f/flf8KtoixoFVQqrwABwKxrZhzwcYrc58VnXtKbpwja+gteC+K/DU/hXWZbWZGVQxMT44kXsQf8APNe9VDe6fb6lF5dxBDcR/wB2RAw/I0stzB4Wbdrp7nz048x880V71/wh+kf9AvTf/AZP8KP+EP0j/oF6b/4DJ/hXt/6x0/5GR7JngtFe9f8ACH6R/wBAvTf/AAGT/Cj/AIQ/SP8AoF6b/wCAyf4Uf6x0/wCRh7JngtFe9f8ACH6R/wBAvTf/AAGT/Cj/AIQ/SP8AoF6b/wCAyf4Uf6x0/wCRh7JngtFe9f8ACH6R/wBAvTf/AAGT/Cj/AIQ/SP8AoF6b/wCAyf4Uf6x0/wCRh7JngtFe9f8ACH6R/wBAvTf/AAGT/Cj/AIQ/SP8AoF6b/wCAyf4Uf6x0/wCRh7JngtFe9f8ACH6R/wBAvTf/AAGT/Cj/AIQ/SP8AoF6b/wCAyf4Uf6x0/wCRh7JngtFe9f8ACH6R/wBAvTf/AAGT/Cj/AIQ/SP8AoF6b/wCAyf4Uf6x0/wCRh7JngtFe9f8ACH6R/wBAvTf/AAGT/Cj/AIQ/SP8AoF6b/wCAyf4Uf6x0/wCRh7JngtFe9f8ACH6R/wBAvTf/AAGT/Cj/AIQ/SP8AoF6b/wCAyf4Uf6x0/wCRh7JngtFe9f8ACH6R/wBAvTf/AAGT/Cj/AIQ/SP8AoF6b/wCAyf4Uf6x0/wCRh7JngtFe9f8ACH6R/wBAvTf/AAGT/Cj/AIQ/SP8AoF6b/wCAyf4Uf6x0/wCRh7JngtSWtrJe3CQwxtJJIdqqoyWNe7f8IfpH/QL03/wGT/CrFjodjpblrWztbdj1MUSoT+QpS4jhb3YO/qHsmVfBWiP4c8LWdnJjzIUJfBzhiSxH4E1qUUV8tUqOc3OW7dzbbQKKKKgAooooAKKKKACiiigAooooAKKKKACiiigAooooAKKKKACiiigAooooAKKKKACiiigAooooAKKKKACiiigAooooAKKKKACiiigAooooAKKKKACiiigAooooAKKKKACiiigAooooAKKKKACiiigAooooAKKKKACiiigAooooAKKKKACiiigAooooAKKKKACiiigAooooAKKKKACiiigAooooAKKKKACiiigAooooAKKKKACiiigAooooAKKKKACiiigAooooAKKKKACiiigAooooAKKKKACiiigAooooAKKKKACiiigAooooAKKKKACiiigAooooAKKKKACiiigAooooAKKKKACiiigAooooAKKKKACiiigAooooAKKKKACiiigAooooAKKKKACiiigAooooAKKKKACiiigAooooAKKKKACiiigAooooAKKKKACiiigAooooAKKKKACiiigAooooAKKKKACiiigAooooAKKKKACiiigAooooAKKKKACiiigAooooAKKKKACiiigAooooAKKKKACiiigAooooAKKKKACiiigAooooAKKKKACiiigAooooAKKKKACiiigAooooAKKKKACiiigAooooAKKKKACiiigAooooAKKKKACiiigAooooAKKKKACiiigAooooAKKKKACiiigAooooAKKKKACiiigAooooAKKKKACiiigAooooAKKKKACiiigAooooAKKKKACiiigAooooAKKKKACiiigAooooAKKKKACiiigAooooAKKKKACiiigAooooAKKKKACiiigAooooAKKKKACiiigAooooAKKKKACiiigAooooAKKKKACiiigAooooAKKKKACiiigAooooAKKKKACiiigAooooAKKKKACiiigAooooAKKKKACiiigAooooAKKKKACiiigAooooAKKKKACiiigAooooAKKKKACiiigAooooAKKKKACiiigAooooAKKKKACiiigAooooAKKKKACiiigAooooAKKKKACiiigAooooAKKKKACiiigAooooAKKKKACiiigAooooAKKKKACijNNMqr/Ev50AOoqM3cS/8tI/++hTTqEA/wCW0P8A32KAJqKrnVbVetxb/wDfwU063Zr1u7X/AL+r/jQBaoqtFrNnNIFS6tmY9Asqkn9as0AFFFFABRRRQAUUUUAFFFFABRRRQAUUUUAFFFFABRRRQAUUUUAFFFFABRRRQAUUUUAFFFFABRRRQAUUUUAFFFFABRRRQAUUUUAFFFFABRRRQAUUUUAFFFFABRRRQAUUUUAFFFFABRRRQAUUUUAFFFFABRRRQAUUUUAFFFFABRRRQAUUUUAFFFFABRRRQAUUUUAFFFFABRRRQAUUUUAFFFFABRRRQAUUUUAFFFFABRRRQAUUUUAFFFFABRRRQAUUUUAFFFFABRRRQAUUUUAFFFFABRRRQAUUUUAFFFFABRRRQAUUUUAFFFFABRRRQAUUUUAFFFFABRRRQAUUUUAFFFFABRRRQAUUUUAFFFFABRRRQAUUUUAFFFFABRRRQAUUUUAFFFFABRRRQAUUUUAFFFFABRRRQAUUUUAFFFFABRRRQAUUUUAFFFFABRRRQAUUUUAFFFFABRRRQAUUUUAFFFFABRRRQAUUUUAFFFFABRRRQAUUUUAFFFFABRRRQAUUUUAFFFFABRRRQAUUUUAFFFFABRRRQAUUUUAFFFFABRRRQAUUUUAFFFFABRRRQAUUUUAFFFFABRRRQAUUUUAFFFFABRRRQAUUUUAFFFFABTZpPJhZz/CCadUd4M2cv+4f5UAeV+IPENxrt67ySMY8/ImflUfSs+iigAooooAKKKKAAHFejfDbWJdU0Z0mYu1uwUMepHavOa7j4Rn/AEO9H+2v8jQB2FFFFABRRRQAUUUUAFFFFABRRRQAUUUUAFFFFABRRRQAUUUUAFFFFABRRRQAUUUUAFFFFABRRRQAUUUUAFFFFABRRRQAUUUUAFFFFABRRRQAUUUUAFFFFABRRRQAUUUUAFFFFABRRRQAUUUUAFFFFABRRRQAUUUUAFFFFABRRRQAUUUUAFFFFABRRRQAUUUUAFFFFABRRRQAUUUUAFFFFABRRRQAUUUUAFFFFABRRRQAUUUUAFFFFABRRRQAUUUUAFFFFABRRRQAUUUUAFFFFABRRRQAUUUUAFFFFABRRRQAUUUUAFFFFABRRRQAUUUUAFFFFABRRRQAUUUUAFFFFABRRRQAUUUUAFFFFABRRRQAUUUUAFFFFABRRRQAUUUUAFFFFABRRRQAUUUUAFFFFABRRRQAUUUUAFFFFABRRRQAUUUUAFFFFABRRRQAUUUUAFFFFABRRRQAUUUUAFFFFABRRRQAUUUUAFFFFABRRRQAUUUUAFFFFABRRRQAUUUUAFFFFABRRRQAUUUUAFFFFABRRRQAUUUUAFFFFABRRRQAUUUUAFFFFABRRRQAUUUUAFFFFABRRRQAUUUUAFFFFABRRRQAUUUUAFFFFABTZxugcf7Jp1DDIoA8XooooAKKKKACiiigArtvhEf3F8P9pP8A2auJrtPhCeNQH/XP/wBmoA7SiiigAooooAKKKKACiiigAooooAKKK4P4+fHvT/gV4ds3azutc8Ra5cfYdB0GzZftmtXW0t5abuERVBeSVsJEiszHgAgG98S/ij4d+DnhC417xTrWn6Do9rgPc3kwjUseFRe7yMeFRQWYkAAkgV463xy+KXxzUN4D8MWfgHw3MP3fiDxpayvqFyh/jg0lGjkQHnBu5YXBxmBgaPhr+z/qWq+LofHXxQ1C18V+OEYyafbxqTo/hFWABh0+Jhw+OHunHnS88omIl9YoA8hf9kkeMD5vjv4h/EzxtM3Lwtr0mh2H+79l037NG6DoBMJD0JLHmoz/AME9vgXPzefCP4e6tJ3l1TQrfUJW9y86uxPuTXsVFAHjo/4J7fAuDmz+Efw90mTtLpehW+nyr7h4FRgfcGpE/ZJHg8+b4E+IfxM8EzLykK69Jrlh/u/ZdS+0xoh6EQiM9SCp5r16igDydfjl8UvgYpbx54Ys/H3huEfvPEHgu1lTULZB/HPpLtJI4HGTaSzOTnECgV7F8NPij4d+MfhC317wtrWn69o91kJc2cwkUMOGRu6SKeGRgGUgggEEVVryf4lfs/6lpXi6bx18L9QtfCnjh2EmoW8ikaP4uVQQIdQiUcvjhLpB50XHLpmJgD6Aorg/gH8e9P8Ajr4dvHWzutD8RaHcfYde0G8Zftmi3W0N5b7eHRlIeOVcpKjKynkgd5QAUUUUAFFFFABRRRQAUUUUAFFFFABRRRQAUUUUAFFFFABRRRQAUUUUAFFFFABRRRQAUUUUAFFFFABRRRQAUUUUAFFFFABRRRQAUUUUAFFFFABRRRQAUUUUAFFFFABRRRQAUUUUAFFFFABRRRQAUUUUAFFFFABRRRQAUUUUAFFFFABRRRQAUUUUAFFFFABRRRQAUUUUAFFFFABRRRQAUUUUAFFFFABRRRQAUUUUAFFFFABRRRQAUUUUAFFFFABRRRQAUUUUAFFFFABRRRQAUUUUAFFFFABRRRQAUUUUAFFFFABRRRQAUUUUAFFFFABRRRQAUUUUAFFFFABRRRQAUUUUAFFFFABRRRQAUUUUAFFFFABRRRQAUUUUAFFFFABRRRQAUUUUAFFFFABRRRQAUUUUAFFFFABRRRQAUUUUAFFFFABRRRQAUUUUAFFFFABRRRQAUUUUAFFFFABRRRQAUUUUAFFFFABRRRQAUUUUAFFFFABRRRQAUUUUAFFFFABRRRQAUUUUAFFFFABRRRQAUUUUAFFFFABRRRQAUUUUAFFFFABRRRQB4zKNsrfU02pLobbqT/fP86joAKKKKACiiigArsvhEf3t/wDSP/2auNrsPhGf9Jvv91P5mgDuKKKKACiiigAooooAKKKKACiiigDJ8d+OdJ+GPgrVvEev39vpeh6FZy39/eTnEdtBEpd3b2CgnjmvD/2ffBGpeOvE918XvGlhPZeLfFFqLbStLuDn/hFNI3b4rNRkhbiXCzXLDlpCqZKQx4uftTS/8Ld+M/gL4Wr+80lnbxj4oj/hls7KVBZ2r9ts960bkHIeOynQjDV6lQAUUUUAFFFFABRRRQAUUUUAeQ/tBeCNS8C+J7X4veC7Ce98W+F7U22q6XbnH/CV6Ru3y2bDIDXEWWmtmPKyBkyEmkz7h4E8c6T8TvBWk+I9Av7fVND12ziv7C8gOY7mCVQ6OvsVIPPNZteW/ssy/wDCovjP49+Frfu9JV18Y+F4/wCGKzvZXF5ap22wXqyOAMBI72BAMLQB71RRRQAUUUUAFFFFABRRRQAUUUUAFFFFABRRRQAUUUUAFFFFABRRRQAUUUUAFFFFABRRRQAUUUUAFFFFABRRRQAUUUUAFFFFABRRRQAUUUUAFFFFABRRRQAUUUUAFFFFABRRRQAUUUUAFFFFABRRRQAUUUUAFFFFABRRRQAUUUUAFFFFABRRRQAUUUUAFFFFABRRRQAUUUUAFFFFABRRRQAUUUUAFFFFABRRRQAUUUUAFFFFABRRRQAUUUUAFFFFABRRRQAUUUUAFFFFABRRRQAUUUUAFFFFABRRRQAUUUUAFFFFABRRRQAUUUUAFFFFABRRRQAUUUUAFFFFABRRRQAUUUUAFFFFABRRRQAUUUUAFFFFABRRRQAUUUUAFFFFABRRRQAUUUUAFFFFABRRRQAUUUUAFFFFABRRRQAUUUUAFFFFABRRRQAUUUUAFFFFABRRRQAUUUUAFFFFABRRRQAUUUUAFFFFABRRRQAUUUUAFFFFABRRRQAUUUUAFFFFABRRRQAUUUUAFFFFABRRRQAUUUUAFFFFABRRRQAUUUUAFFFFAHj+qRNDqVwrDBWRuPxqvXpXiP4f2uv3HnLI1vM33io3BvqKyx8Il/6CDf8Afn/7KgDiaK7gfCOL/n+k/wC/Y/xpw+Elv/z+Tf8AfAoA4Wiu8Hwltf8An6uPyFOHwms+9zdf+O/4UAcDXZfCSBhLeSY+QhVz71ej+FOno2Wmum9ty8/pXQ6dpsGk2qw28axxr2HegCeiiigAooooAKKKKACiiigAooooA+ffgi//AAmv7R/xq8WSfP5Os2XhCwc8n7Jp9nHKw9sXt9fjA9AepwPWq8i/YuP2j4ceLLtv9dd/EXxj5h9fK8R6jbr/AOOQoPoK9doAKKKKAOf8JfFTw/458S+INF0vU4bjV/C1ylrqtkVaO4sndA8ZZHAbY6nKSAFHAO1jg4ofA741aX8fvAbeItHt9QtrJdRv9M2XqIkvm2d3LaSnCsw2mSFipzkqQSAcgeA/F+y0fWbzxd4P+I3wt0H9pvVNLa2vUsLXQtFOoW+jzSTyWx1AarNbWOYpop1UxTbnAEnkoSzH4v8A+CdHw70fxNq3wp8W/DX9kPV/Dd/4P+IusXOv+J7XTvCWk3UWlXn2/wCzRkrqK3kkKQ3lnIAIzG8MatAZV8reAfoV8UP+Cm37O/wdvdcsPEHxy+EWn634dEy32jzeMtMh1KKWMEtAYHnVxLkbQjAHJA4qP4Sf8FPv2d/ja3h618P/ABu+E15rfidIDY6InjHTJNUaWVQVtzbpOzmYE7Si5O4Ec1yXx58DSeEfEGueGfh58Tvid8Lr7TfDmqeOJrPQLPQr7TbyaW6kkkknfU7G8nWR53chI2SPaGwARXG/sUeN9L/aO0TwzZ+NPHv7R3xIvtWsNO14WfjL4W3HhvQ9PvrcxXazQX9voOnxttlUbFkuZEkUAAPnJAPtaiiigAryX43P/wAIV+0f8FfFkfyedrN74Qv3HB+yahZySqPfN7Y2AwfUnqMH1qvIv20T9n+HHhO7X/XWnxF8HeWfTzfEenW7f+OTOPoaAPoWiiigAooooAKKKKACiiigAooooAKKKKACiiigAooooAKKKKACiiigAooooAKKKKACiiigAooooAKKKKACiiigAooooAKKKKACiiigAooooAKKKKACiiigAooooAKKKKACiiigAooooAKKKKACiiigAooooAKKKKACiiigAooooAKKKKACiiigAooooAKKKKACiiigAooooAKKKKACiiigAooooAKKKKACiiigAooooAKKKKACiiigAooooAKKKKACiiigAooooAKKKKACiiigAooooAKKKKACiiigAooooAKKKKACiiigAooooAKKKKACiiigAooooAKKKKACiiigAooooAKKKKACiiigAooooAKKKKACiiigAooooAKKKKACiiigAooooAKKKKACiiigAooooAKKKKACiiigAooooAKKKKACiiigAooooAKKKKACiiigAooooAKKKKACiiigAooooAKKKKACiiigAooooAKKKKACiiigAooooAKKKKACiiigAooooAKKKKACiiigAooooAKKKKACiiigAooooAKKKKACiiigAooooAKKKKACiiigAooooAKKKKACiiigAooooAKKKKAPnv8AZMH9jT/FPw83E3h74iayZF7r9vkTVl/NNRRv+BV65XlN1H/wqv8Abq1S3k/d6Z8WPD8Oo2pP3TqmmHyLkE/3pLSeyKg8kWcp5AOPVqACiiigDwm7/YuufE95rsPiDxldalovjHVrjU/FFnb6ettL4gi+WO006SYu5jsYbZFjeKMK8zAs0io8sUnYeLvgB5nxK0vxh4R1SLwlr9rHBp+pBbEXFlrumxsSLW4hDod0YeQwTI6tCznIkjZ4n9GooA+Y/iL/AME4bn4leMfHPjSX4t/EDQPiN4ws5NFg1nRWgjsNJ0jDiHTV0y5We0mjBZpHmlRrlpJJTHNAjLGm38Fvgl+0F8LtJ8LaHffFj4Oat4a8O29rYSwQfC3UrS+uraFFjws7eIJEjkZV++YWUE52EcV9A0UAFFFFABXkf7WY/tmf4WeHl5m8Q/ETRjGvdvsEj6s35Jpzt/wGvXK8ptY/+Fqft1aXbx/vNM+E/h+bUboj7o1TUz5FsAf70dpBelgOQLyI8AjIB79RRRQAUUUUAFFFFABRRRQAUUUUAFFFFABRRRQAUUUUAFFFFABRRRQAUUUUAFFFFABRRRQAUUUUAFFFFABRRRQAUUUUAFFFFABRRRQAUUUUAFFFFABRRRQAUUUUAFFFFABRRRQAUUUUAFFFFABRRRQAUUUUAFFFFABRRRQAUUUUAFFFFABRRRQAUUUUAFFFFABRRRQAUUUUAFFFFABRRRQAUUUUAFFFFABRRRQAUUUUAFFFFABRRRQAUUUUAFFFFABRRRQAUUUUAFFFFABRRRQAUUUUAFFFFABRRRQAUUUUAFFFFABRRRQAUUUUAFFFFABRRRQAUUUUAFFFFABRRRQAUUUUAFFFFABRRRQAUUUUAFFFFABRRRQAUUUUAFFFFABRRRQAUUUUAFFFFABRRRQAUUUUAFFFFABRRRQAUUUUAFFFFABRRRQAUUUUAFFFFABRRRQAUUUUAFFFFABRRRQAUUUUAFFFFABRRRQAUUUUAFFFFABRRRQAUUUUAFFFFABRRRQAUUUUAFFFFABRRRQAUUUUAFFFFABRRRQAUUUUAFFFFABRRRQAUUUUAFFFFABRRRQAUUUUAFFFFABRRRQAUUUUAFFFFAHlv7XHwk1b4m/DW21DwulufHXgm/j8ReGvOk8qOa7hV1a1d/4I7mCSe2dv4VuC3VRUvwf+Kul/G34a6T4o0ZpvsOrRFxFOhjntZFYpLBKh5SWKRXjdTyrow7V6bXzv8WvCupfssfE/VfiNoVtdah8P/EjifxpotpCZJdJuAoX+2rWNRucFQouolBZgizKC6yCQA9goqn4d8Raf4u0Gz1TSr211LTdQhW4tbu1lWWG5jYZV0dSQykEEEHBq5QAUUUUAFFFFABRRVPxF4i0/wjoN5qmq3trpum6fC1xdXd1KsUNtGoyzu7EBVABJJOBQBjfGD4q6X8Evhrq3ijWWm+w6TEHMUCGSe6kZgkUESDl5ZZGSNFHLO6jvUX7I/wAJNW+GXw1udQ8UJbjx142v5PEXiXyZPNjhu5lRVtUf+OO2gjgtkb+JbcN1Y1xPwl8K6l+1P8T9K+I2u211p/w/8NuZ/Bei3cJjl1a4Klf7auo2G5AFLC1iYBlDtMwDtGI/oigAooooAKKKKACiiigAooooAKKKKACiiigAooooAKKKKACiiigAooooAKKKKACiiigAooooAKKKKACiiigAooooAKKKKACiiigAooooAKKKKACiiigAooooAKKKKACiiigAooooAKKKKACiiigAooooAKKKKACiiigAooooAKKKKACiiigAooooAKKKKACiiigAooooAKKKKACiiigAooooAKKKKACiisP4geKx4U0B5FP+kzfu4R79z+HX8qANzNFeI6N431PQ73zobqRtxy6SEsr/AFH+TXo/hL4o2PiPbDNizujxsc/K5/2W/oefrQB09FFFABRRRQAUUUUAFFFFABRRRQAUUUUAFFFFABRRRQAUUUUAFFFFABRRRQAUUUUAFFFFABRRRQAUUUUAFFFFABRRRQAUUUUAFFFFABRRRQAUUUUAFFFFABRRRQAUUUUAFFFFABRRRQAUUUUAFFFFABRRRQAUUUUAFFFFABRRRQAUUUUAFFFFABRRRQAUUUUAFFFFABRRRQAUUUUAFFFFABRRRQAUUUUAFFFFABRRRQAUUUUAFFFFABRRRQAUUUUAFFFFABRRRQAUUUUAFFFFABRRRQAUUUUAFFFFABRRRQAUUUUAFFFFABRRRQAUUUUAFFFFABRRRQAUUUUAFFFFABRRRQAUUUUAFFFFABRRRQAUUUUAFFFFABRRRQAUUUUAeA+Iv2aPEHwJ12/8QfBv+z/sOp3L3ur+B9RnaDS7yRjukm0+UA/Ybhzksu1reVmJZY3ZpqufDT9qnwv8QPESeHL433g7xvs3S+F/EUQsdUGPvGJSTHdRjj97bPLHyPnzxXuVc78TvhF4V+NPhttH8XeHdF8TaWzbxbalZx3MaOOjqHB2uOoZcMDyCDQBDRXmr/sSHwof+KE+J3xM8FQr9ywbUo9esB/s7NSjuJET0WGWMDgDA4qM/BX46WHy2fxc+HtxGOjap8ObieU/UwatAufoooA9OorzEfBX46X/AMt58XPh7bxnq2l/Dm4glH0M+rTrn6qakT9iQ+Kz/wAV38TviZ41hb79gupR6DYH/Z2abHbyOnqs0sgPIORxQAfEv9qnwv8AD/xE/hyxN94x8b7N0Xhfw7EL7VDn7plUER2sZ5/e3LxR8H588VT8O/s0eIPjtrth4g+Mn9n/AGHTLlL3SPA+nTtPpdnIp3RzahKQPt1whwVXatvEygqsjqs1eufDH4ReFfgt4bXR/CPh3RfDOlq2822m2cdtG7nq7BANznqWbLE8kk10VABRRRQAUUUUAFFFFABRRRQAUUUUAFFFFABRRRQAUUUUAFFFFABRRRQAUUUUAFFFFABRRRQAUUUUAFFFFABRRRQAUUUUAFFFFABRRRQAUUUUAFFFFABRRRQAUUUUAFFFFABRRRQAUUUUAFFFFABRRRQAUUUUAFFFFABRRRQAUUUUAFFFFABRRRQAUUUUAFFFFABRRRQAUUUUAFFFFABRRRQAUUUUAFFFFACPIsSMzEKqjJJ6AV4t498VN4r1+SZSfs8X7uEf7Pr9T1/Ku0+MPi3+z9PXTYW/fXQzKR/Cnp+P8gfWvMaACiiigDqPCXxTvvDu2GfN5ajja5+dB7N/Q/pXpXh7xXY+KLfzLSYMyjLRtw6fUf16V4bUlnezafcLNBI8MqHKshwRQB9AUV574R+Mv3LfVl9hcIP/AEIf1H5V31peRX9us0MiTROMqyHINAElFFFABRRRQAUUUUAFFFFABRRRQAUUUUAFFFFABRRRQAUUUUAFFFFABRRRQAUUUUAFFFFABRRRQAUUUUAFFFFABRRRQAUUUUAFFFFABRRRQAUUUUAFFFFABRRRQAUUUUAFFFFABRRRQAUUUUAFFFFABRRRQAUUUUAFFFFABRRRQAUUUUAFFFFABRRRQAUUUUAFFFFABRRRQAUUUUAFFFFABRRRQAUUUUAFFFFABRRRQAUUUUAFFFFABRRRQAUUUUAFFFFABRRRQAUUUUAFFFFABRRRQAUUUUAFFFFABRRRQAUUUUAFFFFABRRRQAUUUUAFFFFABRRRQAUUUUAFFFFABRRRQAUUUUAFFFFABRRRQAUUUUAFFFFABRRRQAUUU2WVYYmdmCqoLMT2AoAwviD4n/4R7R9sTbbq4+VP9kd2/p9TXLeHfifeaYwjvM3kPqf9Yv0Pf8fzrJ8W+IG8Sa1Jcc+WPkiX0UdPz6/jWbQB7FoviKz8QQeZazK+PvKeGX6ir1eJ2t3LZTrJDI8ci8hlOCK9E+HXi+78RCWG5jVzAoPnAYznsR6/SgDqKKKKACiiigAooooAKKKKACiiigAooooAKKKKACiiigAooooAKKKKACiiigAooooAKKKKACiiigAooooAKKKKACiiigAooooAKKKKACiiigAooooAKKKKACiiigAooooAKKKKACiiigAooooAKKKKACiiigAooooAKKKKACiiigAooooAKKKKACiiigAooooAKKKKACiiigAooooAKKKKACiiigAqrresQ6DpU13OcRwrnH949gPcnirVeX/GDxb/AGnqQ02Fv3FocyEH78np+HT6k0AcrrOrTa5qc11O26SZtx9vQD2A4qrRRQAUUUUAFFFFABWl4d8WX3he432kxVWOWjblH+o/r1rNooA9c8JfFKx8RbYZsWd0eNrn5HPs39D+tdRXz3XUeEvilfeHdsM2by1HG1z86D2b+h4+lAHrlFZvh3xZY+KLffaTBmUZaNuHT6j+vStKgAooooAKKKKACiiigAooooAKKKKACiiigAooooAKKKKACiiigAooooA//9k=;" vertex="1" parent="1">
          <mxGeometry x="510" y="630" width="380" height="200" as="geometry" />
        </mxCell>
        <mxCell id="nMR-CEYCyFCmmQzAVJvf-3" value="List" style="swimlane;fontStyle=0;childLayout=stackLayout;horizontal=1;startSize=26;horizontalStack=0;resizeParent=1;resizeParentMax=0;resizeLast=0;collapsible=1;marginBottom=0;align=center;fontSize=14;" vertex="1" parent="1">
          <mxGeometry x="70" y="-50" width="160" height="116" as="geometry" />
        </mxCell>
        <mxCell id="nMR-CEYCyFCmmQzAVJvf-4" value="Item 1" style="text;strokeColor=none;fillColor=none;spacingLeft=4;spacingRight=4;overflow=hidden;rotatable=0;points=[[0,0.5],[1,0.5]];portConstraint=eastwest;fontSize=12;whiteSpace=wrap;html=1;" vertex="1" parent="nMR-CEYCyFCmmQzAVJvf-3">
          <mxGeometry y="26" width="160" height="30" as="geometry" />
        </mxCell>
        <mxCell id="nMR-CEYCyFCmmQzAVJvf-5" value="Item 2" style="text;strokeColor=none;fillColor=none;spacingLeft=4;spacingRight=4;overflow=hidden;rotatable=0;points=[[0,0.5],[1,0.5]];portConstraint=eastwest;fontSize=12;whiteSpace=wrap;html=1;" vertex="1" parent="nMR-CEYCyFCmmQzAVJvf-3">
          <mxGeometry y="56" width="160" height="30" as="geometry" />
        </mxCell>
        <mxCell id="nMR-CEYCyFCmmQzAVJvf-6" value="Item 3" style="text;strokeColor=none;fillColor=none;spacingLeft=4;spacingRight=4;overflow=hidden;rotatable=0;points=[[0,0.5],[1,0.5]];portConstraint=eastwest;fontSize=12;whiteSpace=wrap;html=1;" vertex="1" parent="nMR-CEYCyFCmmQzAVJvf-3">
          <mxGeometry y="86" width="160" height="30" as="geometry" />
        </mxCell>
      </root>
    </mxGraphModel>
  </diagram>
</mxfile>
